<?xml version="1.0" encoding="utf-8"?>
<svg viewBox="0 0 264 280" xmlns="http://www.w3.org/2000/svg">
  <g id="Avataaar" stroke="none" stroke-width="1" fill="none" fill-rule="evenodd">
    <g transform="translate(-825.000000, -1100.000000)" id="Avataaar/Circle">
      <g transform="translate(825.000000, 1100.000000)">
        <mask id="mask-4" fill="white">
          <path d="M12,160 C12,226.27417 65.72583,280 132,280 C198.27417,280 252,226.27417 252,160 L264,160 L264,-1.42108547e-14 L-3.19744231e-14,-1.42108547e-14 L-3.19744231e-14,160 L12,160 Z" transform="matrix(1, 0, 0, 1, 0, 0)"/>
        </mask>
        <g id="Mask"/>
        <g>
          <g>
            <g id="Circle" stroke-width="1" fill-rule="evenodd" transform="matrix(-1, 0, 0, 1, 252.309738, 39.690277)">
              <mask id="mask-2" fill="white">
                <circle cx="120" cy="120" r="120" transform="matrix(1, 0, 0, 1, 0, 0)"/>
              </mask>
              <circle id="Circle-Background" cx="120" cy="120" r="120" transform="matrix(1, 0, 0, 1, 0, 0)" style="fill: rgba(116, 16, 247, 0.63); paint-order: stroke markers;"/>
              <g id="Color/Palette/Blue-01" mask="url(#mask-2)" fill="#65C9FF">
                <rect id="ðŸ–Color" x="0" y="0" width="240" height="240" style="fill: rgba(116, 16, 247, 0.63); paint-order: stroke markers;"/>
              </g>
            </g>
          </g>
        </g>
        <g id="Avataaar" stroke-width="1" fill-rule="evenodd" mask="url(#mask-4)" style="pointer-events: none;">
          <g id="Body" transform="translate(32.000000, 36.000000)">
            <mask id="mask-6" fill="white">
              <path d="M124,144.610951 L124,163 L128,163 L128,163 C167.764502,163 200,195.235498 200,235 L200,244 L0,244 L0,235 C-4.86974701e-15,195.235498 32.235498,163 72,163 L72,163 L76,163 L76,144.610951 C58.7626345,136.422372 46.3722246,119.687011 44.3051388,99.8812385 C38.4803105,99.0577866 34,94.0521096 34,88 L34,74 C34,68.0540074 38.3245733,63.1180731 44,62.1659169 L44,56 L44,56 C44,25.072054 69.072054,5.68137151e-15 100,0 L100,0 L100,0 C130.927946,-5.68137151e-15 156,25.072054 156,56 L156,62.1659169 C161.675427,63.1180731 166,68.0540074 166,74 L166,88 C166,94.0521096 161.51969,99.0577866 155.694861,99.8812385 C153.627775,119.687011 141.237365,136.422372 124,144.610951 Z" transform="matrix(1, 0, 0, 1, 0, 0)"/>
            </mask>
            <path d="M 124 144.611 L 124 163 L 128 163 C 167.765 163 200 195.235 200 235 L 200 244 L 0 244 L 0 235 C 0 195.235 32.235 163 72 163 L 76 163 L 76 144.611 C 58.763 136.422 46.372 119.687 44.305 99.881 C 38.48 99.058 34.31 95.601 34.31 89.549 L 34 74 C 34 68.054 38.325 63.118 44 62.166 L 44 56 C 44 25.072 69.072 0 100 0 C 130.928 0 156 25.072 156 56 L 156 62.166 C 161.675 63.118 166 68.054 166 74 L 166 88 C 166 94.052 161.52 99.058 155.695 99.881 C 153.628 119.687 141.237 136.422 124 144.611 Z" transform="matrix(1, 0, 0, 1, 0, 0)" fill="#D0C6AC" style=""/>
            <g id="Skin/ðŸ‘¶ðŸ½-03-Brown" mask="url(#mask-6)" fill="#EDB98A">
              <g transform="translate(-32.000000, 0.000000)" id="Color">
                <rect x="0" y="0" width="264" height="244" style=""/>
              </g>
            </g>
            <path d="M 156 79 L 156 102 C 156 132.928 130.928 158 100 158 C 69.072 158 44 132.928 44 102 L 44 79 L 44 94 C 44 124.928 69.072 150 100 150 C 130.928 150 156 124.928 156 94 L 156 79 Z" id="Neck-Shadow" fill-opacity="0.100000001" fill="#000000" mask="url(#mask-6)" style=""/>
          </g>
          <g id="Clothing/Hoodie" transform="translate(0.000000, 170.000000)">
            <defs>
              <path d="M108,13.0708856 C90.0813006,15.075938 76.2798424,20.5518341 76.004203,34.6449676 C50.1464329,45.5680933 32,71.1646257 32,100.999485 L32,100.999485 L32,110 L232,110 L232,100.999485 C232,71.1646257 213.853567,45.5680933 187.995797,34.6449832 C187.720158,20.5518341 173.918699,15.075938 156,13.0708856 L156,32 L156,32 C156,45.254834 145.254834,56 132,56 L132,56 C118.745166,56 108,45.254834 108,32 L108,13.0708856 Z" id="react-path-746"/>
            </defs>
            <mask id="react-mask-747" fill="white">
              <path d="M108,13.0708856 C90.0813006,15.075938 76.2798424,20.5518341 76.004203,34.6449676 C50.1464329,45.5680933 32,71.1646257 32,100.999485 L32,100.999485 L32,110 L232,110 L232,100.999485 C232,71.1646257 213.853567,45.5680933 187.995797,34.6449832 C187.720158,20.5518341 173.918699,15.075938 156,13.0708856 L156,32 L156,32 C156,45.254834 145.254834,56 132,56 L132,56 C118.745166,56 108,45.254834 108,32 L108,13.0708856 Z" transform="matrix(1, 0, 0, 1, 0, 0)"/>
            </mask>
            <path d="M 108 13.071 C 90.081 15.076 76.28 20.552 76.004 34.645 C 50.146 45.568 32 71.165 32 100.999 L 32 110 L 232 110 L 232 100.999 C 232 71.165 213.854 45.568 187.996 34.645 C 187.72 20.552 173.919 15.076 156 13.071 L 156 32 C 156 45.255 145.255 56 132 56 C 118.745 56 108 45.255 108 32 L 108 13.071 Z" id="Hoodie" transform="matrix(1, 0, 0, 1, 0, 0)" fill="#B7C1DB" fill-rule="evenodd" style=""/>
            <g id="Color/Palette/Gray-01" mask="url(#react-mask-747)" fill-rule="evenodd" fill="#3C4F5C">
              <rect id="ðŸ–Color" x="0" y="0" width="264" height="110"/>
            </g>
            <path d="M 102 61.739 L 102 110 L 95 110 L 95 58.15 C 97.204 59.46 99.547 60.661 102 61.739 Z M 169 58.15 L 169.31 110.889 C 169.31 112.822 167.743 109.434 165.81 109.434 C 163.877 109.434 162.309 112.203 162.309 110.27 L 162 61.739 C 164.453 60.661 166.796 59.46 169 58.15 Z" id="Straps" fill="#F4F4F4" fill-rule="evenodd" mask="url(#react-mask-747)" style=""/>
            <path d="M 90.96 12.724 C 75.909 15.571 65.5 21.243 65.5 32.308 C 65.5 52.02 98.538 68 132 68 C 165.462 68 198.5 52.02 198.5 32.308 C 198.5 21.243 188.091 15.571 173.04 12.724 C 182.125 16.074 188 21.706 188 31.077 C 188 51.469 160.179 68 132 68 C 103.821 68 76 51.469 76 31.077 C 76 21.706 81.875 16.074 90.96 12.724 Z" id="Shadow" fill-opacity="0.16" fill="#000000" fill-rule="evenodd" mask="url(#react-mask-747)" style=""/>
          </g>
          <g id="Face" transform="translate(76.000000, 82.000000)" fill="#000000">
            <g id="Mouth/Smile" transform="translate(2.000000, 52.000000)">
              <defs>
                <path d="M35.117844,15.1280772 C36.1757121,24.6198025 44.2259873,32 54,32 C63.8042055,32 71.8740075,24.574136 72.8917593,15.0400546 C72.9736685,14.272746 72.1167429,13 71.042767,13 C56.1487536,13 44.7379213,13 37.0868244,13 C36.0066168,13 35.0120058,14.1784435 35.117844,15.1280772 Z" id="react-path-760"/>
              </defs>
              <mask id="react-mask-761" fill="white">
                <path d="M35.117844,15.1280772 C36.1757121,24.6198025 44.2259873,32 54,32 C63.8042055,32 71.8740075,24.574136 72.8917593,15.0400546 C72.9736685,14.272746 72.1167429,13 71.042767,13 C56.1487536,13 44.7379213,13 37.0868244,13 C36.0066168,13 35.0120058,14.1784435 35.117844,15.1280772 Z" transform="matrix(1, 0, 0, 1, 0, 0)"/>
              </mask>
              <path d="M 35.118 15.128 C 36.176 24.62 44.226 32 54 32 C 63.804 32 71.874 24.574 72.892 15.04 C 72.974 14.273 72.117 13 71.043 13 C 56.149 13 44.738 13 37.087 13 C 36.007 13 35.012 14.178 35.118 15.128 Z" id="Mouth" transform="matrix(1, 0, 0, 1, 0, 0)" fill-opacity="0.699999988" fill="#000000" fill-rule="evenodd" style=""/>
              <rect id="Teeth" fill="#FFFFFF" fill-rule="evenodd" mask="url(#react-mask-761)" x="39" y="2" width="31" height="16" rx="5"/>
              <g id="Tongue" stroke-width="1" fill-rule="evenodd" mask="url(#react-mask-761)" fill="#FF4F6D">
                <g transform="translate(38.000000, 24.000000)">
                  <circle cx="11" cy="11" r="11" style=""/>
                  <circle cx="21" cy="11" r="11" style=""/>
                </g>
              </g>
            </g>
            <g id="Nose/Default" transform="translate(28.000000, 40.000000)" fill-opacity="0.16">
              <path d="M 16.31 6.761 C 16.31 11.179 21.373 16 28 16 C 34.627 16 39.69 10.869 39.69 6.451" id="Nose" style=""/>
            </g>
            <g id="Eyes/Happy-ðŸ˜" transform="translate(0.000000, 8.000000)" fill-opacity="0.599999964">
              <path d="M 16.16 22.447 C 18.007 18.649 22.164 16 26.998 16 C 31.814 16 35.959 18.63 37.815 22.407 C 38.367 23.529 37.582 24.447 36.791 23.767 C 34.34 21.66 30.859 20.344 26.998 20.344 C 23.257 20.344 19.874 21.579 17.438 23.572 C 16.547 24.3 15.62 23.558 16.16 22.447 Z" id="Squint"/>
              <path d="M 74.16 22.447 C 76.007 18.649 80.164 16 84.998 16 C 89.814 16 93.959 18.63 95.815 22.407 C 96.367 23.529 95.582 24.447 94.791 23.767 C 92.34 21.66 88.859 20.344 84.998 20.344 C 81.257 20.344 77.874 21.579 75.438 23.572 C 74.547 24.3 73.62 23.558 74.16 22.447 Z" id="Squint"/>
            </g>
            <g id="Eyebrow/Natural/Default-Natural" fill-opacity="0.599999964">
              <path d="M 26.039 6.21 C 20.278 6.983 11.293 12.005 12.044 17.818 C 12.069 18.008 12.357 18.067 12.481 17.908 C 14.967 14.72 34.193 10.037 41.194 11.015 C 41.835 11.104 42.258 10.443 41.821 10.03 C 38.077 6.495 31.2 5.512 26.039 6.21" id="Eyebrow" transform="translate(27.000000, 12.000000) rotate(5.000000) translate(-27.000000, -12.000000) "/>
              <path d="M 85.039 6.21 C 79.278 6.983 70.293 12.005 71.044 17.818 C 71.069 18.008 71.357 18.067 71.481 17.908 C 73.967 14.72 93.193 10.037 100.194 11.015 C 100.835 11.104 101.258 10.443 100.821 10.03 C 97.077 6.495 90.2 5.512 85.039 6.21" id="Eyebrow" transform="translate(86.000000, 12.000000) scale(-1, 1) rotate(5.000000) translate(-86.000000, -12.000000) "/>
            </g>
          </g>
          <g id="Top" stroke-width="1" fill-rule="evenodd">
            <defs>
              <rect id="react-path-655" x="0" y="0" width="264" height="280"/>
              <path d="M180.14998,39.9204083 C177.390206,37.1003988 174.185913,34.7068297 171.069252,32.3065503 C170.381566,31.777442 169.682843,31.2610833 169.010544,30.7118441 C168.857687,30.5870323 167.291999,29.4657388 167.104691,29.0530544 C166.653816,28.0602634 166.915042,28.8332916 166.977255,27.6485857 C167.055857,26.150508 170.11064,21.9193194 167.831176,20.9490079 C166.828413,20.522232 165.039628,21.6579526 164.077671,22.0330592 C162.196235,22.7671676 160.291721,23.3932399 158.346734,23.9330847 C159.278588,22.0763407 161.055333,18.3594977 157.71591,19.3543018 C155.114345,20.1293431 152.690052,22.1219709 150.075777,23.0594018 C150.940735,21.6415124 154.399901,17.2479341 151.274209,17.0023366 C150.301549,16.925839 147.471201,18.7503735 146.423952,19.1395717 C143.287223,20.3054888 140.083264,21.0590571 136.789999,21.6525844 C125.59203,23.6707114 112.497238,23.0953019 102.1368,28.1934632 C94.1494796,32.1236942 86.262502,38.2220278 81.648386,45.987539 C77.2011742,53.472559 75.537818,61.6641751 74.6069673,70.2412987 C73.9239644,76.535909 73.8684412,83.0425652 74.1878671,89.3599905 C74.2922241,91.4297869 74.5250203,100.970847 77.5319724,98.0813859 C79.0300967,96.641688 79.019059,90.8282073 79.3963495,88.8604076 C80.1472513,84.9452748 80.870057,81.0126951 82.122006,77.2227096 C84.3282191,70.5439339 86.9307879,63.4296587 92.4269209,58.8297383 C95.9539853,55.8782066 98.4307906,51.8889248 101.806002,48.9112229 C103.322188,47.5738572 102.165231,47.7130963 104.602902,47.888571 C106.240504,48.006337 107.885464,48.0512961 109.52641,48.0942421 C113.322394,48.1928837 117.124399,48.16772 120.921387,48.1811407 C128.56821,48.208653 136.179243,48.316689 143.818708,47.9164188 C147.213653,47.7385955 150.617965,47.6423024 154.00388,47.3282597 C155.895349,47.152785 159.251496,45.9405668 160.808488,46.8669256 C162.233362,47.7144383 163.71309,50.4817719 164.736257,51.615144 C167.153525,54.2935659 170.035717,56.3392052 172.862385,58.5354911 C178.756547,63.114945 181.732392,68.8666908 183.522515,76.023241 C185.305949,83.1532854 184.805905,89.76815 187.013456,96.78479 C187.401784,98.0184813 188.428965,100.14498 189.695296,98.2389151 C189.930434,97.8849461 189.869559,95.9390277 189.869559,94.819339 C189.869559,90.2995934 191.014141,86.9083772 190.999758,82.3591197 C190.943566,68.5271489 190.49637,50.4908308 180.14998,39.9204083 Z" id="react-path-654"/>
            </defs>
            <mask id="react-mask-653" fill="white">
              <rect x="0" y="0" width="264" height="280" transform="matrix(1, 0, 0, 1, 0, 0)"/>
            </mask>
            <g id="Mask"/>
            <g id="Top/Short-Hair/Short-Flat" mask="url(#react-mask-653)">
              <g transform="translate(-1.000000, 0.000000)">
                <g id="Facial-Hair/Beard-Light" transform="translate(49.000000, 72.000000)">
                  <defs>
                    <path d="M101.428403,98.1685688 C98.9148372,100.462621 96.23722,101.494309 92.8529444,100.772863 C92.2705777,100.648833 89.8963391,96.2345713 83.9998344,96.2345713 C78.1033297,96.2345713 75.7294253,100.648833 75.1467245,100.772863 C71.7624488,101.494309 69.0848316,100.462621 66.5712661,98.1685688 C61.8461772,93.855604 57.9166219,87.9081858 60.2778299,81.4191814 C61.5083844,78.0369425 63.5097479,74.3237342 67.1506257,73.2459109 C71.0384163,72.0955419 76.4968931,73.2439051 80.4147542,72.4582708 C81.6840664,72.2035248 83.0706538,71.7508657 83.9998344,71 C84.929015,71.7508657 86.3159365,72.2035248 87.5845805,72.4582708 C91.5027758,73.2439051 96.9612525,72.0955419 100.849043,73.2459109 C104.489921,74.3237342 106.491284,78.0369425 107.722173,81.4191814 C110.083381,87.9081858 106.153826,93.855604 101.428403,98.1685688 M140.081033,26 C136.670693,34.4002532 137.987774,44.8580348 137.356666,53.6758724 C136.844038,60.8431942 135.33712,71.5857526 128.972858,76.214531 C125.718361,78.5816138 119.79436,82.5598986 115.54187,81.4501943 C112.614539,80.6863848 112.302182,72.290096 108.455284,69.1469801 C104.09172,65.5823153 98.6429854,64.0160432 93.1491481,64.2578722 C90.7785381,64.3622683 85.9841367,64.3374908 83.9999331,66.1604584 C82.0157295,64.3374908 77.2216647,64.3622683 74.8510547,64.2578722 C69.3568808,64.0160432 63.9081467,65.5823153 59.5445817,69.1469801 C55.6976839,72.290096 55.3856641,80.6863848 52.4583326,81.4501943 C48.2058427,82.5598986 42.2818421,78.5816138 39.0270077,76.214531 C32.6624096,71.5857526 31.1561652,60.8431942 30.642864,53.6758724 C30.0120926,44.8580348 31.3291729,34.4002532 27.9188335,26 C26.2597768,26 27.3540339,42.1288693 27.3540339,42.1288693 L27.3540339,62.4851205 C27.3856735,77.7732046 36.935095,100.655445 58.1080116,109.393004 C63.2861266,111.52982 75.0153111,115 83.9999331,115 C92.9845551,115 104.71374,111.860188 109.891855,109.723371 C131.064771,100.985813 140.614193,77.7732046 140.646169,62.4851205 L140.646169,42.1288693 C140.646169,42.1288693 141.740089,26 140.081033,26" id="react-path-723"/>
                  </defs>
                  <mask id="react-mask-722" fill="white">
                    <path d="M101.428403,98.1685688 C98.9148372,100.462621 96.23722,101.494309 92.8529444,100.772863 C92.2705777,100.648833 89.8963391,96.2345713 83.9998344,96.2345713 C78.1033297,96.2345713 75.7294253,100.648833 75.1467245,100.772863 C71.7624488,101.494309 69.0848316,100.462621 66.5712661,98.1685688 C61.8461772,93.855604 57.9166219,87.9081858 60.2778299,81.4191814 C61.5083844,78.0369425 63.5097479,74.3237342 67.1506257,73.2459109 C71.0384163,72.0955419 76.4968931,73.2439051 80.4147542,72.4582708 C81.6840664,72.2035248 83.0706538,71.7508657 83.9998344,71 C84.929015,71.7508657 86.3159365,72.2035248 87.5845805,72.4582708 C91.5027758,73.2439051 96.9612525,72.0955419 100.849043,73.2459109 C104.489921,74.3237342 106.491284,78.0369425 107.722173,81.4191814 C110.083381,87.9081858 106.153826,93.855604 101.428403,98.1685688 M140.081033,26 C136.670693,34.4002532 137.987774,44.8580348 137.356666,53.6758724 C136.844038,60.8431942 135.33712,71.5857526 128.972858,76.214531 C125.718361,78.5816138 119.79436,82.5598986 115.54187,81.4501943 C112.614539,80.6863848 112.302182,72.290096 108.455284,69.1469801 C104.09172,65.5823153 98.6429854,64.0160432 93.1491481,64.2578722 C90.7785381,64.3622683 85.9841367,64.3374908 83.9999331,66.1604584 C82.0157295,64.3374908 77.2216647,64.3622683 74.8510547,64.2578722 C69.3568808,64.0160432 63.9081467,65.5823153 59.5445817,69.1469801 C55.6976839,72.290096 55.3856641,80.6863848 52.4583326,81.4501943 C48.2058427,82.5598986 42.2818421,78.5816138 39.0270077,76.214531 C32.6624096,71.5857526 31.1561652,60.8431942 30.642864,53.6758724 C30.0120926,44.8580348 31.3291729,34.4002532 27.9188335,26 C26.2597768,26 27.3540339,42.1288693 27.3540339,42.1288693 L27.3540339,62.4851205 C27.3856735,77.7732046 36.935095,100.655445 58.1080116,109.393004 C63.2861266,111.52982 75.0153111,115 83.9999331,115 C92.9845551,115 104.71374,111.860188 109.891855,109.723371 C131.064771,100.985813 140.614193,77.7732046 140.646169,62.4851205 L140.646169,42.1288693 C140.646169,42.1288693 141.740089,26 140.081033,26" transform="matrix(1, 0, 0, 1, 0, 0)"/>
                  </mask>
                  <path d="M 101.428 98.169 C 98.915 100.463 96.237 101.494 92.853 100.773 C 92.271 100.649 89.896 96.235 84 96.235 C 78.103 96.235 75.729 100.649 75.147 100.773 C 71.762 101.494 69.085 100.463 66.571 98.169 C 61.846 93.856 57.917 87.908 60.278 81.419 C 61.508 78.037 63.51 74.324 67.151 73.246 C 71.038 72.096 76.497 73.244 80.415 72.458 C 81.684 72.204 83.071 71.751 84 71 C 84.929 71.751 86.316 72.204 87.585 72.458 C 91.503 73.244 96.961 72.096 100.849 73.246 C 104.49 74.324 106.491 78.037 107.722 81.419 C 110.083 87.908 106.154 93.856 101.428 98.169 M 140.081 26 C 136.671 34.4 137.988 44.858 137.357 53.676 C 136.844 60.843 135.337 71.586 128.973 76.215 C 125.718 78.582 119.794 82.56 115.542 81.45 C 112.615 80.686 112.302 72.29 108.455 69.147 C 104.092 65.582 98.643 64.016 93.149 64.258 C 90.779 64.362 85.984 64.337 84 66.16 C 82.016 64.337 77.222 64.362 74.851 64.258 C 69.357 64.016 63.908 65.582 59.545 69.147 C 55.698 72.29 55.386 80.686 52.458 81.45 C 48.206 82.56 42.282 78.582 39.027 76.215 C 32.662 71.586 31.156 60.843 30.643 53.676 C 30.012 44.858 31.329 34.4 27.919 26 C 26.26 26 27.354 42.129 27.354 42.129 L 27.354 62.485 C 27.386 77.773 36.935 100.655 58.108 109.393 C 63.286 111.53 75.015 115 84 115 C 92.985 115 104.714 111.86 109.892 109.723 C 131.065 100.986 140.614 77.773 140.646 62.485 L 140.646 42.129 C 140.646 42.129 141.74 26 140.081 26" id="Lite-Beard" transform="matrix(1, 0, 0, 1, 0, 0)" fill-rule="evenodd" style="fill: rgb(29, 14, 5);"/>
                  <g id="Color/Hair/Brown" mask="url(#react-mask-722)" fill="#4A312C">
                    <g transform="translate(-32.000000, 0.000000)" id="Color">
                      <rect x="0" y="0" width="264" height="244" style="fill: rgb(29, 14, 5);"/>
                    </g>
                  </g>
                </g>
                <mask id="react-mask-652" fill="white">
                  <path d="M180.14998,39.9204083 C177.390206,37.1003988 174.185913,34.7068297 171.069252,32.3065503 C170.381566,31.777442 169.682843,31.2610833 169.010544,30.7118441 C168.857687,30.5870323 167.291999,29.4657388 167.104691,29.0530544 C166.653816,28.0602634 166.915042,28.8332916 166.977255,27.6485857 C167.055857,26.150508 170.11064,21.9193194 167.831176,20.9490079 C166.828413,20.522232 165.039628,21.6579526 164.077671,22.0330592 C162.196235,22.7671676 160.291721,23.3932399 158.346734,23.9330847 C159.278588,22.0763407 161.055333,18.3594977 157.71591,19.3543018 C155.114345,20.1293431 152.690052,22.1219709 150.075777,23.0594018 C150.940735,21.6415124 154.399901,17.2479341 151.274209,17.0023366 C150.301549,16.925839 147.471201,18.7503735 146.423952,19.1395717 C143.287223,20.3054888 140.083264,21.0590571 136.789999,21.6525844 C125.59203,23.6707114 112.497238,23.0953019 102.1368,28.1934632 C94.1494796,32.1236942 86.262502,38.2220278 81.648386,45.987539 C77.2011742,53.472559 75.537818,61.6641751 74.6069673,70.2412987 C73.9239644,76.535909 73.8684412,83.0425652 74.1878671,89.3599905 C74.2922241,91.4297869 74.5250203,100.970847 77.5319724,98.0813859 C79.0300967,96.641688 79.019059,90.8282073 79.3963495,88.8604076 C80.1472513,84.9452748 80.870057,81.0126951 82.122006,77.2227096 C84.3282191,70.5439339 86.9307879,63.4296587 92.4269209,58.8297383 C95.9539853,55.8782066 98.4307906,51.8889248 101.806002,48.9112229 C103.322188,47.5738572 102.165231,47.7130963 104.602902,47.888571 C106.240504,48.006337 107.885464,48.0512961 109.52641,48.0942421 C113.322394,48.1928837 117.124399,48.16772 120.921387,48.1811407 C128.56821,48.208653 136.179243,48.316689 143.818708,47.9164188 C147.213653,47.7385955 150.617965,47.6423024 154.00388,47.3282597 C155.895349,47.152785 159.251496,45.9405668 160.808488,46.8669256 C162.233362,47.7144383 163.71309,50.4817719 164.736257,51.615144 C167.153525,54.2935659 170.035717,56.3392052 172.862385,58.5354911 C178.756547,63.114945 181.732392,68.8666908 183.522515,76.023241 C185.305949,83.1532854 184.805905,89.76815 187.013456,96.78479 C187.401784,98.0184813 188.428965,100.14498 189.695296,98.2389151 C189.930434,97.8849461 189.869559,95.9390277 189.869559,94.819339 C189.869559,90.2995934 191.014141,86.9083772 190.999758,82.3591197 C190.943566,68.5271489 190.49637,50.4908308 180.14998,39.9204083 Z" transform="matrix(1, 0, 0, 1, 0, 0)"/>
                </mask>
                <path d="M 180.15 39.92 C 177.39 37.1 174.186 34.707 171.069 32.307 C 170.382 31.777 169.683 31.261 169.011 30.712 C 168.858 30.587 167.292 29.466 167.105 29.053 C 166.654 28.06 166.915 28.833 166.977 27.649 C 167.056 26.151 168.872 24.087 166.592 23.117 C 165.589 22.69 165.04 21.658 164.078 22.033 C 162.196 22.767 160.292 23.393 158.347 23.933 C 159.279 22.076 163.223 21.147 155.238 18.425 C 152.668 17.549 152.69 22.122 150.076 23.059 C 150.941 21.642 154.4 17.248 151.274 17.002 C 150.302 16.926 147.471 18.75 146.424 19.14 C 143.287 20.305 139.773 18.891 136.48 19.175 C 125.144 20.154 112.497 23.095 102.137 28.193 C 94.149 32.124 86.263 38.222 81.648 45.988 C 77.201 53.473 75.538 61.664 74.607 70.241 C 73.924 76.536 73.868 83.043 74.188 89.36 C 74.292 91.43 74.525 100.971 77.532 98.081 C 79.03 96.642 79.019 90.828 79.396 88.86 C 80.147 84.945 80.87 81.013 82.122 77.223 C 84.328 70.544 86.931 63.43 92.427 58.83 C 95.954 55.878 98.431 51.889 101.806 48.911 C 103.322 47.574 102.165 47.713 104.603 47.889 C 106.241 48.006 107.885 48.051 109.526 48.094 C 113.322 48.193 117.124 48.168 120.921 48.181 C 128.568 48.209 136.179 48.317 143.819 47.916 C 147.214 47.739 150.618 47.642 154.004 47.328 C 155.895 47.153 159.251 45.941 160.808 46.867 C 162.233 47.714 163.713 50.482 164.736 51.615 C 167.154 54.294 170.036 56.339 172.862 58.535 C 178.757 63.115 181.732 68.867 183.523 76.023 C 185.306 83.153 184.806 89.768 187.013 96.785 C 187.402 98.018 188.429 100.145 189.695 98.239 C 189.93 97.885 189.87 95.939 189.87 94.819 C 189.87 90.3 191.014 86.908 191 82.359 C 190.944 68.527 190.496 50.491 180.15 39.92 Z" id="Short-Hair" stroke="none" fill-rule="evenodd" transform="matrix(1, 0, 0, 1, 0, 0)" style="fill: rgb(29, 14, 5);"/>
                <g id="Skin/ðŸ‘¶ðŸ½-03-Brown" mask="url(#react-mask-652)" fill="#2C1B18">
                  <g transform="translate(0.000000, 0.000000) " id="Color">
                    <rect width="264" height="280" y="0" x="0" style="fill: rgb(28, 13, 4);"/>
                  </g>
                </g>
              </g>
            </g>
          </g>
        </g>
      </g>
    </g>
  </g>
</svg>