<svg width="759" height="1013" viewBox="0 0 759 1013" fill="none" xmlns="http://www.w3.org/2000/svg">
<path d="M625.871 472.126C625.871 472.126 618.966 469.917 616.204 475.715C613.442 481.237 604.604 548.329 607.089 567.103C609.575 585.878 616.48 578.975 616.48 578.975C616.48 578.975 615.652 590.019 611.232 593.332C611.232 593.332 610.956 593.332 610.956 593.056L610.68 592.78C607.918 591.124 598.803 584.773 590.241 578.975C580.022 572.073 574.222 565.999 574.222 565.999C574.222 565.999 575.603 554.955 575.603 551.642C575.603 548.605 553.23 474.335 531.41 451.142C510.972 429.607 531.134 308.952 533.896 292.387L534.172 290.454C534.172 290.454 551.849 295.7 559.583 301.222C567.317 306.744 594.937 374.664 596.318 409.728C597.699 444.516 610.128 464.395 610.128 464.395C610.128 464.395 614.271 461.91 621.452 464.395L625.871 472.126Z" fill="url(#paint0_linear)"/>
<path opacity="0.83" d="M610.404 592.78C607.642 591.124 598.527 584.773 589.965 578.975C579.745 572.073 573.945 565.999 573.945 565.999C573.945 565.999 575.326 554.955 575.326 551.642C575.326 548.605 552.954 474.335 531.134 451.142C510.695 429.607 530.858 308.952 533.62 292.387L533.896 290.454C533.896 290.454 548.258 308.676 554.611 344.569C560.964 380.738 552.125 451.695 552.125 451.695C552.125 451.695 564.554 509.123 595.489 510.227C595.489 510.227 569.526 548.053 579.745 567.103C581.403 571.521 605.708 589.467 610.404 592.78Z" fill="url(#paint1_linear)"/>
<path d="M551.297 925.753C550.745 932.104 549.64 937.349 548.259 941.767C546.049 949.498 543.287 955.296 541.63 961.922C539.144 972.414 536.382 1013 536.382 1013H463.189C465.951 997.815 469.541 986.219 473.684 948.669C477.551 912.501 456.008 788.533 454.35 777.765C454.35 777.213 454.35 776.937 454.35 776.937C435.569 855.625 389.167 947.013 384.472 952.259C379.776 957.505 370.385 962.198 370.385 962.198C365.137 972.138 354.089 1013 354.089 1013H269.848C274.544 991.464 296.087 959.161 302.716 947.289C309.621 935.141 335.032 853.14 341.937 798.749C344.699 776.109 346.908 752.088 348.565 731.933C350.775 703.771 351.88 682.788 351.88 682.788C373.424 660.976 541.077 639.165 541.077 639.165L546.325 656.283C546.325 656.283 552.402 657.663 553.23 661.805C554.059 665.946 548.259 669.811 548.259 669.811C567.04 776.385 552.954 908.359 551.297 925.753Z" fill="url(#paint2_linear)"/>
<path opacity="0.62" d="M351.327 690.795C351.327 690.795 402.148 684.444 433.911 699.63C465.951 714.815 462.913 741.044 462.913 741.044L453.798 776.937L484.732 744.634L547.982 669.535C547.982 669.535 536.106 676.714 520.915 679.751C520.915 679.751 542.458 666.498 546.049 656.007L540.801 638.888L351.327 679.475V690.795Z" fill="url(#paint3_linear)"/>
<path d="M601.842 548.053C601.842 548.053 599.632 571.521 613.994 582.565C613.994 582.565 642.995 567.379 657.358 542.531C671.444 517.958 601.842 548.053 601.842 548.053Z" fill="url(#paint4_linear)"/>
<path d="M351.88 682.512L351.327 686.101C351.327 686.101 390.548 676.162 409.33 675.609C428.111 675.057 448.274 689.966 488.323 682.512C528.372 675.057 543.287 646.343 543.287 646.343L540.801 638.888L351.88 682.512Z" fill="url(#paint5_linear)"/>
<path opacity="0.62" d="M365.138 682.788C365.138 682.788 403.253 673.125 456.008 667.326C508.762 661.252 528.925 659.596 533.62 655.454C538.592 651.589 541.906 641.926 541.906 641.926L540.802 638.888L351.604 682.512L351.052 686.101L365.138 682.788Z" fill="url(#paint6_linear)"/>
<path d="M713.703 473.782C713.703 473.782 721.713 480.409 721.989 485.931C721.989 491.453 708.732 488.968 708.732 488.968L713.703 473.782Z" fill="url(#paint7_linear)"/>
<path d="M315.145 448.105L309.345 416.63C309.345 416.63 294.707 416.63 273.163 436.509C273.163 436.509 272.61 447.277 265.153 460.806C265.153 460.806 240.571 472.678 228.971 488.968C217.37 505.258 213.227 506.914 201.074 497.527C198.036 495.042 195.827 486.759 194.722 475.715C193.065 458.597 193.617 434.853 196.655 413.869C199.141 396.475 203.008 381.29 208.532 373.283C208.532 373.283 207.979 362.515 213.227 354.232C213.503 354.509 213.78 354.509 214.056 354.785C215.713 355.889 220.132 358.374 224.828 357.27C230.904 356.165 235.6 347.054 235.6 347.054C235.6 347.054 238.914 347.33 240.847 349.815C240.847 349.815 264.601 335.458 279.515 311.161C294.43 286.865 296.916 284.104 296.916 284.104C296.916 284.104 300.783 282.447 306.031 281.619C310.174 280.791 315.145 280.515 319.565 281.619C320.117 281.895 393.034 394.543 315.145 448.105Z" fill="url(#paint8_linear)"/>
<path d="M470.646 290.73C470.646 290.73 461.531 277.201 461.531 245.45L390.824 210.938C390.824 210.938 394.414 235.235 382.262 256.494C379.223 262.016 364.309 270.851 364.309 270.851C364.309 270.851 428.94 350.643 460.15 342.912C491.085 335.182 485.008 301.498 485.008 301.498C485.008 301.498 479.484 303.707 470.646 290.73Z" fill="url(#paint9_linear)"/>
<path d="M372.871 265.329C372.871 265.329 407.949 300.117 438.055 302.326C470.37 304.535 465.122 277.477 465.122 277.477C465.122 277.477 479.761 297.909 475.618 314.198C471.475 330.212 439.436 331.04 414.854 320.273C390.272 309.505 366.795 267.814 366.795 267.814L372.871 265.329Z" fill="url(#paint10_linear)"/>
<path opacity="0.83" d="M315.145 448.106L309.345 416.63C309.345 416.63 294.706 416.63 273.162 436.509C273.162 436.509 272.61 447.277 265.153 460.806C265.153 460.806 240.571 472.678 228.97 488.968C217.37 505.258 213.227 506.914 201.074 497.527C198.036 495.042 195.826 486.759 194.721 475.715L196.655 471.298V414.146C199.141 396.751 203.007 381.566 208.531 373.559C208.531 373.559 207.979 362.792 213.227 354.509C213.503 354.785 213.779 354.785 214.055 355.061C234.218 368.313 241.399 407.243 243.057 436.233C243.333 428.779 248.028 400.341 251.343 400.893C255.762 401.721 263.495 453.904 263.495 453.904C272.61 408.9 243.333 355.061 240.847 350.643C267.638 387.64 272.058 429.883 272.058 429.883L313.488 399.512C313.488 399.512 338.346 374.388 329.784 331.04C321.221 287.693 305.754 281.895 305.754 281.895C309.897 281.067 314.869 280.791 319.288 281.895C320.117 281.895 393.034 394.543 315.145 448.106Z" fill="url(#paint11_linear)"/>
<path d="M488.599 238.272L488.323 238.548C487.218 239.652 486.39 240.757 485.009 241.309C469.265 249.316 427.559 247.383 404.911 227.228C396.348 219.773 389.72 210.662 384.748 201.275C376.462 186.366 371.766 170.628 367.347 159.86C360.166 142.466 354.09 113.2 355.471 96.3579C356.852 80.6203 359.89 67.3677 381.434 49.4214C402.701 31.199 454.903 30.3707 468.161 48.317C481.418 66.5394 481.142 107.402 484.18 116.237C487.218 125.348 498.543 136.116 501.581 148.264C504.343 159.86 501.305 222.258 488.599 238.272Z" fill="url(#paint12_linear)"/>
<path d="M488.875 125.348C488.875 125.348 488.323 136.116 479.761 136.944C473.132 137.496 468.989 127.833 468.989 127.833C468.989 127.833 467.884 101.328 471.199 88.0749L474.237 77.5832C474.237 77.5832 465.122 67.9198 451.588 69.3003C438.055 70.4047 433.083 85.0378 433.083 85.0378C433.083 85.0378 445.236 119.55 443.302 136.392C443.302 136.392 434.188 145.227 418.72 144.123C401.044 143.018 391.929 132.25 391.929 132.25C391.929 132.25 382.262 143.57 380.329 153.234C378.119 164.83 381.986 200.999 381.986 200.999C381.986 200.999 369.833 161.517 366.518 150.197C363.204 138.601 357.128 87.5227 360.718 78.9637C364.309 70.1286 375.081 41.9667 420.378 36.1687C465.675 30.3706 473.961 45.8321 473.961 45.8321L478.656 68.1959V79.792C478.656 79.792 481.694 109.61 483.075 114.58C484.18 119.274 488.875 125.348 488.875 125.348Z" fill="url(#paint13_linear)"/>
<path d="M478.932 80.6203C478.932 80.6203 477.828 65.1589 468.989 49.9735C468.989 49.9735 459.322 60.1891 443.579 65.7111C443.579 65.7111 450.76 58.8086 454.35 53.8389C453.798 54.3911 443.855 61.8457 430.321 67.6437C430.321 67.6437 434.188 61.5696 434.188 59.0847C434.188 56.5999 424.245 45.0038 412.644 45.2799C401.044 45.556 379.224 53.0106 368.176 73.994C357.128 94.9773 368.176 96.91 374.252 102.432C374.252 102.432 371.214 128.385 372.043 150.197C372.319 156.547 372.871 162.897 373.976 167.591C374.252 168.419 374.252 169.247 374.528 169.8L358.785 155.443C358.785 155.443 358.785 145.779 352.708 131.974C352.156 130.318 351.327 128.661 350.499 127.005C350.223 126.452 349.67 125.624 349.394 125.072C345.527 118.169 334.203 104.917 335.86 91.6642C337.517 78.9637 360.442 68.1959 365.966 59.913C365.966 59.913 348.289 65.435 340.003 73.994C340.003 73.994 341.384 66.2633 347.737 61.5696C354.366 57.152 359.614 59.913 369.281 56.0477C378.671 52.1823 391.653 20.4311 406.844 8.55897C422.035 -3.5893 456.836 -1.10443 468.16 8.55897C471.199 11.0438 473.132 14.0809 474.789 17.118C474.789 17.118 474.789 17.118 474.789 17.3941C479.485 26.2292 479.485 35.8926 479.485 35.8926C479.485 35.8926 485.561 62.1218 478.932 80.6203Z" fill="url(#paint14_linear)"/>
<path d="M220.132 369.694L209.084 373.283C209.084 373.283 158.815 343.465 142.52 271.127C142.52 271.127 154.949 249.316 155.501 241.585C156.053 233.854 148.044 217.288 145.558 196.857C143.072 176.15 148.044 160.688 147.767 158.204C147.491 155.719 134.786 155.443 131.472 165.658C127.881 175.874 133.129 193.82 131.472 197.409C129.814 200.999 125.671 206.797 125.671 206.797C125.671 206.797 106.89 178.635 102.194 175.874C97.2227 173.113 89.7652 186.642 86.1746 187.47C82.584 188.022 69.8788 170.628 57.7259 160.412C45.2969 149.921 22.096 128.385 19.8864 128.937C17.4006 129.489 14.3624 133.631 14.9148 137.772C15.4672 141.914 25.4104 160.136 40.6015 167.591C40.6015 167.591 58.8307 180.015 68.4978 197.133C68.4978 197.133 64.3548 204.312 61.3166 204.588C58.5546 204.864 41.9825 193.82 29.0011 188.574C16.0196 183.328 3.86677 180.015 1.65717 180.844C-0.552439 181.672 0.276163 186.365 1.65717 189.403C3.03817 192.44 14.6386 201.827 27.6201 204.864C27.6201 204.864 46.6779 212.319 53.0305 220.325C53.0305 220.325 52.2019 228.056 50.2685 229.437C48.3351 230.817 32.5917 228.332 22.9246 226.952C13.2576 225.571 1.93337 227.228 0.828565 228.608C-0.552439 229.989 0.552365 234.406 8.28599 237.167C16.0196 239.928 25.6866 238.272 27.0676 238.548C28.7249 238.824 57.1735 247.659 60.488 249.868C63.8024 252.077 78.7172 274.164 89.489 281.067C100.261 287.969 115.728 284.38 115.728 284.38C115.728 284.38 132.853 380.738 141.415 419.115C149.977 457.493 182.016 497.251 209.913 498.907C209.913 498.907 235.047 489.244 236.428 437.614C237.533 385.984 220.132 369.694 220.132 369.694Z" fill="url(#paint15_linear)"/>
<path d="M522.572 476.819C522.572 476.819 512.077 531.487 525.61 590.571C525.61 590.571 533.896 596.37 535.001 603.548C535.001 603.548 535.001 603.548 535.001 603.824C536.106 611.003 534.449 617.905 534.449 617.905C534.449 617.905 538.04 621.494 541.354 626.74C541.906 627.845 542.182 628.949 542.459 630.053C543.011 635.575 539.973 642.202 539.973 642.202C539.973 642.202 533.62 658.491 468.161 664.289C402.701 670.087 351.88 682.512 351.88 682.512C351.88 682.512 348.013 669.535 355.195 659.596C355.195 659.596 344.147 649.656 344.699 646.067C345.251 642.478 369.281 600.511 362.928 571.245C356.576 541.978 333.098 518.234 320.117 461.082C320.117 461.082 311.279 458.045 311.002 453.903C310.45 449.762 314.869 442.86 314.869 442.86L316.526 445.897C316.526 445.897 346.356 428.779 338.346 356.717C330.336 284.38 321.774 280.238 306.859 282.171C306.859 282.171 318.736 271.127 321.498 271.403C324.26 271.679 325.365 276.649 325.365 276.649C325.365 276.649 334.756 280.514 345.804 276.649C356.852 272.784 364.033 265.605 364.033 265.605C364.033 265.605 430.321 321.653 459.322 318.34C492.466 314.474 468.989 278.03 468.989 278.03C468.989 278.03 489.704 282.171 501.029 284.656C512.077 287.141 516.496 284.656 516.496 284.656C516.496 284.656 523.125 274.716 531.963 281.343C540.802 287.969 551.573 324.138 547.983 382.67C544.116 441.203 522.572 476.819 522.572 476.819Z" fill="url(#paint16_linear)"/>
<path d="M409.329 123.967C409.329 123.967 407.672 129.213 408.501 134.183C409.329 139.153 426.73 143.846 435.016 136.392C443.302 129.213 409.329 123.967 409.329 123.967Z" fill="#E87A8D"/>
<path d="M759 369.694C737.456 427.674 678.073 550.814 678.073 550.814C599.908 565.723 526.715 553.298 526.715 553.298L522.572 546.672C549.64 464.395 608.471 356.993 608.471 356.993C680.283 353.128 756.514 364.724 756.514 364.724L759 369.694Z" fill="url(#paint17_linear)"/>
<path opacity="0.62" d="M689.674 456.664C689.674 456.664 686.359 495.594 695.474 513.817L731.104 435.957L714.255 439.823L716.465 447.553C716.465 447.829 702.379 447.277 689.674 456.664Z" fill="url(#paint18_linear)"/>
<path d="M728.618 435.957C728.618 435.957 734.418 440.375 735.523 444.24C736.628 448.382 738.285 458.321 726.685 461.634L721.437 463.015C721.437 463.015 725.304 464.671 725.856 467.432C726.685 469.917 722.265 475.715 715.084 477.096C708.179 478.476 696.303 475.715 692.988 472.678C689.398 469.641 691.883 465.223 697.131 463.843C697.131 463.843 689.398 462.186 689.674 456.664C689.95 451.419 707.627 445.621 726.408 447.277L728.618 435.957Z" fill="url(#paint19_linear)"/>
<path d="M470.646 129.213C470.646 129.213 473.408 133.631 479.761 132.527C486.113 131.146 485.561 120.378 484.18 116.513C483.075 112.648 470.646 125.624 470.646 129.213Z" fill="#E87A8D"/>
<path d="M742.704 409.452C742.704 409.452 752.095 418.287 752.095 424.085C752.095 430.159 738.285 437.614 714.532 440.651C714.532 440.651 712.322 435.957 714.532 430.987C716.741 426.018 728.618 419.115 738.561 417.459L742.704 409.452Z" fill="url(#paint20_linear)"/>
<path d="M715.36 480.685C715.36 480.685 699.065 479.028 700.446 493.938C700.446 493.938 709.56 495.318 716.189 493.385C722.818 491.453 721.989 486.483 721.437 484.55C720.884 482.618 720.332 481.237 715.36 480.685Z" fill="url(#paint21_linear)"/>
<path d="M391.376 113.2C391.376 113.2 392.757 104.641 401.043 96.3578C406.844 90.2837 418.444 83.9334 426.454 80.8964C426.454 80.8964 427.559 83.3812 427.559 88.351C427.559 88.351 428.94 83.6573 430.045 79.2398C430.045 79.2398 431.702 83.6573 431.426 92.2163C431.426 92.2163 424.521 94.7012 412.92 97.7383C398.281 101.88 391.376 113.2 391.376 113.2Z" fill="url(#paint22_linear)"/>
<path d="M468.713 123.968C468.713 123.968 468.713 101.88 475.065 100.775C480.313 99.671 483.075 112.095 483.075 112.095L468.713 123.968Z" fill="#77485E"/>
<path d="M408.501 130.318C408.501 130.318 408.225 114.856 420.93 109.334C433.635 103.812 438.055 121.759 438.055 121.759L408.501 130.318Z" fill="#77485E"/>
<path d="M439.159 130.318C438.883 133.631 434.464 139.429 425.073 139.429C416.787 139.429 408.225 135.288 408.225 130.318C408.225 128.661 408.777 126.729 409.33 125.072C410.987 120.93 414.301 117.065 418.444 114.58C421.206 112.924 424.245 112.095 427.559 112.371C438.055 113.2 439.712 127.005 439.159 130.318Z" fill="url(#paint23_linear)"/>
<path d="M484.18 119.274C484.18 126.452 481.142 131.974 475.618 131.698C473.408 131.698 472.027 130.87 470.922 129.766C470.094 128.937 469.541 127.557 469.265 125.9C468.989 125.072 468.989 124.52 468.713 123.691C468.713 123.691 469.265 116.789 471.198 111.267C471.751 110.163 472.027 109.058 472.579 107.954C473.408 106.297 474.513 104.917 475.894 104.365C480.037 103.536 484.18 112.095 484.18 119.274Z" fill="url(#paint24_linear)"/>
<path d="M85.8987 187.194C85.8987 187.194 78.1651 197.685 68.498 214.803C60.7644 228.608 60.212 249.592 60.212 249.592C60.212 249.592 49.164 244.622 43.0876 243.241C37.0111 241.861 57.7262 210.11 57.7262 210.11L81.2033 184.157L85.8987 187.194Z" fill="url(#paint25_linear)"/>
<path d="M431.426 125.348C431.426 131.422 426.454 136.116 420.654 136.116C414.577 136.116 409.882 131.146 409.882 125.348V125.072C411.539 120.931 414.853 117.065 418.996 114.58C419.549 114.58 420.101 114.58 420.654 114.58C426.454 114.304 431.426 119.274 431.426 125.348Z" fill="url(#paint26_radial)"/>
<path d="M428.111 125.348C428.111 129.489 424.797 132.803 420.654 132.803C416.511 132.803 413.197 129.489 413.197 125.348C413.197 121.207 416.511 117.893 420.654 117.893C424.797 117.617 428.111 120.93 428.111 125.348Z" fill="url(#paint27_linear)"/>
<path d="M479.484 119.274C479.484 125.348 476.17 130.042 472.027 130.042C471.751 130.042 471.198 130.042 470.922 130.042C470.094 129.213 469.541 127.833 469.265 126.176C468.989 125.348 468.989 124.796 468.713 123.967C468.713 123.967 469.265 117.065 471.198 111.543C471.751 110.439 472.027 109.334 472.579 108.23C476.446 108.782 479.484 113.476 479.484 119.274Z" fill="url(#paint28_radial)"/>
<path d="M27.6201 204.864C27.6201 204.864 35.0775 207.349 38.1158 206.797C41.4302 205.968 43.0874 198.79 43.0874 197.962C43.0874 197.133 33.6965 190.783 33.6965 190.783L45.5732 196.857L57.1736 183.052C57.1736 183.052 50.5448 174.493 41.4302 168.419C41.4302 168.419 50.821 174.217 53.8592 172.008C56.6212 169.8 58.0022 165.934 58.0022 164.002C58.0022 162.069 48.3352 152.129 48.3352 152.129C48.3352 152.129 62.9738 164.002 64.0786 166.21C65.1834 168.143 57.1736 197.133 57.1736 197.133L41.4302 211.49C41.4302 211.49 32.0393 207.073 27.6201 204.864Z" fill="url(#paint29_linear)"/>
<path d="M476.446 119.274C476.446 123.415 474.237 126.728 471.198 126.728C470.37 126.728 469.817 126.452 469.265 126.176C468.989 125.348 468.989 124.796 468.713 123.968C468.713 123.968 469.265 117.065 471.198 111.543H471.475C474.237 111.819 476.446 115.132 476.446 119.274Z" fill="url(#paint30_linear)"/>
<path d="M471.475 80.6202C471.475 80.6202 465.675 111.543 468.989 127.557C468.989 127.557 467.056 103.812 474.237 86.6944L471.475 80.6202Z" fill="#E87A8D"/>
<path d="M470.37 92.4925C470.37 92.4925 471.199 82.0008 472.58 73.1657L473.685 76.755L476.723 69.0243C476.723 69.0243 484.456 73.7179 479.761 83.9335C479.761 84.2096 474.789 83.3813 470.37 92.4925Z" fill="url(#paint31_linear)"/>
<path d="M439.988 168.419C439.988 168.419 440.54 175.598 453.798 179.463C466.779 183.605 478.104 181.12 482.247 176.426C482.247 176.426 478.104 181.396 470.37 182.776C462.636 184.157 451.036 182.224 445.512 178.083C439.435 173.389 438.331 169.247 438.331 169.247L439.988 168.419Z" fill="#E87A8D"/>
<path d="M434.188 171.456C434.188 171.456 440.54 168.143 446.34 167.315C446.34 167.315 440.264 166.21 437.502 166.763C434.74 167.315 434.188 171.456 434.188 171.456Z" fill="#E37E7F"/>
<path d="M447.722 152.129C447.722 152.129 456.836 152.129 465.122 152.682C473.408 153.234 481.142 152.129 484.18 149.921C484.18 149.921 484.733 159.584 474.237 165.658C474.237 165.658 470.094 167.315 465.675 165.658C465.675 165.658 461.532 161.241 454.074 159.86C454.351 159.584 447.169 157.651 447.722 152.129Z" fill="url(#paint32_linear)"/>
<path d="M464.294 136.116C453.523 137.496 447.722 152.129 447.722 152.129L468.161 155.719C477.276 155.167 484.457 149.921 484.457 149.921C484.457 149.921 475.066 134.459 464.294 136.116Z" fill="url(#paint33_linear)"/>
<path d="M453.522 159.584C453.522 159.584 454.627 158.756 457.941 158.756C461.256 159.032 464.57 164.278 464.57 164.278C464.57 164.278 460.98 161.241 453.522 159.584Z" fill="#9F4A8B"/>
<path d="M80.0984 132.803L46.1257 195.753C46.1257 195.753 37.2873 232.198 21.2676 246.831C21.2676 246.831 19.3342 253.733 24.0296 264.501L95.5657 131.698C95.2895 131.422 86.7272 127.833 80.0984 132.803Z" fill="url(#paint34_linear)"/>
<path d="M102.747 144.951L68.7742 208.177C68.7742 208.177 43.0875 235.511 40.0493 257.046C40.0493 257.046 35.3539 262.568 23.7534 264.501L95.2894 131.698C95.2894 131.422 103.023 136.668 102.747 144.951Z" fill="url(#paint35_linear)"/>
<path d="M22.6486 260.912L27.6202 263.673C27.6202 263.673 23.4772 268.919 22.0962 268.09C20.7152 267.262 22.6486 260.912 22.6486 260.912Z" fill="url(#paint36_linear)"/>
<path d="M20.9915 246.831L40.0493 257.046C40.0493 257.046 42.2589 238.548 68.7742 208.177L46.1257 196.029C46.1257 195.753 40.8779 224.191 20.9915 246.831Z" fill="url(#paint37_linear)"/>
<path d="M107.718 181.672C107.718 181.672 96.6704 167.867 86.7271 152.406C77.0601 136.944 59.3832 112.372 53.3068 114.856C47.2304 117.341 52.4782 133.079 58.0022 143.018C63.5263 152.958 70.4313 156.547 73.7457 161.793C76.7839 167.039 86.1747 187.194 86.1747 187.194C86.1747 187.194 100.261 190.783 107.718 181.672Z" fill="url(#paint38_linear)"/>
<path d="M628.357 556.888C628.357 556.888 623.938 578.147 625.871 579.252C627.805 580.632 638.024 556.059 638.024 556.059L628.357 556.888Z" fill="url(#paint39_linear)"/>
<path d="M564.002 1013L562.621 1012.72C562.621 1011.9 570.907 939.834 659.015 913.605C707.074 899.248 739.113 865.84 746.847 822.217C754.304 778.87 736.075 733.866 700.169 707.361C630.014 655.73 625.042 580.08 625.042 579.252H626.424C626.424 580.08 631.395 654.902 700.998 706.256C737.18 733.038 755.685 778.594 747.952 822.493C740.218 866.669 707.903 900.629 659.291 914.986C572.288 940.939 564.002 1012.45 564.002 1013Z" fill="url(#paint40_linear)"/>
<path d="M372.871 164.554C372.871 164.554 355.47 147.436 345.251 157.099C333.098 168.695 341.66 194.096 355.194 205.14C367.071 214.803 379.776 212.042 382.262 200.722C382.262 200.722 385.852 175.045 372.871 164.554Z" fill="url(#paint41_linear)"/>
<path d="M372.319 180.567C372.319 180.567 362.099 168.695 353.813 171.732C345.527 174.769 347.737 188.298 347.737 188.298C347.737 188.298 347.737 178.635 353.261 176.978C358.785 175.598 362.099 182.5 362.099 182.5C362.099 182.5 359.061 182.776 359.337 191.059C359.337 199.342 369.004 207.073 372.871 201.275C376.738 195.477 372.319 180.567 372.319 180.567Z" fill="#E87A8D"/>
<path d="M433.083 125.9C433.083 127.005 432.254 127.833 431.149 127.833C430.044 127.833 429.216 127.005 429.216 125.9C429.216 124.796 430.044 123.967 431.149 123.967C432.254 123.967 433.083 124.796 433.083 125.9Z" fill="white"/>
<path d="M481.971 119.55C481.971 120.654 481.142 121.483 480.037 121.483C478.932 121.483 478.104 120.654 478.104 119.55C478.104 118.446 478.932 117.617 480.037 117.617C481.142 117.617 481.971 118.446 481.971 119.55Z" fill="white"/>
<path d="M390.548 229.437C390.548 229.437 417.616 282.171 465.122 277.478C465.122 277.478 460.979 258.979 461.255 245.726C461.255 245.726 439.159 245.174 422.863 238.272C404.358 230.541 390.548 211.214 390.548 211.214V229.437Z" fill="url(#paint42_linear)"/>
<path d="M107.718 258.427C95.0129 262.016 70.9834 250.696 69.05 239.928C66.8404 229.16 82.8601 199.618 97.2225 201.551C111.585 203.483 118.49 213.975 115.452 223.638C112.137 234.406 114.899 256.218 107.718 258.427Z" fill="url(#paint43_linear)"/>
<path d="M125.395 206.521C125.395 206.521 111.033 230.265 112.414 249.868C112.414 249.868 108.547 221.43 122.081 201.275L125.395 206.521Z" fill="url(#paint44_linear)"/>
<path d="M115.728 284.38C115.728 284.38 128.986 281.895 134.51 277.754L118.766 301.498C118.766 301.774 116.557 292.111 115.728 284.38Z" fill="url(#paint45_linear)"/>
<path d="M209.084 373.283C209.084 373.283 218.475 384.327 224.551 427.398C230.628 470.745 213.779 496.422 213.779 496.422C213.779 496.422 231.18 493.109 236.152 442.584C241.399 392.058 220.132 369.418 220.132 369.418L209.084 373.283Z" fill="url(#paint46_linear)"/>
<path opacity="0.62" d="M539.697 642.202C539.697 642.202 533.344 658.491 467.884 664.289C402.425 670.088 351.604 682.512 351.604 682.512C351.604 682.512 347.737 669.535 354.918 659.596C354.918 659.596 343.87 649.656 344.423 646.067C344.975 642.478 369.004 600.511 362.652 571.245C356.299 541.978 332.822 518.234 319.841 461.082C319.841 461.082 311.002 458.045 310.726 453.903C310.174 449.762 314.593 442.86 314.593 442.86L316.25 445.897C316.25 445.897 346.08 428.779 338.07 356.717C330.06 284.38 321.498 280.238 306.583 282.171C306.583 282.171 318.46 271.127 321.222 271.403C321.222 271.403 338.899 284.656 351.051 356.441C361.271 416.354 378.395 453.903 378.395 453.903C378.395 453.903 411.816 466.328 451.312 465.223C490.533 463.843 486.666 458.873 521.191 461.358C521.191 461.358 446.617 469.365 418.444 474.335C390.272 479.304 364.309 490.072 364.309 490.072C364.309 490.072 388.338 545.844 384.472 582.841C381.71 609.346 372.043 631.71 372.043 631.71C372.043 631.71 377.014 633.643 425.073 631.71C473.132 629.501 535.277 603.824 535.277 603.824C535.277 603.824 535.277 603.824 535.277 604.1C535.554 605.205 536.658 612.659 534.725 618.181C534.725 618.181 486.666 628.673 442.474 636.956C398.282 645.239 372.043 659.044 372.043 659.044C372.043 659.044 381.157 664.013 450.207 656.559C519.258 649.104 539.144 644.41 542.735 630.33C542.735 635.299 539.697 642.202 539.697 642.202Z" fill="url(#paint47_linear)"/>
<path opacity="0.62" d="M355.194 476.82C355.194 476.82 363.48 465.776 382.262 462.739C401.044 459.702 431.15 466.88 449.655 466.88C449.655 466.88 398.005 476.543 378.395 479.304C358.785 482.342 355.194 476.82 355.194 476.82Z" fill="url(#paint48_linear)"/>
<path opacity="0.62" d="M516.219 284.38C516.219 284.38 535.001 317.235 538.591 387.916C538.591 387.916 541.63 332.145 522.572 279.41C522.572 279.41 519.534 280.238 516.219 284.38Z" fill="url(#paint49_linear)"/>
<path opacity="0.62" d="M513.458 313.922C513.458 313.922 507.657 355.337 462.913 414.422C462.913 414.422 492.19 390.677 502.41 367.761C513.458 343.465 513.458 313.922 513.458 313.922Z" fill="url(#paint50_linear)"/>
<path opacity="0.62" d="M402.425 579.528C402.425 579.528 415.406 600.511 443.579 605.757C471.751 611.003 509.591 601.339 509.591 601.339C509.591 601.339 473.408 607.69 446.064 598.578C418.72 589.467 402.425 579.528 402.425 579.528Z" fill="url(#paint51_linear)"/>
<path opacity="0.5" d="M309.621 416.63C309.621 416.63 330.889 407.795 338.899 392.058C338.899 392.058 337.518 431.264 316.25 445.621C316.25 445.621 310.726 429.883 309.621 416.63Z" fill="url(#paint52_linear)"/>
<path opacity="0.62" d="M454.074 776.937L465.122 736.075C465.122 736.075 484.456 707.913 515.943 695.212L485.009 742.701L454.074 776.937Z" fill="url(#paint53_linear)"/>
<path opacity="0.62" d="M384.195 952.535C379.5 957.781 370.109 962.474 370.109 962.474C364.861 972.414 353.813 1013.28 353.813 1013.28H269.848C274.544 991.74 296.087 959.437 302.716 947.565C309.621 935.417 335.032 853.416 341.937 799.025C344.699 776.385 346.908 752.364 348.565 732.209C348.565 733.866 351.327 749.603 343.318 826.358C335.032 905.046 329.231 939.282 329.784 946.184C330.612 952.811 364.861 969.377 384.195 952.535Z" fill="url(#paint54_linear)"/>
<path opacity="0.62" d="M548.259 941.767C546.049 949.498 543.287 955.296 541.63 961.922C539.144 972.414 536.382 1013 536.382 1013H463.189C465.951 997.815 469.541 986.219 473.684 948.669C477.551 912.501 456.008 788.533 454.35 777.765C456.836 789.085 483.904 918.023 489.98 928.79C503.238 952.535 539.144 960.541 548.259 941.767Z" fill="url(#paint55_linear)"/>
<path opacity="0.62" d="M330.889 947.841C330.889 947.841 336.689 973.242 364.861 977.107L370.385 962.474C370.385 962.474 380.881 956.124 382.814 954.191C382.814 954.191 375.081 960.265 356.852 957.228C338.622 954.467 330.889 947.841 330.889 947.841Z" fill="url(#paint56_linear)"/>
<path opacity="0.62" d="M503.79 945.356C503.79 945.356 516.495 959.713 541.906 961.646C541.906 961.646 546.601 949.222 548.535 941.491C548.535 941.491 538.039 951.43 526.162 951.43C513.457 951.706 503.79 945.356 503.79 945.356Z" fill="url(#paint57_linear)"/>
<path d="M759 369.694C653.215 356.165 610.404 362.239 610.404 362.239C572.564 426.846 526.715 553.022 526.715 553.022L522.572 546.396C549.64 464.119 608.471 356.717 608.471 356.717C680.283 352.852 756.514 364.448 756.514 364.448L759 369.694Z" fill="url(#paint58_linear)"/>
<path d="M721.437 463.015C721.437 463.015 707.626 464.671 697.131 463.843C697.131 463.843 711.493 466.604 723.094 464.119L721.437 463.015Z" fill="url(#paint59_linear)"/>
<path opacity="0.83" d="M364.033 289.902C364.033 290.178 364.033 290.454 364.309 290.454C364.309 290.178 364.033 289.902 364.033 289.902Z" fill="url(#paint60_linear)"/>
<path d="M371.767 631.434C371.767 631.434 397.177 632.262 449.931 622.875C505.724 612.935 525.611 590.572 525.611 590.572C525.611 590.572 533.62 595.817 535.001 603.548C535.001 603.548 487.495 623.427 449.931 628.397C412.092 633.367 379.5 633.643 371.767 631.434Z" fill="url(#paint61_linear)"/>
<path d="M426.178 658.215C426.178 658.215 457.941 653.246 493.019 644.41C528.372 635.851 541.078 626.464 541.078 626.464C541.078 626.464 546.878 637.784 523.677 644.41C500.752 651.037 426.178 658.215 426.178 658.215Z" fill="url(#paint62_linear)"/>
<path opacity="0.5" d="M569.526 445.897L683.321 539.494L678.073 550.537C678.073 550.537 606.261 565.447 526.715 553.022L522.572 546.396C522.572 546.396 548.259 477.648 565.383 442.031L569.526 445.897Z" fill="url(#paint63_linear)"/>
<path opacity="0.62" d="M351.328 760.371C351.328 760.371 344.146 816.695 356.576 877.436L351.328 760.371Z" fill="url(#paint64_linear)"/>
<path opacity="0.62" d="M468.713 773.624C468.713 773.624 488.047 850.379 503.79 882.958C503.79 882.958 472.856 840.715 461.532 812.001L454.35 777.765L463.189 741.044L468.713 773.624Z" fill="url(#paint65_linear)"/>
<path d="M468.713 277.754L465.122 277.477C465.122 277.477 472.58 289.626 474.237 299.565C475.894 309.505 469.265 315.855 459.046 318.064C459.046 318.064 475.618 317.235 477.551 305.639C479.485 294.043 468.713 277.754 468.713 277.754Z" fill="url(#paint66_linear)"/>
<path d="M351.604 71.7852C351.604 71.7852 333.927 82.0008 333.651 95.2534C333.098 108.506 344.423 117.065 344.423 117.065L346.08 109.887C346.08 109.887 354.642 111.267 362.928 108.23C370.938 105.193 374.805 101.88 374.805 101.88C374.805 101.88 364.585 95.8056 364.309 85.8661C364.033 75.6505 381.986 57.7042 381.986 57.7042L365.966 59.6369C365.414 59.6369 355.194 67.6437 351.604 71.7852Z" fill="url(#paint67_linear)"/>
<path opacity="0.84" d="M434.188 58.8087C434.188 58.8087 450.207 41.4146 453.522 29.2663C456.836 17.118 443.855 11.0439 443.855 11.0439C443.855 11.0439 448.55 16.0136 447.445 27.8858C446.617 39.4819 434.188 58.8087 434.188 58.8087Z" fill="url(#paint68_linear)"/>
<path opacity="0.84" d="M384.471 55.4955C384.471 55.4955 400.767 26.7814 416.235 26.5053C431.702 26.2292 436.121 54.3911 434.464 58.8086C434.464 58.8086 433.911 47.4886 414.854 46.9364C395.796 46.6603 384.471 55.4955 384.471 55.4955Z" fill="url(#paint69_linear)"/>
<path opacity="0.84" d="M468.989 49.9735C468.989 49.9735 477.275 39.2058 478.932 35.3404C478.932 35.3404 481.142 44.7277 481.418 51.6301C481.418 51.6301 482.523 54.6672 472.303 56.3238L468.989 49.9735Z" fill="url(#paint70_linear)"/>
<path opacity="0.62" d="M358.785 155.167L386.681 131.974C386.681 131.974 387.786 154.062 407.12 157.927C426.454 161.793 440.817 155.443 446.341 143.294C451.588 131.146 452.693 114.028 452.693 114.028C452.693 114.028 454.074 112.095 460.151 112.095C466.227 112.095 468.989 114.58 468.989 114.58V104.089C468.989 104.089 456.284 102.156 450.484 106.573C450.484 106.573 452.417 140.533 440.264 148.816C428.111 157.099 417.892 158.204 404.911 151.853C394.967 146.884 390.824 130.594 393.863 121.207L384.472 123.139L357.68 154.614L358.785 155.167Z" fill="url(#paint71_linear)"/>
<path d="M448.274 104.365C443.027 97.1861 406.016 104.088 395.796 115.408C385.577 126.728 398.834 149.368 415.13 152.682C434.188 156.547 443.303 150.197 448.551 142.19C454.075 133.631 452.97 110.715 448.274 104.365ZM447.998 138.325C443.579 150.197 427.836 154.338 414.578 150.749C406.292 148.54 392.206 135.84 395.52 121.483C398.558 107.126 441.369 100.775 446.341 106.297C450.484 110.715 452.417 126.452 447.998 138.325Z" fill="url(#paint72_linear)"/>
<path d="M449.103 104.365C443.855 97.1861 406.844 104.088 396.624 115.408C386.405 126.728 399.663 149.368 415.958 152.682C435.016 156.547 444.131 150.197 449.379 142.19C455.179 133.631 454.074 110.715 449.103 104.365ZM449.103 138.325C444.683 150.197 428.94 154.338 415.682 150.749C407.396 148.54 393.31 135.84 396.624 121.483C399.663 107.126 442.474 100.775 447.445 106.297C451.312 110.439 453.246 126.176 449.103 138.325Z" fill="url(#paint73_linear)"/>
<path d="M494.676 100.775C491.638 95.5295 473.685 97.4622 469.265 100.775C466.503 102.984 467.884 127.833 475.894 138.601C480.866 145.227 488.047 143.57 490.257 142.19C496.057 137.772 497.99 105.745 494.676 100.775ZM492.19 135.011C489.704 141.914 483.628 143.294 477.551 137.772C472.304 132.803 467.332 108.506 470.923 103.26C473.961 98.8427 488.599 97.4622 492.742 102.156C496.885 106.573 494.952 127.005 492.19 135.011Z" fill="url(#paint74_linear)"/>
<path d="M495.781 100.775C492.743 95.5295 474.79 97.4622 470.371 100.775C467.609 102.984 468.99 127.833 476.999 138.601C481.971 145.227 489.152 143.57 491.362 142.19C497.162 137.772 499.095 105.745 495.781 100.775ZM493.295 135.011C490.809 141.914 484.733 143.294 478.657 137.772C473.409 132.803 468.437 108.506 472.028 103.26C475.066 98.8427 489.705 97.4622 493.848 102.156C497.991 106.573 496.057 127.005 493.295 135.011Z" fill="url(#paint75_linear)"/>
<path d="M451.037 107.954C451.037 107.954 459.046 101.88 468.99 106.297C468.99 106.297 468.713 104.088 469.542 102.708C469.542 102.708 462.361 100.499 448.827 103.812C448.551 103.812 450.484 106.573 451.037 107.954Z" fill="url(#paint76_linear)"/>
<path d="M393.863 118.446L384.472 121.483L353.813 154.062C353.813 154.062 354.918 153.786 357.68 154.89L385.024 125.9C385.024 125.9 389.443 123.415 392.758 124.244C392.758 123.967 392.482 120.378 393.863 118.446Z" fill="url(#paint77_linear)"/>
<path d="M380.605 125.348L381.157 130.042L374.805 136.668L374.529 131.974L380.605 125.348Z" fill="url(#paint78_linear)"/>
<path d="M451.036 103.26L452.693 104.917C452.693 104.917 457.389 103.812 462.084 103.812C466.503 103.812 467.884 104.365 467.884 104.365L468.989 102.432C468.713 102.432 460.703 100.775 451.036 103.26Z" fill="#D7E2FF"/>
<path d="M473.132 99.3948L474.237 100.775C474.237 100.775 480.59 96.9099 491.085 99.3948L490.809 98.0143C490.533 98.0143 481.695 96.3577 473.132 99.3948Z" fill="#D7E2FF"/>
<path d="M433.083 103.26L433.635 101.88C433.635 101.88 445.512 100.775 448.55 103.812C451.865 107.126 452.693 114.028 452.693 114.028L451.312 114.304C451.312 114.304 450.207 106.849 446.617 104.641C442.75 102.432 433.083 103.26 433.083 103.26Z" fill="#D7E2FF"/>
<path d="M407.12 146.055C407.12 146.055 413.197 153.786 427.559 152.682C441.645 151.577 447.722 141.086 447.722 141.086C447.722 141.086 441.093 151.577 427.283 151.853C413.473 152.129 407.12 146.055 407.12 146.055Z" fill="#D7D9FF"/>
<path d="M478.656 137.772C478.656 137.772 482.523 142.19 486.942 141.362C491.361 140.809 492.742 135.84 492.742 135.84C492.742 135.84 490.257 140.809 485.561 140.533C481.142 140.533 478.656 137.772 478.656 137.772Z" fill="#D7D9FF"/>
<path d="M422.311 151.853C422.311 151.853 423.416 152.682 426.454 152.682C429.492 152.682 432.807 151.025 432.807 151.025C432.807 151.025 426.454 152.129 422.311 151.853Z" fill="#D7D9FF"/>
<path d="M481.97 140.257C481.97 140.257 485.285 141.362 488.047 140.257C490.809 139.153 491.361 138.048 491.361 138.048C491.361 138.048 491.361 141.085 488.047 141.638C484.732 141.914 481.97 140.257 481.97 140.257Z" fill="#D7D9FF"/>
<path d="M411.263 149.645C411.263 149.645 410.711 138.325 424.245 130.318C437.778 122.311 449.931 129.213 449.931 129.213C449.931 129.213 450.484 139.153 443.026 145.779C436.121 152.405 420.378 152.958 411.263 149.645Z" fill="#D7D9FF"/>
<path d="M475.894 133.355C475.894 133.355 485.009 121.759 495.228 118.169C495.228 118.169 494.952 133.631 491.362 137.772C487.771 141.914 481.142 143.57 475.894 133.355Z" fill="#D7D9FF"/>
<path d="M396.625 124.796C396.625 124.796 398.006 133.907 403.254 138.877L408.501 137.496C408.501 137.496 404.358 121.759 404.358 113.752C404.358 114.028 397.73 117.893 396.625 124.796Z" fill="url(#paint79_linear)"/>
<path d="M488.323 238.548C487.218 239.652 486.39 240.757 485.009 241.309C469.265 249.316 427.559 247.383 404.91 227.228C396.348 219.773 389.719 210.662 384.748 201.275C385.853 202.655 397.453 222.534 424.797 233.302C453.522 245.174 486.39 241.585 488.323 238.548Z" fill="url(#paint80_linear)"/>
<defs>
<linearGradient id="paint0_linear" x1="573.759" y1="593.212" x2="573.759" y2="290.83" gradientUnits="userSpaceOnUse">
<stop stop-color="#744FD8"/>
<stop offset="1" stop-color="#3996F7"/>
</linearGradient>
<linearGradient id="paint1_linear" x1="566.053" y1="592.687" x2="566.053" y2="290.83" gradientUnits="userSpaceOnUse">
<stop stop-color="#9D68C2"/>
<stop offset="1" stop-color="#CCEDFF"/>
</linearGradient>
<linearGradient id="paint2_linear" x1="413.815" y1="1013.02" x2="413.815" y2="638.878" gradientUnits="userSpaceOnUse">
<stop stop-color="#1C257B"/>
<stop offset="1" stop-color="#482C83"/>
</linearGradient>
<linearGradient id="paint3_linear" x1="449.846" y1="776.998" x2="449.846" y2="638.868" gradientUnits="userSpaceOnUse">
<stop stop-color="#8B8BE0"/>
<stop offset="1" stop-color="#A177B7"/>
</linearGradient>
<linearGradient id="paint4_linear" x1="630.377" y1="582.567" x2="630.377" y2="532.876" gradientUnits="userSpaceOnUse">
<stop offset="0.0159875" stop-color="#FFC2A9"/>
<stop offset="1" stop-color="#FF9595"/>
</linearGradient>
<linearGradient id="paint5_linear" x1="447.402" y1="686.115" x2="447.402" y2="638.878" gradientUnits="userSpaceOnUse">
<stop stop-color="#D1C8F8"/>
<stop offset="1" stop-color="#EEE5F9"/>
</linearGradient>
<linearGradient id="paint6_linear" x1="446.701" y1="686.115" x2="446.701" y2="638.878" gradientUnits="userSpaceOnUse">
<stop stop-color="#8B8BE0"/>
<stop offset="1" stop-color="#A177B7"/>
</linearGradient>
<linearGradient id="paint7_linear" x1="715.134" y1="489.707" x2="715.134" y2="473.887" gradientUnits="userSpaceOnUse">
<stop offset="0.0159875" stop-color="#FFA58B"/>
<stop offset="1" stop-color="#FF898E"/>
</linearGradient>
<linearGradient id="paint8_linear" x1="272.683" y1="503.169" x2="272.683" y2="281.1" gradientUnits="userSpaceOnUse">
<stop stop-color="#744FD8"/>
<stop offset="1" stop-color="#3996F7"/>
</linearGradient>
<linearGradient id="paint9_linear" x1="424.816" y1="343.644" x2="424.816" y2="211.17" gradientUnits="userSpaceOnUse">
<stop offset="0.0159875" stop-color="#FFA58B"/>
<stop offset="1" stop-color="#FF898E"/>
</linearGradient>
<linearGradient id="paint10_linear" x1="421.578" y1="327.363" x2="421.578" y2="265.291" gradientUnits="userSpaceOnUse">
<stop stop-color="#D1C8F8"/>
<stop offset="1" stop-color="#EEE5F9"/>
</linearGradient>
<linearGradient id="paint11_linear" x1="273.142" y1="503.169" x2="273.142" y2="281.1" gradientUnits="userSpaceOnUse">
<stop stop-color="#9D68C2"/>
<stop offset="1" stop-color="#CCEDFF"/>
</linearGradient>
<linearGradient id="paint12_linear" x1="428.855" y1="245.683" x2="428.855" y2="35.3534" gradientUnits="userSpaceOnUse">
<stop offset="0.0159875" stop-color="#FFC2A9"/>
<stop offset="1" stop-color="#FF9595"/>
</linearGradient>
<linearGradient id="paint13_linear" x1="424.288" y1="200.682" x2="424.288" y2="34.495" gradientUnits="userSpaceOnUse">
<stop offset="0.0159875" stop-color="#FFA58B"/>
<stop offset="1" stop-color="#FF898E"/>
</linearGradient>
<linearGradient id="paint14_linear" x1="422.582" y1="161.945" x2="397.763" y2="5.18963" gradientUnits="userSpaceOnUse">
<stop stop-color="#D49092"/>
<stop offset="0.1274" stop-color="#D18E92"/>
<stop offset="0.2036" stop-color="#C98991"/>
<stop offset="0.2664" stop-color="#BB7F90"/>
<stop offset="0.3218" stop-color="#A7718F"/>
<stop offset="0.3725" stop-color="#8C5F8D"/>
<stop offset="0.4196" stop-color="#6C498A"/>
<stop offset="0.4631" stop-color="#472F88"/>
<stop offset="0.4721" stop-color="#3E2987"/>
<stop offset="0.6068" stop-color="#352278"/>
<stop offset="0.8455" stop-color="#291762"/>
<stop offset="1" stop-color="#24135A"/>
</linearGradient>
<linearGradient id="paint15_linear" x1="118.066" y1="499.041" x2="118.066" y2="129.004" gradientUnits="userSpaceOnUse">
<stop offset="0.0159875" stop-color="#FFC2A9"/>
<stop offset="1" stop-color="#FF9595"/>
</linearGradient>
<linearGradient id="paint16_linear" x1="427.382" y1="682.474" x2="427.382" y2="265.291" gradientUnits="userSpaceOnUse">
<stop stop-color="#744FD8"/>
<stop offset="1" stop-color="#3996F7"/>
</linearGradient>
<linearGradient id="paint17_linear" x1="640.757" y1="558.022" x2="640.757" y2="355.977" gradientUnits="userSpaceOnUse">
<stop stop-color="#1C257B"/>
<stop offset="1" stop-color="#482C83"/>
</linearGradient>
<linearGradient id="paint18_linear" x1="710.201" y1="513.91" x2="710.201" y2="436.091" gradientUnits="userSpaceOnUse">
<stop stop-color="#8B8BE0"/>
<stop offset="1" stop-color="#A177B7"/>
</linearGradient>
<linearGradient id="paint19_linear" x1="713.041" y1="477.438" x2="713.041" y2="436.091" gradientUnits="userSpaceOnUse">
<stop offset="0.0159875" stop-color="#FFC2A9"/>
<stop offset="1" stop-color="#FF9595"/>
</linearGradient>
<linearGradient id="paint20_linear" x1="732.894" y1="440.886" x2="732.894" y2="409.566" gradientUnits="userSpaceOnUse">
<stop offset="0.0159875" stop-color="#FFC2A9"/>
<stop offset="1" stop-color="#FF9595"/>
</linearGradient>
<linearGradient id="paint21_linear" x1="711.184" y1="494.172" x2="711.184" y2="480.509" gradientUnits="userSpaceOnUse">
<stop offset="0.0159875" stop-color="#FFC2A9"/>
<stop offset="1" stop-color="#FF9595"/>
</linearGradient>
<linearGradient id="paint22_linear" x1="411.393" y1="113.319" x2="411.393" y2="79.4024" gradientUnits="userSpaceOnUse">
<stop stop-color="#1C257B"/>
<stop offset="1" stop-color="#482C83"/>
</linearGradient>
<linearGradient id="paint23_linear" x1="423.863" y1="139.308" x2="423.863" y2="112.209" gradientUnits="userSpaceOnUse">
<stop stop-color="#D0C7F8"/>
<stop offset="1" stop-color="white"/>
</linearGradient>
<linearGradient id="paint24_linear" x1="476.558" y1="131.883" x2="476.558" y2="104.782" gradientUnits="userSpaceOnUse">
<stop stop-color="#D0C7F8"/>
<stop offset="1" stop-color="white"/>
</linearGradient>
<linearGradient id="paint25_linear" x1="42.2827" y1="217.17" x2="86.0318" y2="217.17" gradientUnits="userSpaceOnUse">
<stop stop-color="#CF6074"/>
<stop offset="1" stop-color="#FF817F"/>
</linearGradient>
<radialGradient id="paint26_radial" cx="0" cy="0" r="1" gradientUnits="userSpaceOnUse" gradientTransform="translate(420.826 129.626) scale(10.6669 10.6629)">
<stop stop-color="#CF95FF"/>
<stop offset="1" stop-color="#8161FF"/>
</radialGradient>
<linearGradient id="paint27_linear" x1="420.49" y1="132.765" x2="420.49" y2="117.675" gradientUnits="userSpaceOnUse">
<stop stop-color="#8642A0"/>
<stop offset="1" stop-color="#4E37B7"/>
</linearGradient>
<radialGradient id="paint28_radial" cx="0" cy="0" r="1" gradientUnits="userSpaceOnUse" gradientTransform="translate(474.375 123.725) scale(7.15278 7.15008)">
<stop stop-color="#CF95FF"/>
<stop offset="1" stop-color="#8161FF"/>
</radialGradient>
<linearGradient id="paint29_linear" x1="27.6806" y1="181.897" x2="64.2789" y2="181.897" gradientUnits="userSpaceOnUse">
<stop stop-color="#CF6074"/>
<stop offset="1" stop-color="#FF817F"/>
</linearGradient>
<linearGradient id="paint30_linear" x1="472.675" y1="126.856" x2="472.675" y2="111.754" gradientUnits="userSpaceOnUse">
<stop stop-color="#8642A0"/>
<stop offset="1" stop-color="#4E37B7"/>
</linearGradient>
<linearGradient id="paint31_linear" x1="475.812" y1="92.3937" x2="475.812" y2="69.0516" gradientUnits="userSpaceOnUse">
<stop stop-color="#1C257B"/>
<stop offset="1" stop-color="#482C83"/>
</linearGradient>
<linearGradient id="paint32_linear" x1="462.012" y1="164.227" x2="468.433" y2="144.581" gradientUnits="userSpaceOnUse">
<stop stop-color="#FF8883"/>
<stop offset="1" stop-color="#E8868D"/>
</linearGradient>
<linearGradient id="paint33_linear" x1="465.97" y1="155.518" x2="465.97" y2="136" gradientUnits="userSpaceOnUse">
<stop stop-color="#FF8883"/>
<stop offset="1" stop-color="#FFB1A4"/>
</linearGradient>
<linearGradient id="paint34_linear" x1="18.2337" y1="261.246" x2="89.6302" y2="128.428" gradientUnits="userSpaceOnUse">
<stop stop-color="#1C257B"/>
<stop offset="1" stop-color="#482C83"/>
</linearGradient>
<linearGradient id="paint35_linear" x1="29.6168" y1="267.365" x2="101.013" y2="134.547" gradientUnits="userSpaceOnUse">
<stop stop-color="#1C257B"/>
<stop offset="1" stop-color="#482C83"/>
</linearGradient>
<linearGradient id="paint36_linear" x1="21.9083" y1="268.056" x2="25.0414" y2="262.227" gradientUnits="userSpaceOnUse">
<stop stop-color="#1C257B"/>
<stop offset="1" stop-color="#482C83"/>
</linearGradient>
<linearGradient id="paint37_linear" x1="30.6164" y1="251.868" x2="57.464" y2="201.923" gradientUnits="userSpaceOnUse">
<stop stop-color="#6A4FAC"/>
<stop offset="1" stop-color="#513689"/>
</linearGradient>
<linearGradient id="paint38_linear" x1="79.1493" y1="187.901" x2="79.1493" y2="114.697" gradientUnits="userSpaceOnUse">
<stop offset="0.0159875" stop-color="#FFA58B"/>
<stop offset="1" stop-color="#FF898E"/>
</linearGradient>
<linearGradient id="paint39_linear" x1="631.581" y1="579.479" x2="631.581" y2="556.211" gradientUnits="userSpaceOnUse">
<stop stop-color="#1C257B"/>
<stop offset="1" stop-color="#482C83"/>
</linearGradient>
<linearGradient id="paint40_linear" x1="656.173" y1="1013.09" x2="656.173" y2="579.391" gradientUnits="userSpaceOnUse">
<stop stop-color="#1C257B"/>
<stop offset="1" stop-color="#482C83"/>
</linearGradient>
<linearGradient id="paint41_linear" x1="366.702" y1="211.724" x2="355.804" y2="153.256" gradientUnits="userSpaceOnUse">
<stop offset="0.0159875" stop-color="#FFAC8B"/>
<stop offset="1" stop-color="#FF9595"/>
</linearGradient>
<linearGradient id="paint42_linear" x1="390.651" y1="244.437" x2="465.191" y2="244.437" gradientUnits="userSpaceOnUse">
<stop stop-color="#CF6074"/>
<stop offset="1" stop-color="#FF817F"/>
</linearGradient>
<linearGradient id="paint43_linear" x1="92.4821" y1="259.106" x2="92.4821" y2="201.385" gradientUnits="userSpaceOnUse">
<stop offset="0.0159875" stop-color="#FF997C"/>
<stop offset="1" stop-color="#FF898E"/>
</linearGradient>
<linearGradient id="paint44_linear" x1="111.972" y1="225.62" x2="125.456" y2="225.62" gradientUnits="userSpaceOnUse">
<stop stop-color="#CF6074"/>
<stop offset="1" stop-color="#FF817F"/>
</linearGradient>
<linearGradient id="paint45_linear" x1="125.02" y1="301.677" x2="125.02" y2="277.844" gradientUnits="userSpaceOnUse">
<stop stop-color="#CF6074"/>
<stop offset="1" stop-color="#FF817F"/>
</linearGradient>
<linearGradient id="paint46_linear" x1="222.975" y1="496.554" x2="222.975" y2="369.653" gradientUnits="userSpaceOnUse">
<stop stop-color="#CF6074"/>
<stop offset="1" stop-color="#FF817F"/>
</linearGradient>
<linearGradient id="paint47_linear" x1="424.45" y1="682.474" x2="424.45" y2="271.058" gradientUnits="userSpaceOnUse">
<stop stop-color="#8B8BE0"/>
<stop offset="1" stop-color="#A177B7"/>
</linearGradient>
<linearGradient id="paint48_linear" x1="402.356" y1="480.296" x2="402.356" y2="462.012" gradientUnits="userSpaceOnUse">
<stop stop-color="#8B8BE0"/>
<stop offset="1" stop-color="#A177B7"/>
</linearGradient>
<linearGradient id="paint49_linear" x1="527.464" y1="387.788" x2="527.464" y2="279.378" gradientUnits="userSpaceOnUse">
<stop stop-color="#8B8BE0"/>
<stop offset="1" stop-color="#A177B7"/>
</linearGradient>
<linearGradient id="paint50_linear" x1="488.348" y1="414.642" x2="488.348" y2="314.022" gradientUnits="userSpaceOnUse">
<stop stop-color="#8B8BE0"/>
<stop offset="1" stop-color="#A177B7"/>
</linearGradient>
<linearGradient id="paint51_linear" x1="455.967" y1="607.301" x2="455.967" y2="579.479" gradientUnits="userSpaceOnUse">
<stop stop-color="#8B8BE0"/>
<stop offset="1" stop-color="#A177B7"/>
</linearGradient>
<linearGradient id="paint52_linear" x1="324.166" y1="445.693" x2="324.166" y2="392.135" gradientUnits="userSpaceOnUse">
<stop stop-color="#9D68C2"/>
<stop offset="1" stop-color="#90AEFF"/>
</linearGradient>
<linearGradient id="paint53_linear" x1="485.121" y1="776.998" x2="485.121" y2="695.301" gradientUnits="userSpaceOnUse">
<stop stop-color="#8B8BE0"/>
<stop offset="1" stop-color="#A177B7"/>
</linearGradient>
<linearGradient id="paint54_linear" x1="327.02" y1="1013.02" x2="327.02" y2="731.785" gradientUnits="userSpaceOnUse">
<stop stop-color="#8B8BE0"/>
<stop offset="1" stop-color="#A177B7"/>
</linearGradient>
<linearGradient id="paint55_linear" x1="501.262" y1="1013.02" x2="501.262" y2="777.727" gradientUnits="userSpaceOnUse">
<stop stop-color="#8B8BE0"/>
<stop offset="1" stop-color="#A177B7"/>
</linearGradient>
<linearGradient id="paint56_linear" x1="356.684" y1="976.9" x2="356.684" y2="947.754" gradientUnits="userSpaceOnUse">
<stop stop-color="#8B8BE0"/>
<stop offset="1" stop-color="#A177B7"/>
</linearGradient>
<linearGradient id="paint57_linear" x1="525.971" y1="961.829" x2="525.971" y2="941.729" gradientUnits="userSpaceOnUse">
<stop stop-color="#8B8BE0"/>
<stop offset="1" stop-color="#A177B7"/>
</linearGradient>
<linearGradient id="paint58_linear" x1="640.757" y1="553.095" x2="640.757" y2="355.977" gradientUnits="userSpaceOnUse">
<stop stop-color="#8642A0"/>
<stop offset="1" stop-color="#6456C0"/>
</linearGradient>
<linearGradient id="paint59_linear" x1="697.104" y1="463.991" x2="723.143" y2="463.991" gradientUnits="userSpaceOnUse">
<stop stop-color="#CF6074"/>
<stop offset="1" stop-color="#FF817F"/>
</linearGradient>
<linearGradient id="paint60_linear" x1="364.184" y1="290.527" x2="364.184" y2="289.892" gradientUnits="userSpaceOnUse">
<stop stop-color="#9D68C2"/>
<stop offset="1" stop-color="#CCEDFF"/>
</linearGradient>
<linearGradient id="paint61_linear" x1="453.405" y1="632.731" x2="453.405" y2="590.423" gradientUnits="userSpaceOnUse">
<stop stop-color="#B9ACF4"/>
<stop offset="1" stop-color="#E1D1F5"/>
</linearGradient>
<linearGradient id="paint62_linear" x1="484.097" y1="658.28" x2="484.097" y2="626.509" gradientUnits="userSpaceOnUse">
<stop stop-color="#B9ACF4"/>
<stop offset="1" stop-color="#E1D1F5"/>
</linearGradient>
<linearGradient id="paint63_linear" x1="602.945" y1="558.03" x2="602.945" y2="442.021" gradientUnits="userSpaceOnUse">
<stop stop-color="#B9ACF4"/>
<stop offset="1" stop-color="#E1D1F5"/>
</linearGradient>
<linearGradient id="paint64_linear" x1="353.026" y1="877.439" x2="353.026" y2="760.258" gradientUnits="userSpaceOnUse">
<stop stop-color="#8B8BE0"/>
<stop offset="1" stop-color="#A177B7"/>
</linearGradient>
<linearGradient id="paint65_linear" x1="478.961" y1="882.845" x2="478.961" y2="741.076" gradientUnits="userSpaceOnUse">
<stop stop-color="#8B8BE0"/>
<stop offset="1" stop-color="#A177B7"/>
</linearGradient>
<linearGradient id="paint66_linear" x1="468.48" y1="317.944" x2="468.48" y2="277.407" gradientUnits="userSpaceOnUse">
<stop stop-color="#3D2CB0"/>
<stop offset="1" stop-color="#0355C7"/>
</linearGradient>
<linearGradient id="paint67_linear" x1="363.256" y1="114.205" x2="354.877" y2="61.2781" gradientUnits="userSpaceOnUse">
<stop stop-color="#5E3187"/>
<stop offset="0.3777" stop-color="#422271"/>
<stop offset="0.7555" stop-color="#2C1760"/>
<stop offset="1" stop-color="#24135A"/>
</linearGradient>
<linearGradient id="paint68_linear" x1="444.23" y1="58.9089" x2="444.23" y2="11.1339" gradientUnits="userSpaceOnUse">
<stop stop-color="#8B8BE0"/>
<stop offset="1" stop-color="#A177B7"/>
</linearGradient>
<linearGradient id="paint69_linear" x1="409.478" y1="58.9088" x2="409.478" y2="26.4757" gradientUnits="userSpaceOnUse">
<stop stop-color="#8B8BE0"/>
<stop offset="1" stop-color="#A177B7"/>
</linearGradient>
<linearGradient id="paint70_linear" x1="475.357" y1="56.3078" x2="475.357" y2="35.3578" gradientUnits="userSpaceOnUse">
<stop stop-color="#8B8BE0"/>
<stop offset="1" stop-color="#A177B7"/>
</linearGradient>
<linearGradient id="paint71_linear" x1="413.166" y1="159.118" x2="413.166" y2="103.732" gradientUnits="userSpaceOnUse">
<stop stop-color="#F2C7CC"/>
<stop offset="1" stop-color="#A177B7"/>
</linearGradient>
<linearGradient id="paint72_linear" x1="418.902" y1="153.438" x2="425.346" y2="99.8126" gradientUnits="userSpaceOnUse">
<stop stop-color="#1C257B"/>
<stop offset="1" stop-color="#482C83"/>
</linearGradient>
<linearGradient id="paint73_linear" x1="419.895" y1="153.325" x2="426.339" y2="99.6988" gradientUnits="userSpaceOnUse">
<stop stop-color="#1C257B"/>
<stop offset="1" stop-color="#65459C"/>
</linearGradient>
<linearGradient id="paint74_linear" x1="478.38" y1="142.605" x2="483.833" y2="97.2281" gradientUnits="userSpaceOnUse">
<stop stop-color="#1C257B"/>
<stop offset="1" stop-color="#482C83"/>
</linearGradient>
<linearGradient id="paint75_linear" x1="479.492" y1="142.605" x2="484.945" y2="97.2281" gradientUnits="userSpaceOnUse">
<stop stop-color="#1C257B"/>
<stop offset="1" stop-color="#65459C"/>
</linearGradient>
<linearGradient id="paint76_linear" x1="458.367" y1="108.761" x2="459.279" y2="101.167" gradientUnits="userSpaceOnUse">
<stop stop-color="#1C257B"/>
<stop offset="1" stop-color="#65459C"/>
</linearGradient>
<linearGradient id="paint77_linear" x1="371.298" y1="156.455" x2="376.134" y2="116.214" gradientUnits="userSpaceOnUse">
<stop stop-color="#1C257B"/>
<stop offset="1" stop-color="#65459C"/>
</linearGradient>
<linearGradient id="paint78_linear" x1="377.73" y1="136.564" x2="377.73" y2="125.22" gradientUnits="userSpaceOnUse">
<stop stop-color="#8642A0"/>
<stop offset="1" stop-color="#6456C0"/>
</linearGradient>
<linearGradient id="paint79_linear" x1="402.656" y1="138.966" x2="402.656" y2="113.979" gradientUnits="userSpaceOnUse">
<stop/>
<stop offset="1" stop-color="#E1D1F5"/>
</linearGradient>
<linearGradient id="paint80_linear" x1="436.522" y1="245.683" x2="436.522" y2="201.485" gradientUnits="userSpaceOnUse">
<stop offset="0.0159875" stop-color="#FFA58B"/>
<stop offset="1" stop-color="#FF898E"/>
</linearGradient>
</defs>
</svg>
