<svg width="200" height="139" viewBox="0 0 200 139" fill="none" xmlns="http://www.w3.org/2000/svg">
<rect x="24.9999" y="2" width="173" height="135" rx="9" fill="#DFF0F8"/>
<path d="M99.2743 73.7639L27 10L100.207 62.9706C104.583 66.1366 110.46 66.2675 114.972 63.2994L196 10L116.009 74.1567C111.077 78.112 104.015 77.9463 99.2743 73.7639Z" fill="#ACCBE0"/>
<path d="M25 8L101.67 64.7517C105.104 67.2932 109.773 67.373 113.291 64.9504L196 8" stroke="#474C52" stroke-width="5"/>
<path d="M0 78H50" stroke="#474C52" stroke-width="3"/>
<path d="M25 78.5V98" stroke="#474C52" stroke-width="5"/>
<path d="M16 62H33" stroke="#474C52" stroke-width="5"/>
<path d="M16 108C30 108 58 108 58 108" stroke="#474C52" stroke-width="5"/>
<path d="M25 61V12.5C25 6.97715 29.4772 2.5 35 2.5H187.5C193.023 2.5 197.5 6.97715 197.5 12.5V126.5C197.5 132.023 193.023 136.5 187.5 136.5H35C29.4772 136.5 25 132.023 25 126.5V114" stroke="#474C52" stroke-width="5"/>
</svg>
