<svg width="1624" height="1340" viewBox="0 0 1624 1340" fill="none" xmlns="http://www.w3.org/2000/svg">
<g clip-path="url(#clip0)">
<path d="M1446.64 1279.45C1365.8 1217.83 1227.26 1065.38 1409.6 826.013C1635.04 529.66 1365.09 408.198 1106.53 421.021C898.542 431.351 664.202 169.548 430.574 216.21C120.019 277.831 321.595 544.976 111.116 688.879C-68.0229 811.765 8.90343 1185.77 242.175 1279.45H1446.64Z" fill="#DCEDF9"/>
<path d="M1592.66 736.252C1591.24 692.44 1550.64 675.343 1523.21 707.044C1507.54 725.21 1492.58 751.568 1489.74 786.475C1483.32 864.838 1552.06 842.042 1577.7 800.011C1588.74 782.201 1593.37 758.336 1592.66 736.252Z" fill="#DCEDF9"/>
<path d="M839.067 200.537C795.974 192.345 770.688 228.676 795.618 262.159C810.219 281.393 832.3 301.696 866.133 311.67C941.279 334.466 933.8 262.871 898.186 228.676C882.872 214.072 860.791 204.455 839.067 200.537Z" fill="#DCEDF9"/>
<path d="M125.361 602.68C142.456 562.43 112.54 529.66 74.4333 547.113C52.7088 557.087 28.1351 574.54 10.6842 605.173C-27.7789 673.562 43.8053 681.754 84.7614 654.328C102.568 642.929 116.814 623.339 125.361 602.68Z" fill="#DCEDF9"/>
<path d="M813.424 1340C1222.15 1340 1553.48 1318.15 1553.48 1291.2C1553.48 1264.25 1222.15 1242.4 813.424 1242.4C404.701 1242.4 73.3648 1264.25 73.3648 1291.2C73.3648 1318.15 404.701 1340 813.424 1340Z" fill="#DCEDF9"/>
<path d="M1533.18 891.552C1487.95 936.789 1538.53 940.707 1505.05 974.902C1474.78 1006.25 1429.9 975.614 1433.11 1051.84C1433.82 1068.58 1421.71 1080.69 1404.62 1087.1C1376.48 1097.43 1349.42 1087.81 1332.32 1068.58C1330.9 1067.16 1329.47 1065.37 1328.4 1063.59C1315.58 1046.14 1310.95 1022.63 1320.57 999.123C1328.4 980.244 1341.94 961.366 1366.15 953.886C1422.78 936.433 1391.44 861.276 1439.16 858.07C1496.86 854.152 1498.99 832.78 1539.95 804.285C1583.4 774.364 1594.8 830.287 1533.18 891.552Z" fill="#0077EB"/>
<path d="M1512.88 866.975C1511.46 868.4 1406.4 976.683 1332.32 1068.94C1330.9 1067.51 1329.47 1065.73 1328.4 1063.95C1402.84 971.34 1507.19 863.769 1508.25 862.345C1509.32 861.276 1511.46 861.276 1512.53 862.345C1514.31 863.769 1514.31 865.55 1512.88 866.975Z" fill="#0059D3"/>
<path d="M1544.94 1042.93C1474.06 1084.61 1535.68 1105.62 1483.32 1137.68C1435.6 1166.89 1389.66 1114.53 1369 1210.35C1364.37 1231.36 1345.5 1242.76 1322.35 1245.25C1284.24 1249.17 1253.26 1228.51 1238.3 1199.3C1237.23 1196.81 1236.16 1194.67 1235.09 1192.18C1224.77 1166.18 1226.55 1135.19 1246.13 1109.19C1261.81 1087.82 1284.95 1068.94 1317.36 1067.51C1393.58 1063.95 1378.62 960.298 1439.16 971.696C1512.17 985.231 1521.79 959.586 1581.98 937.145C1645.01 912.924 1641.09 986.3 1544.94 1042.93Z" fill="#008EFF"/>
<path d="M1527.49 1005.53C1525.35 1006.6 1359.74 1107.76 1237.94 1198.95C1236.88 1196.45 1235.81 1194.32 1234.74 1191.82C1356.89 1100.64 1521.79 1000.19 1523.57 999.123C1525.35 998.055 1527.84 998.767 1528.91 1000.55C1529.98 1002.33 1529.62 1004.47 1527.49 1005.53Z" fill="#0077EB"/>
<path d="M160.619 374.003C184.837 433.132 136.758 417.459 154.209 461.627C170.235 502.233 222.944 491.191 190.891 560.293C183.768 575.253 190.179 591.638 203.712 603.748C225.437 624.051 254.64 625.832 277.433 614.79C279.214 613.722 280.995 613.009 282.775 611.941C301.295 600.899 314.828 580.596 315.184 555.306C315.54 534.647 310.198 512.207 290.61 496.178C245.024 458.065 303.075 401.074 259.982 379.703C208.342 353.7 214.396 333.397 187.686 291.367C159.551 246.842 127.854 293.86 160.619 374.003Z" fill="#0077EB"/>
<path d="M189.11 359.044C189.823 360.825 245.024 501.165 277.789 615.147C279.57 614.078 281.351 613.366 283.131 612.297C250.01 498.315 195.521 358.687 194.809 356.906C194.096 355.482 192.316 354.413 190.891 355.125C189.11 355.838 188.398 357.619 189.11 359.044Z" fill="#0059D3"/>
<path d="M91.528 528.948C142.812 593.419 77.6385 590.925 115.389 639.368C149.579 683.536 211.191 651.122 196.233 748.007C193.028 769.022 206.561 786.832 227.574 797.161C261.763 814.615 298.089 806.066 322.663 783.982C324.8 782.201 326.581 780.42 328.361 778.283C347.237 757.98 356.496 728.416 347.949 697.071C340.826 671.781 326.224 645.779 296.309 632.6C226.505 601.967 277.433 510.782 216.889 499.74C143.525 486.205 144.237 459.134 95.8017 416.747C44.1614 371.866 21.7245 441.68 91.528 528.948Z" fill="#008EFF"/>
<path d="M121.088 500.096C122.512 501.877 241.107 655.396 322.663 784.338C324.8 782.557 326.581 780.777 328.361 778.639C246.805 649.697 128.923 497.247 127.498 495.466C126.074 493.685 123.581 493.328 122.156 494.753C120.019 496.178 119.663 498.671 121.088 500.096Z" fill="#0077EB"/>
<path d="M437.696 473.025C458.353 458.777 510.349 493.684 537.416 536.428L513.554 469.107C505.007 461.627 489.693 450.941 465.832 442.392C428.793 429.213 391.754 408.554 412.411 394.662C431.998 381.483 478.653 411.404 506.788 450.229L475.804 363.674C470.105 359.399 461.202 354.056 448.737 349.426C425.232 341.233 402.082 328.054 415.26 319.149C426.656 311.313 452.654 326.986 470.461 348.714L460.489 320.574C455.86 312.382 449.449 300.627 439.121 290.298C415.26 265.72 397.453 237.937 415.616 234.019C434.135 230.101 464.051 278.187 468.681 321.643L473.667 335.891C469.749 304.189 481.146 265.72 496.816 264.652C512.486 263.227 502.87 288.161 490.049 309.176C480.433 325.205 477.584 338.028 476.872 344.795L501.089 412.828C495.035 362.605 512.842 302.052 538.128 299.915C563.058 297.778 547.388 337.315 527.088 370.798C511.774 396.087 507.5 416.39 506.075 427.076L535.279 508.644C529.937 459.134 547.744 398.937 572.674 398.581C591.905 398.581 585.851 425.295 563.058 463.408C547.744 489.41 542.758 512.563 540.977 524.673L554.867 563.142C552.73 564.923 550.237 565.635 547.744 565.635L542.402 550.319C534.567 542.839 518.54 530.016 491.118 520.399C454.079 507.576 417.04 486.917 437.696 473.025Z" fill="#008EFF"/>
<path d="M255.709 1043.65C234.34 1056.83 246.093 1118.45 274.228 1160.12L221.875 1111.32C218.314 1100.28 214.753 1082.12 216.533 1056.83C219.382 1017.64 215.109 975.258 193.74 988.793C173.796 1001.26 182.7 1056.11 207.274 1097.43L140.319 1034.74C138.539 1027.62 137.114 1017.64 137.826 1004.47C139.607 979.888 136.758 953.173 123.581 961.722C111.828 969.202 115.746 999.122 128.923 1024.41L107.198 1004.11C101.5 996.629 93.3087 985.943 87.9666 972.408C74.7894 940.707 56.6263 913.28 45.5859 928.596C34.5456 943.913 66.9543 990.574 105.061 1012.3L116.102 1022.63C88.6789 1006.25 48.7912 1001.62 41.3122 1015.51C33.8333 1029.4 60.5438 1030.11 85.1175 1026.91C103.637 1024.41 116.458 1026.91 122.868 1029.04L175.577 1078.55C132.128 1052.91 69.4473 1045.43 57.3386 1067.51C45.5859 1089.6 87.9666 1091.02 126.786 1085.68C156.346 1081.76 176.289 1085.68 186.618 1088.88L250.01 1148.01C206.561 1123.43 144.237 1115.95 134.265 1138.39C126.43 1155.85 153.496 1161.19 197.658 1155.49C227.574 1151.57 250.723 1156.2 262.475 1159.77L292.391 1187.55C294.884 1186.12 296.665 1184.34 297.377 1182.21L285.625 1171.16C281.707 1161.19 276.721 1141.24 278.502 1112.04C280.995 1072.5 277.077 1030.11 255.709 1043.65Z" fill="#008EFF"/>
<path d="M1326.98 492.971H194.096V1275.53H1326.98V492.971Z" fill="#FFAA01"/>
<path d="M1326.98 492.971V543.195L760.716 1045.43L194.096 543.195V492.971L760.36 996.985L1326.98 492.971Z" fill="#F88800"/>
<path d="M651.381 897.964L226.861 1275.53H194.096V1255.58L627.163 870.537L651.381 897.964Z" fill="#F88800"/>
<path d="M1326.98 1258.43V1275.53H1291.01L866.846 897.964L891.063 870.537L1326.98 1258.43Z" fill="#F88800"/>
<path d="M194.096 492.971L760.36 996.985L1326.98 492.971H194.096Z" fill="#FDCC50"/>
<path d="M1014.29 422.445L1028.89 453.434L998.261 453.79L986.509 425.651L1014.29 422.445Z" fill="#F9AF8B"/>
<path d="M1019.27 451.653C1019.27 451.653 1025.68 443.104 1030.67 443.46C1035.66 443.816 1074.12 474.449 1087.3 476.942C1100.47 479.436 1099.41 492.971 1093.71 492.971C1077.68 492.971 990.07 492.971 990.07 492.971C990.07 492.971 987.577 461.626 990.782 452.365C993.988 443.104 1008.95 453.79 1019.27 451.653Z" fill="#008EFF"/>
<path d="M1040.64 473.025C1040.29 473.025 1039.57 473.025 1039.22 473.025C1038.51 472.669 1038.15 471.244 1038.51 470.532C1038.51 470.175 1042.78 463.408 1048.12 460.558C1055.24 456.996 1060.94 460.914 1061.3 461.27C1062.01 461.983 1062.37 463.051 1061.65 463.764C1060.94 464.476 1059.87 464.832 1059.16 464.12C1059.16 464.12 1055.24 461.27 1049.9 463.764C1045.63 465.901 1041.71 472.312 1041.71 472.312C1041.35 472.312 1041 472.669 1040.64 473.025Z" fill="white"/>
<path d="M1034.94 467.682C1034.59 467.682 1033.88 467.682 1033.52 467.682C1032.81 467.326 1032.45 465.901 1032.81 465.189C1032.81 464.832 1037.08 458.065 1042.42 455.215C1049.55 451.653 1055.24 455.571 1055.6 455.927C1056.31 456.64 1056.67 457.708 1055.96 458.421C1055.24 459.133 1054.18 459.489 1053.46 458.777C1053.46 458.777 1049.55 455.927 1044.2 458.421C1039.93 460.558 1036.01 466.969 1036.01 466.969C1036.01 467.326 1035.3 467.682 1034.94 467.682Z" fill="white"/>
<path d="M1048.12 476.943C1047.76 476.943 1047.05 476.943 1046.7 476.943C1045.98 476.587 1045.63 475.162 1045.98 474.45C1045.98 474.094 1050.26 467.326 1055.6 464.476C1062.72 460.914 1068.42 464.833 1068.78 465.189C1069.49 465.901 1069.85 466.97 1069.13 467.682C1068.42 468.394 1067.35 468.751 1066.64 468.038C1066.64 468.038 1062.72 465.189 1057.38 467.682C1053.11 469.819 1049.19 476.231 1049.19 476.231C1048.83 476.587 1048.48 476.943 1048.12 476.943Z" fill="white"/>
<path d="M1023.19 432.775L1009.66 437.049L1002.18 437.405L989.358 438.118C972.263 424.582 926.321 383.976 917.061 359.755C917.061 359.755 857.586 497.602 775.674 497.602C770.331 497.602 784.577 428.857 797.754 414.609C797.754 414.609 873.256 273.556 922.403 288.516C944.128 295.996 966.565 327.698 1023.19 432.775Z" fill="#2E3052"/>
<path d="M1009.66 437.049L1002.18 437.405C951.963 399.292 928.458 366.879 917.774 346.22C917.417 345.507 916.705 345.151 916.349 345.151C915.993 345.151 915.637 345.507 915.637 345.863C891.419 402.498 862.572 436.693 842.628 455.215C820.903 475.518 804.877 482.285 804.165 482.285L803.096 480.148L802.028 478.011C802.028 478.011 818.054 471.243 839.067 451.653C858.654 433.487 887.145 400.005 910.651 344.082C911.719 341.945 913.5 340.521 915.637 340.521C918.13 340.521 920.267 341.945 921.335 344.082C932.732 365.098 956.949 397.868 1009.66 437.049Z" fill="#001030"/>
<path d="M975.468 428.856C977.605 432.775 981.166 438.474 984.728 441.323C984.728 441.323 1013.58 439.898 1027.82 432.775L1021.41 418.171C1021.77 418.171 998.617 426.719 975.468 428.856Z" fill="#524E84"/>
<path d="M1013.58 231.169C972.263 247.91 939.498 256.459 911.363 260.021C911.007 260.021 904.24 260.733 901.747 260.377C894.268 260.021 883.94 258.24 873.612 253.609C866.133 250.047 855.805 241.143 844.765 230.813C831.231 217.634 816.63 201.961 806.658 190.563C798.823 181.658 793.837 175.603 793.837 175.603C800.603 165.273 815.917 156.012 829.095 151.026C829.095 151.026 856.874 196.975 898.542 219.771C900.679 220.84 903.172 222.264 905.665 223.333C915.281 221.908 940.923 220.483 952.319 219.771C982.591 217.634 1007.52 212.291 1007.52 212.291L1013.58 231.169Z" fill="#0077EB"/>
<path d="M1006.45 210.509C1006.45 210.509 1012.15 195.906 1019.99 191.987C1027.82 187.713 1049.9 173.465 1054.89 177.74C1059.52 182.014 1058.81 203.029 1038.86 220.483C1026.04 231.525 1013.58 231.169 1013.58 231.169L1006.45 210.509Z" fill="#F9AF8B"/>
<path d="M1055.96 190.919L1023.19 221.552C1022.12 222.621 1019.63 222.977 1018.21 222.264L998.261 212.647C997.549 212.291 997.193 211.935 997.193 211.579L996.124 208.373L1001.47 206.236L1053.11 186.645L1055.96 185.576L1057.02 189.138V189.495C1057.02 189.851 1056.67 190.563 1055.96 190.919Z" fill="#001030"/>
<path d="M1052.75 186.288L1001.11 205.879L1030.31 178.452C1031.38 177.384 1033.88 177.027 1035.3 177.74L1052.75 186.288Z" fill="#1F2232"/>
<path d="M1017.14 219.058L997.193 209.441C995.768 208.729 995.412 207.304 996.837 205.879L1029.6 175.247C1030.67 174.178 1033.16 173.822 1034.59 174.534L1054.53 184.151C1055.96 184.864 1056.31 186.289 1054.89 187.713L1022.12 218.346C1021.05 219.415 1018.92 219.771 1017.14 219.058Z" fill="#2E3052"/>
<path d="M1019.63 213.359L1003.96 205.879C1002.53 205.167 1002.18 203.742 1003.6 202.317L1029.25 178.452C1030.31 177.384 1032.81 177.027 1034.23 177.74L1049.9 185.22C1051.33 185.932 1051.68 187.357 1050.26 188.782L1024.62 212.647C1023.55 213.715 1021.05 214.072 1019.63 213.359Z" fill="#2E3052"/>
<path d="M1019.27 184.864C1019.27 184.864 1023.9 185.577 1024.26 189.495C1024.62 193.413 1020.34 191.988 1017.49 190.919C1014.64 190.207 1012.15 190.919 1011.79 191.276C1010.73 192.7 1011.08 183.439 1019.27 184.864Z" fill="#F9AF8B"/>
<path d="M1040.29 206.592C1040.29 206.592 1047.76 194.481 1053.11 188.07C1057.02 183.795 1058.81 190.207 1056.31 194.481C1053.46 198.755 1048.48 207.66 1040.29 206.592Z" fill="#F9AF8B"/>
<path d="M698.747 423.514L682.365 318.793L681.296 312.738V308.107L684.858 159.931L726.17 146.039L728.307 145.327L737.567 142.121L745.046 139.628L788.495 145.683L795.617 146.752L798.11 147.108L829.095 151.382C829.451 249.691 819.835 271.063 837.998 350.85C847.614 380.771 813.781 487.629 698.747 423.514Z" fill="#008EFF"/>
<path d="M721.896 396.799C754.305 387.538 778.167 365.098 792.412 348.001C807.726 329.479 815.561 312.738 815.561 312.382C815.918 311.669 815.561 310.601 814.849 310.244C814.137 309.888 813.068 310.244 812.712 310.957C812.712 310.957 804.877 327.698 789.919 345.864C776.03 362.605 752.881 384.689 721.184 393.594C720.472 393.95 719.76 394.662 720.116 395.731C720.116 396.443 721.184 397.156 721.896 396.799Z" fill="#0077EB"/>
<path d="M758.935 398.58C787.07 390.744 810.931 366.879 812 365.811C812.712 365.098 812.712 364.03 812 363.673C811.288 362.961 810.219 362.961 809.863 363.673C809.507 364.03 781.728 392.169 751.456 397.156C750.388 397.156 750.031 398.224 750.031 398.937C750.031 399.649 751.1 400.361 751.812 400.361C753.949 399.649 756.442 399.293 758.935 398.58Z" fill="#0077EB"/>
<path d="M738.991 189.495C767.126 181.659 790.988 157.794 792.056 156.725C792.768 156.013 792.768 154.944 792.056 154.588C791.344 153.876 790.275 153.876 789.919 154.588C789.563 154.944 761.784 183.083 731.512 188.07C730.444 188.07 730.088 189.139 730.088 189.851C730.088 190.564 731.156 191.276 731.868 191.276C734.005 190.564 736.498 190.207 738.991 189.495Z" fill="#0077EB"/>
<path d="M986.865 694.577L998.261 719.867L974.756 729.841L961.223 703.838L986.865 694.577Z" fill="#F9AF8B"/>
<path d="M992.919 719.511C992.919 719.511 995.412 709.181 1000.04 707.756C1004.67 705.975 1052.39 718.798 1065.22 715.949C1078.39 713.099 1079.82 723.073 1079.46 728.416C1079.11 733.759 982.235 768.666 982.235 768.666C982.235 768.666 967.277 741.595 966.921 731.978C966.565 721.648 984.372 725.566 992.919 719.511Z" fill="#008EFF"/>
<path d="M1021.05 730.552C1020.7 730.908 1020.34 730.908 1019.63 730.908C1018.56 730.908 1017.85 729.84 1017.85 728.771C1017.85 728.415 1018.92 720.579 1022.84 715.592C1027.82 709.537 1034.59 710.962 1034.94 710.962C1036.01 711.318 1036.72 712.03 1036.37 713.099C1036.01 714.167 1035.3 714.88 1034.23 714.524C1033.88 714.524 1029.25 713.455 1025.68 718.085C1022.48 722.004 1021.77 729.127 1021.77 729.127C1021.77 729.84 1021.41 730.196 1021.05 730.552Z" fill="white"/>
<path d="M1013.93 728.059C1013.58 728.415 1013.22 728.415 1012.51 728.415C1011.44 728.415 1010.73 727.347 1010.73 726.278C1010.73 725.922 1011.79 718.086 1015.71 713.099C1020.7 707.044 1027.46 708.468 1027.82 708.468C1028.89 708.825 1029.6 709.537 1029.25 710.606C1028.89 711.674 1028.18 712.387 1027.11 712.03C1026.75 712.03 1022.12 710.962 1018.56 715.592C1015.36 719.51 1014.64 726.634 1014.64 726.634C1014.64 727.347 1014.29 727.703 1013.93 728.059Z" fill="white"/>
<path d="M1029.6 731.264C1029.25 731.621 1028.89 731.621 1028.18 731.621C1027.11 731.621 1026.4 730.552 1026.4 729.483C1026.4 729.127 1027.46 721.291 1031.38 716.304C1036.37 710.249 1043.14 711.674 1043.49 711.674C1044.56 712.03 1045.27 712.742 1044.92 713.811C1044.56 714.879 1043.85 715.592 1042.78 715.236C1042.42 715.236 1037.79 714.167 1034.23 718.798C1031.03 722.716 1030.31 729.84 1030.31 729.84C1030.31 730.552 1029.96 731.264 1029.6 731.264Z" fill="white"/>
<path d="M992.563 699.564C990.07 702.413 982.591 706.332 974.4 710.25C972.975 710.962 971.551 711.674 969.77 712.031C967.277 713.099 964.428 714.168 961.935 714.88C961.935 714.88 906.733 613.009 885.365 538.921C885.365 538.921 698.035 515.768 691.625 450.228C691.268 448.091 691.268 445.954 691.625 443.461C692.337 437.049 694.474 430.638 698.391 423.514C702.665 416.034 766.77 423.158 801.316 433.131C801.316 433.131 895.337 469.819 929.882 507.576C948.046 526.454 992.563 699.564 992.563 699.564Z" fill="#2E3052"/>
<path d="M974.756 710.25C973.332 710.962 971.907 711.674 970.126 712.031C941.991 665.725 903.172 557.443 894.624 531.44C893.912 529.66 892.488 528.235 890.707 527.879C799.535 510.781 747.182 486.916 719.403 469.819C706.938 462.339 698.391 455.571 691.981 449.872C691.624 447.735 691.624 445.598 691.981 443.104C698.035 448.804 707.651 456.996 722.253 465.901C750.031 482.642 801.672 506.151 891.419 522.892C894.981 523.604 897.83 526.098 898.898 529.66C907.802 556.018 946.977 664.657 974.756 710.25Z" fill="#001030"/>
<path d="M952.319 704.194L961.223 718.442C961.223 718.442 983.304 714.524 998.261 699.564L992.919 687.097C992.563 687.097 965.853 700.276 952.319 704.194Z" fill="#524E84"/>
<path d="M654.23 462.339C654.23 462.339 667.051 479.793 665.982 488.698C664.914 497.602 653.517 514.344 644.258 515.412C634.998 516.124 654.942 493.684 650.312 494.397C644.614 495.109 606.507 526.81 598.316 526.81C590.124 526.81 607.932 512.206 614.698 508.644C614.698 508.644 596.535 516.837 592.261 521.111C587.988 525.386 585.138 516.124 606.151 503.658C606.151 503.658 586.919 514.7 585.495 514.7C581.221 515.412 593.33 500.808 604.014 495.821C604.014 495.821 588.7 503.302 586.919 503.302C584.782 503.302 589.412 498.315 600.809 491.903C611.137 486.204 628.231 459.846 628.231 459.846L654.23 462.339Z" fill="#F9AF8B"/>
<path d="M685.214 159.575C685.214 159.575 642.477 241.855 632.505 328.054L627.875 459.133C627.875 459.133 632.149 468.395 654.23 462.339L675.242 331.616L691.268 271.776C691.625 271.776 699.103 198.044 685.214 159.575Z" fill="#0077EB"/>
<path d="M815.726 75.8174C823.148 50.729 808.829 24.3735 783.744 16.9508C758.66 9.52815 732.308 23.8491 724.887 48.9376C717.465 74.026 731.784 100.382 756.868 107.804C781.953 115.227 808.305 100.906 815.726 75.8174Z" fill="#2E3052"/>
<path d="M817.698 61.9777C817.698 61.9777 831.588 60.5529 831.944 47.3737C832.3 36.3317 818.411 40.9622 820.904 32.7698C823.396 24.5773 827.314 17.0973 816.63 13.1791C807.37 9.61721 805.946 16.0287 794.905 4.27431C782.084 -9.61724 765.702 14.6039 752.168 12.823C732.225 10.3296 727.951 21.3716 724.389 29.9202C720.828 38.4689 727.239 45.9489 727.239 45.9489L817.698 61.9777Z" fill="#2E3052"/>
<path d="M807.014 82.2809C807.014 82.2809 816.274 73.7322 820.191 82.9933C824.109 92.2543 812.356 114.694 799.891 106.502L807.014 82.2809Z" fill="#FC8664"/>
<path d="M803.809 99.3779C804.165 99.3779 804.877 99.3779 804.877 98.6655C808.439 91.5417 816.63 90.1169 816.63 89.7607C817.342 89.7607 817.698 89.0483 817.698 88.3359C817.698 87.6235 816.986 87.2673 816.274 87.2673C815.917 87.2673 806.658 89.0483 802.74 97.2408C802.74 98.3093 803.096 99.0217 803.809 99.3779Z" fill="#FD664D"/>
<path d="M812.356 97.2412C812.712 97.2412 812.712 97.2412 813.068 97.2412C813.781 96.885 813.781 96.1726 813.781 95.8164C813.781 95.8164 812.712 93.323 810.219 91.5421C809.863 91.1859 809.151 91.1859 808.439 91.8983C808.082 92.2545 808.082 92.9668 808.795 93.6792C810.931 95.104 811.644 96.885 811.644 96.885C811.644 96.885 812 97.2412 812.356 97.2412Z" fill="#FD664D"/>
<path d="M745.402 117.9L741.128 141.765C741.128 141.765 748.963 154.232 758.579 156.725C768.195 159.219 776.03 148.889 776.03 148.889L779.947 125.736L745.402 117.9Z" fill="#F9AF8B"/>
<path d="M745.402 117.9L743.621 128.586C748.963 136.778 760.003 140.697 777.454 141.409L780.303 126.093L745.402 117.9Z" fill="#FC8664"/>
<path d="M730.8 52.0041C729.732 61.2652 728.307 73.0196 728.663 82.6368C728.663 85.1301 728.663 87.2673 729.019 89.4045C730.8 107.927 738.279 140.34 775.674 133.929C792.412 131.079 802.384 115.05 808.795 97.9531C813.068 86.1987 815.561 74.4443 816.986 65.5395C818.41 56.6346 814.849 47.7298 808.082 42.0307C789.207 26.7144 766.414 27.0706 751.1 29.9201C740.416 32.4135 732.225 40.9621 730.8 52.0041Z" fill="#F9AF8B"/>
<path d="M788.495 82.2804C788.139 84.7738 788.851 87.2671 790.632 87.2671C792.412 87.6233 793.837 85.8424 794.549 82.9928C794.905 80.4995 794.193 78.0061 792.412 78.0061C790.632 78.0061 789.207 79.7871 788.495 82.2804Z" fill="#2E3052"/>
<path d="M754.305 76.2253C753.949 78.7186 754.661 81.212 756.442 81.212C758.223 81.5682 759.647 79.7872 760.36 76.9376C760.716 74.4443 760.004 71.9509 758.223 71.9509C756.442 71.9509 754.661 73.7319 754.305 76.2253Z" fill="#2E3052"/>
<path d="M803.453 70.1704C803.453 70.1704 792.056 63.0465 782.084 65.5399V70.1704C782.084 70.1704 792.768 69.8142 802.028 75.1571C803.096 73.3761 804.165 72.6637 803.453 70.1704Z" fill="#2E3052"/>
<path d="M747.539 60.1965C747.539 60.1965 760.716 57.3469 769.263 63.4022L767.838 67.6765C767.838 67.6765 757.867 63.7584 747.539 65.5394C747.182 63.4022 746.47 62.3336 747.539 60.1965Z" fill="#2E3052"/>
<path d="M768.907 97.5972C767.126 97.241 765.346 96.1724 764.989 96.1724C764.277 95.8162 764.277 95.1038 764.633 94.7476C764.989 94.0353 765.702 94.0353 766.058 94.3915C767.126 95.1038 769.263 96.1724 770.688 95.46C771.044 95.46 771.4 95.1038 771.4 94.3915C772.468 90.4733 773.893 76.938 773.893 76.938C773.893 76.2256 774.605 75.8694 775.317 75.8694C776.03 75.8694 776.386 76.5818 776.386 77.2942C776.386 78.0066 774.961 91.1857 773.893 95.1038C773.537 96.5286 772.468 97.241 771.756 97.5972C770.688 97.5972 769.975 97.5972 768.907 97.5972Z" fill="#FC8664"/>
<path d="M782.084 107.214C780.304 111.845 775.674 119.681 765.346 117.9C755.017 116.119 753.237 107.57 753.237 102.227L782.084 107.214Z" fill="white"/>
<path d="M764.633 123.955C761.784 123.599 759.291 121.462 759.291 121.462C758.935 121.105 758.935 120.393 759.291 119.681C759.647 119.325 760.36 119.325 761.072 119.681C761.072 119.681 762.853 121.106 765.346 121.818C767.482 122.174 769.619 121.462 769.619 121.462C770.332 121.105 771.044 121.462 771.044 122.174C771.4 122.886 771.044 123.599 770.332 123.599C769.975 123.243 767.126 124.311 764.633 123.955Z" fill="#FC8664"/>
<path d="M806.658 90.117C808.438 85.4865 810.219 79.7874 810.219 76.5817C810.219 70.8826 805.946 66.9645 808.438 61.9778C810.931 56.991 806.302 50.2234 802.384 48.4424C798.467 46.6614 788.495 47.0176 779.591 40.9623C771.4 34.907 755.017 35.2632 751.456 40.6061C747.182 47.0176 751.1 48.4424 741.484 54.4977C737.567 56.991 740.06 65.5397 739.703 70.8826C739.703 73.3759 739.347 74.4445 738.991 76.9379L738.635 78.3627L728.663 76.5817C729.019 68.3892 729.731 59.4844 730.8 52.3605C732.224 41.6747 740.416 32.7699 751.1 30.6327C766.414 27.7832 789.207 27.0708 808.082 42.7433C814.849 48.4424 818.41 57.3472 816.986 66.2521C815.917 73.0198 814.137 82.2808 811.288 91.5418L806.658 90.117Z" fill="#2E3052"/>
<path d="M732.581 81.5682C732.937 79.0749 733.293 76.2253 733.293 73.3758C733.293 69.8139 732.937 66.2519 729.376 64.1148C726.526 62.3338 723.677 61.9776 720.828 64.8272C714.061 71.951 715.486 98.3093 730.088 95.1036L732.581 81.5682Z" fill="#F9AF8B"/>
<path d="M728.663 87.267C728.307 86.9108 727.951 86.5547 727.951 86.1985C728.663 78.3622 722.609 72.6631 722.609 72.6631C722.253 72.3069 722.253 71.5945 722.609 70.8821C722.965 70.5259 723.677 70.5259 724.39 70.8821C724.746 71.2383 731.512 77.2936 730.444 86.5546C730.088 86.9108 729.732 87.267 728.663 87.267Z" fill="#FC8664"/>
<path d="M722.609 80.8561C722.253 80.8561 722.253 80.4999 722.253 80.4999C721.897 80.1437 721.897 79.4313 722.609 78.719C722.609 78.719 724.746 77.2942 727.951 76.938C728.663 76.938 729.019 77.2942 729.019 78.0066C729.019 78.719 728.663 79.0752 727.951 79.0752C725.458 79.0752 724.033 80.1437 724.033 80.1437C723.321 80.8561 722.965 80.8561 722.609 80.8561Z" fill="#FC8664"/>
<path d="M1267.5 629.038C1267.5 629.038 1251.83 658.602 1233.67 682.111C1228.33 688.878 1222.63 695.29 1216.93 700.277C1208.03 708.113 1199.12 712.387 1192 708.825C1165.29 695.646 1106.17 590.925 1106.17 590.925L1120.77 573.828C1120.77 573.828 1147.13 603.748 1166.36 621.558C1184.17 637.943 1197.7 650.409 1197.7 650.409C1200.19 646.848 1202.69 642.573 1205.54 638.299C1208.38 633.668 1211.59 629.038 1214.44 624.051C1236.52 588.432 1263.59 549.25 1263.59 549.25L1267.5 629.038Z" fill="#F9AF8B"/>
<path d="M1124.34 584.514C1124.34 584.514 1130.39 574.54 1127.9 565.636C1125.4 556.731 1123.27 536.784 1113.65 537.14C1110.09 537.496 1115.43 545.689 1112.94 553.525C1112.94 553.525 1102.61 548.538 1095.49 543.552C1089.43 538.921 1076.61 531.797 1070.91 528.235C1069.13 527.167 1067.35 528.948 1068.42 530.729C1069.85 533.222 1073.76 537.14 1081.95 542.483C1081.95 542.483 1060.94 530.729 1057.38 533.222C1053.82 535.715 1080.53 550.319 1080.53 550.319C1080.53 550.319 1058.81 541.771 1057.02 544.62C1055.96 546.401 1076.97 558.868 1076.97 558.868C1076.97 558.868 1055.96 552.456 1059.87 557.443C1060.94 558.868 1100.83 577.034 1109.38 598.049C1110.09 598.049 1121.49 591.638 1124.34 584.514Z" fill="#F9AF8B"/>
<path d="M1233.67 682.111C1228.33 688.879 1222.63 695.29 1216.93 700.277L1205.54 638.655C1208.38 634.025 1211.59 629.394 1214.44 624.407L1233.67 682.111Z" fill="#FC8664"/>
<path d="M1264.3 546.757L1208.03 627.969L1225.84 700.277L1270 629.75C1270.35 629.75 1278.54 582.733 1264.3 546.757Z" fill="#008EFF"/>
<path d="M1293.5 1240.98V1266.62L1317.36 1266.27L1318.79 1239.2L1293.5 1240.98Z" fill="#F9AF8B"/>
<path d="M1354.05 866.619C1354.05 869.825 1352.98 884.429 1351.91 904.732C1348.7 960.654 1342.29 1060.03 1338.38 1082.47C1334.46 1105.27 1336.24 1180.43 1337.66 1219.96C1338.02 1226.73 1335.17 1232.79 1330.9 1237.06C1329.12 1238.84 1327.34 1240.27 1325.2 1241.33C1321.64 1243.47 1317.36 1244.54 1313.09 1244.54H1294.93C1281.04 1244.54 1270 1233.5 1270.71 1219.96C1271.78 1186.84 1272.85 1125.93 1270.71 1078.91C1268.57 1034.39 1271.78 955.311 1274.27 906.156C1275.34 886.566 1276.05 871.606 1276.41 865.55L1354.05 866.619Z" fill="#2E3052"/>
<path d="M1276.41 865.907L1354.05 866.975C1354.05 870.181 1352.98 884.785 1351.91 905.088C1325.55 908.294 1298.13 909.719 1274.27 906.513C1275.34 886.566 1276.05 871.962 1276.41 865.907Z" fill="#001030"/>
<path d="M1330.54 1149.79C1331.25 1175.08 1331.97 1201.08 1331.61 1222.1C1331.61 1228.16 1331.25 1233.14 1330.9 1237.42C1329.12 1239.2 1327.34 1240.62 1325.2 1241.69C1325.55 1236.7 1325.91 1230.29 1326.27 1222.1C1326.62 1201.08 1325.91 1175.44 1325.2 1150.15C1324.49 1119.52 1323.42 1090.31 1325.2 1078.2C1328.76 1051.13 1337.31 904.732 1339.44 865.55L1344.79 865.907C1342.65 905.088 1334.1 1051.48 1330.54 1078.91C1328.76 1090.66 1329.83 1119.52 1330.54 1149.79Z" fill="#001030"/>
<path d="M1299.56 1265.56C1299.56 1265.56 1294.57 1258.79 1290.65 1258.79C1286.74 1259.14 1254.68 1282.65 1244 1284.43C1233.31 1286.21 1235.09 1294.05 1236.88 1297.97C1238.66 1301.89 1322.35 1298.33 1322.35 1298.33C1322.35 1298.33 1325.2 1274.1 1322.71 1266.62C1319.86 1259.14 1307.75 1267.69 1299.56 1265.56Z" fill="#008EFF"/>
<path d="M1281.75 1282.3C1282.11 1282.3 1282.46 1282.3 1282.82 1282.3C1283.53 1281.94 1283.89 1280.87 1283.53 1280.16C1283.53 1279.8 1280.32 1274.46 1276.05 1271.97C1270.35 1269.12 1265.72 1271.97 1265.37 1272.32C1264.65 1272.68 1264.65 1273.75 1265.01 1274.46C1265.37 1275.17 1266.43 1275.17 1267.15 1274.82C1267.15 1274.82 1270.35 1272.68 1274.63 1274.82C1278.19 1276.6 1281.04 1281.58 1281.04 1281.58C1281.04 1281.94 1281.39 1282.3 1281.75 1282.3Z" fill="white"/>
<path d="M1286.38 1278.02C1286.74 1278.02 1287.09 1278.02 1287.45 1278.02C1288.16 1277.67 1288.52 1276.6 1288.16 1275.88C1288.16 1275.53 1284.95 1270.19 1280.68 1267.69C1274.98 1264.84 1270.35 1267.69 1270 1268.05C1269.28 1268.4 1269.28 1269.47 1269.64 1270.19C1270 1270.9 1271.06 1270.9 1271.78 1270.54C1271.78 1270.54 1274.98 1268.4 1279.26 1270.54C1282.82 1272.32 1285.67 1277.31 1285.67 1277.31C1285.67 1277.67 1286.02 1278.02 1286.38 1278.02Z" fill="white"/>
<path d="M1275.69 1285.5C1276.05 1285.5 1276.41 1285.5 1276.76 1285.5C1277.48 1285.15 1277.83 1284.08 1277.48 1283.37C1277.48 1283.01 1274.27 1277.67 1270 1275.17C1264.3 1272.32 1259.67 1275.17 1259.31 1275.53C1258.6 1275.89 1258.6 1276.95 1258.96 1277.67C1259.31 1278.38 1260.38 1278.38 1261.09 1278.02C1261.09 1278.02 1264.3 1275.88 1268.57 1278.02C1272.13 1279.8 1274.98 1284.79 1274.98 1284.79C1274.98 1285.15 1275.34 1285.5 1275.69 1285.5Z" fill="white"/>
<path d="M1409.6 1240.98L1412.45 1266.62L1433.82 1266.27L1435.25 1239.2L1409.6 1240.98Z" fill="#F9AF8B"/>
<path d="M1453.77 1079.27C1451.27 1126.28 1452.7 1186.84 1453.77 1220.32C1454.12 1233.85 1443.08 1244.9 1429.55 1244.9H1411.38C1407.47 1244.9 1403.55 1243.83 1400.34 1242.4C1398.21 1241.33 1396.43 1239.91 1395 1238.48C1390.02 1233.85 1387.17 1227.44 1387.52 1220.32C1388.59 1181.14 1390.37 1105.62 1386.81 1082.83C1382.89 1060.03 1376.48 957.448 1373.28 902.238C1372.21 883.716 1371.5 870.537 1371.14 867.331L1448.78 868.4C1449.14 872.318 1449.49 878.373 1449.85 886.21C1451.27 930.021 1456.26 1027.62 1453.77 1079.27Z" fill="#2E3052"/>
<path d="M1448.78 885.853C1434.18 889.771 1404.97 896.895 1372.21 902.238C1371.14 883.716 1370.43 870.537 1370.07 867.331L1447.71 868.4C1448.07 871.962 1448.42 878.017 1448.78 885.853Z" fill="#001030"/>
<path d="M1398.92 1222.1C1399.28 1230.65 1399.63 1237.06 1399.99 1242.05C1397.85 1240.98 1396.07 1239.55 1394.29 1238.13C1393.93 1233.5 1393.58 1228.15 1393.58 1222.1C1393.22 1201.08 1393.93 1175.08 1394.65 1149.79C1395.36 1119.16 1396.07 1090.66 1394.65 1078.55C1390.73 1051.48 1382.54 904.731 1380.4 865.55L1385.74 865.194C1387.88 904.375 1396.07 1050.77 1399.99 1077.84C1401.77 1090.31 1401.06 1119.16 1399.99 1149.79C1398.92 1175.08 1398.21 1201.08 1398.92 1222.1Z" fill="#001030"/>
<path d="M1420.64 1262.71C1420.64 1262.71 1431.68 1259.86 1434.53 1259.86C1437.38 1259.86 1457.68 1281.94 1464.45 1283.37C1476.91 1285.86 1476.91 1304.38 1469.44 1305.45C1447.71 1308.3 1410.67 1299.04 1410.67 1299.04C1410.67 1299.04 1407.11 1274.82 1408.89 1267.34C1410.32 1259.86 1414.59 1264.84 1420.64 1262.71Z" fill="#008EFF"/>
<path d="M1438.45 1283.37C1438.1 1283.37 1437.74 1283.37 1437.38 1283.01C1436.67 1282.65 1436.67 1281.58 1437.03 1280.87C1437.03 1280.52 1440.94 1275.17 1445.57 1273.39C1451.63 1270.9 1455.9 1274.46 1456.26 1274.82C1456.97 1275.17 1456.97 1276.24 1456.26 1276.95C1455.55 1277.67 1454.83 1277.67 1454.12 1276.95C1454.12 1276.95 1450.92 1274.46 1446.64 1276.24C1443.08 1277.67 1439.52 1282.65 1439.52 1282.65C1439.16 1283.01 1438.81 1283.01 1438.45 1283.37Z" fill="white"/>
<path d="M1434.53 1278.73C1434.18 1278.73 1433.82 1278.73 1433.47 1278.38C1432.75 1278.02 1432.75 1276.95 1433.11 1276.24C1433.11 1275.88 1437.03 1270.54 1441.66 1268.76C1447.71 1266.27 1451.98 1269.83 1452.34 1270.19C1453.05 1270.54 1453.05 1271.61 1452.34 1272.32C1451.63 1273.04 1450.92 1273.04 1450.2 1272.32C1450.2 1272.32 1447 1269.83 1442.72 1271.61C1439.16 1273.04 1435.6 1278.02 1435.6 1278.02C1435.25 1278.38 1434.89 1278.73 1434.53 1278.73Z" fill="white"/>
<path d="M1444.51 1286.93C1444.15 1286.93 1443.79 1286.93 1443.44 1286.57C1442.72 1286.22 1442.72 1285.15 1443.08 1284.43C1443.08 1284.08 1447 1278.73 1451.63 1276.95C1457.68 1274.46 1461.96 1278.02 1462.31 1278.38C1463.02 1278.73 1463.02 1279.8 1462.31 1280.52C1461.6 1281.23 1460.89 1281.23 1460.18 1280.52C1460.18 1280.52 1456.97 1278.02 1452.7 1279.8C1449.14 1281.23 1445.57 1286.22 1445.57 1286.22C1445.22 1286.57 1444.86 1286.93 1444.51 1286.93Z" fill="white"/>
<path d="M1465.52 874.811C1395.36 892.264 1325.2 892.264 1255.39 874.811C1255.04 849.165 1254.68 746.581 1256.82 662.52C1256.82 660.739 1256.82 659.314 1256.82 657.533C1256.82 656.821 1256.82 655.752 1256.82 655.04C1256.82 653.971 1256.82 652.902 1256.82 651.834C1258.24 596.268 1261.09 551.031 1265.37 544.976C1275.69 531.084 1328.4 508.288 1343.01 498.314C1344.07 500.095 1351.2 510.781 1360.81 511.494C1371.14 512.206 1380.4 500.452 1380.4 500.452V498.314C1395 508.288 1442.72 529.303 1453.05 543.195C1464.09 558.511 1465.87 830.999 1465.52 874.811Z" fill="#008EFF"/>
<path d="M1277.83 622.982C1271.78 630.818 1262.87 648.984 1258.96 657.533C1258.24 658.602 1257.89 659.67 1257.53 660.382C1257.18 661.451 1256.82 661.807 1256.82 661.807C1256.82 662.163 1256.46 662.163 1256.11 662.52C1256.11 660.739 1256.11 659.314 1256.11 657.533C1256.11 656.821 1256.11 655.752 1256.11 655.04C1256.82 653.259 1257.89 651.478 1258.96 648.984C1263.59 639.723 1270 627.613 1274.63 620.845C1274.98 620.133 1276.05 620.133 1276.76 620.489C1278.19 621.201 1278.54 622.27 1277.83 622.982Z" fill="#0077EB"/>
<path d="M1412.45 561.004C1412.45 561.004 1412.1 561.004 1412.45 561.004C1384.67 560.292 1362.95 548.894 1349.77 539.277C1335.53 528.947 1328.05 519.33 1327.69 518.974C1326.98 518.261 1327.34 517.193 1328.05 516.837C1328.76 516.48 1329.83 516.48 1330.18 517.193C1330.54 517.549 1360.46 556.374 1412.45 557.799C1413.52 557.799 1413.88 558.511 1413.88 559.58C1413.88 560.292 1413.17 561.004 1412.45 561.004Z" fill="#0077EB"/>
<path d="M1318.43 821.026C1317.72 821.026 1317.01 820.313 1316.65 819.601C1316.65 818.888 1317.36 817.82 1318.08 817.82C1363.66 814.97 1391.08 792.174 1406.04 773.652C1422.07 753.349 1427.41 733.758 1427.41 733.402C1427.77 732.69 1428.48 731.977 1429.55 732.334C1430.26 732.69 1430.97 733.402 1430.62 734.114C1430.26 734.827 1424.92 754.774 1408.54 775.433C1393.58 794.667 1365.44 818.176 1318.43 821.026Z" fill="#0077EB"/>
<path d="M1343.01 792.531C1342.29 792.531 1341.58 792.174 1341.58 791.462C1341.22 790.75 1341.94 789.681 1342.65 789.681C1382.54 778.995 1390.02 746.582 1390.02 746.225C1390.37 745.513 1391.08 744.801 1391.8 745.157C1392.51 745.513 1393.22 746.225 1392.87 746.938C1392.87 747.294 1390.73 755.843 1383.61 765.816C1377.19 775.077 1364.73 787.188 1343.01 792.887C1343.36 792.531 1343.01 792.531 1343.01 792.531Z" fill="#0077EB"/>
<path d="M1517.16 871.961C1516.09 885.853 1507.54 896.183 1507.54 905.444C1507.54 914.705 1496.86 908.649 1501.84 890.483C1506.83 872.318 1499.35 854.864 1495.43 854.864C1491.52 854.864 1496.86 875.167 1492.58 881.935C1488.31 888.703 1485.11 874.455 1481.54 865.906C1477.63 857.001 1479.76 838.123 1483.32 824.588C1486.89 811.409 1469.79 727.347 1472.28 703.482L1466.23 672.849L1462.67 655.04L1461.96 636.161L1494.37 623.695C1495.43 629.75 1496.86 635.805 1497.93 642.217C1498.64 645.066 1498.99 647.916 1499.71 650.409C1503.98 672.849 1507.9 694.933 1509.68 709.181C1513.95 748.362 1506.83 828.15 1506.83 828.15C1506.83 828.15 1517.87 858.782 1517.16 871.961Z" fill="#F9AF8B"/>
<path d="M1499.35 650.409C1491.87 658.602 1480.48 668.931 1465.87 672.849L1462.31 655.04L1461.6 636.161L1494.01 623.695C1495.08 629.75 1496.5 635.805 1497.57 642.217C1498.28 645.066 1498.99 647.56 1499.35 650.409Z" fill="#FC8664"/>
<path d="M1508.61 632.6C1508.61 632.6 1504.69 637.23 1497.93 642.217C1489.74 648.272 1477.27 655.04 1462.31 655.04C1460.53 603.035 1458.04 559.224 1454.12 546.401C1460.89 554.593 1493.65 595.555 1508.61 632.6Z" fill="#008EFF"/>
<path d="M1439.88 617.64C1445.93 625.476 1454.83 643.642 1458.75 652.19C1459.46 653.259 1459.82 654.328 1460.18 655.04C1460.53 656.109 1460.89 656.465 1460.89 656.465C1461.24 657.177 1461.6 657.533 1462.31 657.533C1462.31 656.821 1462.31 655.752 1462.31 655.04C1462.67 655.04 1463.38 655.04 1463.74 655.04C1463.38 654.684 1463.02 653.259 1462.31 651.834C1461.24 649.697 1460.18 646.848 1458.39 643.998C1453.77 634.737 1447.35 622.27 1442.72 615.859C1442.01 615.146 1441.3 615.146 1440.59 615.503C1439.52 615.859 1439.52 616.927 1439.88 617.64Z" fill="#0077EB"/>
<path d="M1410.67 414.965C1410.67 443.105 1392.87 462.339 1364.37 462.339C1335.53 462.339 1315.58 441.68 1315.58 413.541C1315.58 385.401 1332.68 364.03 1361.17 364.03C1395.71 364.386 1410.67 386.826 1410.67 414.965Z" fill="#2E3052"/>
<path d="M1404.26 427.076C1404.26 427.076 1412.1 416.747 1418.15 425.295C1424.21 433.844 1415.66 459.49 1401.06 453.078L1404.26 427.076Z" fill="#FC8664"/>
<path d="M1404.26 445.242C1404.97 445.242 1405.33 444.886 1405.33 444.53C1407.47 436.693 1416.01 433.488 1416.01 433.488C1416.73 433.131 1417.08 432.419 1416.73 432.063C1416.37 431.35 1415.66 430.994 1415.3 431.35C1414.95 431.35 1405.69 434.912 1403.19 444.173C1402.84 444.53 1403.19 445.242 1404.26 445.242C1403.91 445.242 1404.26 445.242 1404.26 445.242Z" fill="#FD664D"/>
<path d="M1412.81 441.324C1413.16 441.324 1413.16 441.324 1413.52 440.968C1414.23 440.611 1414.23 439.899 1413.88 439.187C1413.88 439.187 1412.45 437.049 1409.25 435.625C1408.54 435.268 1407.82 435.625 1407.47 436.337C1407.11 437.049 1407.47 437.762 1408.18 437.762C1410.67 438.83 1411.74 440.611 1411.74 440.611C1411.74 441.324 1412.1 441.324 1412.81 441.324Z" fill="#FD664D"/>
<path d="M1321.99 427.076C1321.99 427.076 1314.16 416.747 1308.1 425.295C1302.05 433.844 1310.6 459.49 1325.2 453.078L1321.99 427.076Z" fill="#FC8664"/>
<path d="M1321.99 445.242C1321.28 445.242 1320.92 444.886 1320.92 444.53C1318.79 436.693 1310.24 433.488 1310.24 433.488C1309.53 433.131 1309.17 432.419 1309.53 432.063C1309.88 431.35 1310.6 430.994 1310.95 431.35C1311.31 431.35 1320.57 434.912 1323.06 444.173C1323.42 444.53 1323.06 445.242 1321.99 445.242C1322.35 445.242 1321.99 445.242 1321.99 445.242Z" fill="#FD664D"/>
<path d="M1313.45 441.324C1313.09 441.324 1313.09 441.324 1312.73 440.968C1312.02 440.611 1312.02 439.899 1312.38 439.187C1312.38 439.187 1313.8 437.049 1317.01 435.625C1317.72 435.268 1318.43 435.625 1318.79 436.337C1319.14 437.049 1318.79 437.762 1318.08 437.762C1315.58 438.83 1314.51 440.611 1314.51 440.611C1314.51 441.324 1314.16 441.324 1313.45 441.324Z" fill="#FD664D"/>
<path d="M1343.36 474.806V500.096C1343.36 500.096 1351.2 512.919 1361.52 513.987C1371.85 514.7 1381.11 502.945 1381.11 502.945V476.943L1343.36 474.806Z" fill="#F9AF8B"/>
<path d="M1343.36 474.806V485.848C1350.48 493.328 1362.59 495.465 1381.11 492.616V476.231L1343.36 474.806Z" fill="#FC8664"/>
<path d="M1408.54 426.364C1408.18 431.706 1407.47 437.406 1406.4 443.105C1402.84 461.627 1395 480.149 1378.26 485.848C1340.16 499.027 1326.62 467.326 1321.28 448.448C1320.57 446.31 1320.21 444.173 1319.5 441.68C1318.79 437.406 1318.08 432.419 1317.36 427.432C1316.65 421.377 1316.29 415.322 1315.94 409.979C1315.23 398.581 1322.35 388.251 1333.03 384.333C1348.7 378.634 1372.21 373.647 1394.65 386.114C1402.84 390.744 1408.18 399.293 1408.18 408.554C1408.89 413.541 1408.89 419.596 1408.54 426.364Z" fill="#F9AF8B"/>
<path d="M1403.55 427.432C1402.12 429.569 1395 451.297 1393.22 454.147C1388.59 444.529 1366.87 451.653 1366.87 451.653C1365.44 452.009 1364.02 452.366 1362.59 452.366C1361.17 452.366 1359.74 452.009 1358.68 451.653C1358.68 451.653 1336.59 444.886 1332.32 455.215C1330.18 452.366 1324.13 430.994 1323.06 427.432H1317.72C1318.08 432.419 1318.79 437.406 1319.86 441.68C1320.21 444.173 1320.92 446.31 1321.64 448.448C1326.98 466.97 1340.51 499.027 1378.62 485.848C1395.36 479.793 1403.19 461.627 1406.75 443.105C1407.82 437.406 1408.54 431.706 1408.89 426.364L1403.55 427.432ZM1383.25 466.613C1381.47 468.038 1379.69 469.463 1378.26 470.532C1368.65 475.518 1367.58 474.806 1363.66 475.162C1359.74 475.518 1354.4 474.093 1349.06 471.244C1347.28 470.175 1344.79 468.394 1341.94 465.901C1341.94 465.901 1338.02 452.722 1362.95 455.928C1387.88 452.009 1383.61 464.12 1383.25 466.613Z" fill="#2E3052"/>
<path d="M1379.33 430.282C1379.33 433.131 1380.76 435.268 1382.54 435.268C1384.32 435.268 1385.74 433.131 1385.74 430.282C1385.74 427.432 1384.32 425.295 1382.54 425.295C1380.76 425.651 1379.33 427.788 1379.33 430.282Z" fill="#2E3052"/>
<path d="M1341.94 430.282C1341.94 433.131 1343.36 435.268 1345.14 435.268C1346.92 435.268 1348.35 433.131 1348.35 430.282C1348.35 427.432 1346.92 425.295 1345.14 425.295C1343.36 425.295 1341.94 427.788 1341.94 430.282Z" fill="#2E3052"/>
<path d="M1395 416.746C1395 416.746 1382.89 412.115 1373.63 416.034L1374.7 421.02C1374.7 421.02 1388.59 419.952 1395.36 422.801C1395.71 420.664 1396.07 418.527 1395 416.746Z" fill="#2E3052"/>
<path d="M1334.81 416.746C1334.81 416.746 1346.92 412.115 1356.18 416.034L1355.11 421.02C1355.11 421.02 1341.22 419.952 1334.46 422.801C1334.1 420.664 1334.1 418.527 1334.81 416.746Z" fill="#2E3052"/>
<path d="M1362.59 449.516C1360.46 449.516 1358.32 448.804 1358.32 448.448C1357.61 448.092 1357.25 447.379 1357.61 447.023C1357.96 446.311 1358.68 445.954 1359.03 446.311C1360.1 446.667 1362.95 447.379 1364.02 446.667C1364.37 446.667 1364.37 446.311 1364.73 445.598C1365.09 441.324 1364.02 427.432 1364.02 427.076C1364.02 426.364 1364.37 426.008 1365.09 425.651C1365.8 425.651 1366.51 426.008 1366.51 426.72C1366.51 427.432 1367.58 440.968 1367.22 445.598C1367.22 447.379 1366.15 448.092 1365.44 448.448C1364.73 449.16 1363.66 449.516 1362.59 449.516Z" fill="#FC8664"/>
<path d="M1379.33 458.065C1378.26 463.051 1375.06 471.956 1363.66 471.956C1352.27 471.956 1349.42 463.764 1348.35 458.065H1379.33Z" fill="white"/>
<path d="M1317.72 427.432H1323.42C1322.71 422.089 1321.99 412.472 1326.62 411.047C1341.22 406.773 1322.35 396.8 1328.76 391.813C1335.17 386.826 1351.55 388.963 1362.95 388.607C1374.35 388.251 1392.51 388.251 1397.14 389.32C1401.41 390.388 1399.28 397.512 1397.49 403.211C1395.71 408.91 1402.84 414.965 1404.26 420.665C1404.62 422.446 1404.62 424.939 1404.26 427.432H1408.89C1409.6 420.308 1409.6 413.897 1409.25 408.554C1408.89 399.293 1403.91 390.744 1395.71 386.114C1373.28 373.647 1349.77 378.278 1334.1 384.333C1323.42 388.251 1316.29 398.937 1317.01 409.979C1316.65 415.322 1317.01 421.377 1317.72 427.432Z" fill="#2E3052"/>
<path d="M503.226 1042.58H221.163C225.793 1014.44 248.23 993.78 274.584 993.78L362.195 994.136L449.805 993.78C476.16 993.78 498.596 1014.08 503.226 1042.58Z" fill="white"/>
<path d="M258.914 1038.3H243.6V1301.17H258.914V1038.3Z" fill="white"/>
<path d="M481.146 1038.3H465.832V1301.17H481.146V1038.3Z" fill="white"/>
<path d="M465.831 1112.04H258.914V1127H465.831V1112.04Z" fill="#DCEDF9"/>
<path d="M293.103 688.522C293.103 688.522 246.093 751.212 239.682 806.066C235.409 844.891 293.103 902.594 293.103 902.594L313.047 892.621L293.103 847.741C285.981 826.013 277.433 817.464 283.844 795.38L298.089 764.391L293.103 688.522Z" fill="#0077EB"/>
<path d="M441.614 687.81C441.614 687.81 487.912 754.774 491.83 809.628C495.035 857.002 438.409 902.595 438.409 902.595L422.026 894.402L444.819 849.166C451.942 827.438 455.147 814.259 445.532 790.394L433.423 764.392L441.614 687.81Z" fill="#0077EB"/>
<path d="M302.719 831.712L271.379 931.09C271.379 931.09 406.356 948.187 447.668 937.145L426.656 828.862L441.258 687.81C420.958 679.261 399.589 673.918 377.865 672.137C345.812 670 325.868 674.987 293.103 688.522L302.719 831.712Z" fill="#008EFF"/>
<path d="M336.552 718.443C366.468 714.881 394.247 694.578 395.316 693.509C396.028 692.797 396.028 692.084 395.672 691.016C394.959 690.303 394.247 690.303 393.179 690.659C392.823 691.016 360.058 714.881 328.717 715.237C327.649 715.237 326.937 715.949 326.937 717.018C326.937 718.086 327.649 718.799 328.717 718.799C331.566 719.155 334.059 718.799 336.552 718.443Z" fill="#0077EB"/>
<path d="M360.414 1250.6L362.907 1272.68L386.412 1273.04L388.193 1254.87L360.414 1250.6Z" fill="#F9AF8B"/>
<path d="M356.852 902.951C356.852 902.951 296.309 899.745 276.009 916.486C255.709 933.227 259.626 981.314 280.638 994.493C301.651 1007.67 336.909 1033.32 336.909 1033.32L359.345 1258.08L389.261 1259.14C389.261 1259.14 416.684 1033.67 402.795 989.862C388.905 945.694 356.852 902.951 356.852 902.951Z" fill="#001030"/>
<path d="M392.11 1247.75C393.891 1253.09 392.823 1258.08 391.398 1263.06L357.209 1262.35C356.14 1257.36 355.784 1252.38 356.496 1247.39L392.11 1247.75Z" fill="#2E3052"/>
<path d="M442.326 901.17H283.844L269.242 815.683C267.818 808.203 273.516 801.436 281.351 801.436H445.175C452.654 801.436 458.353 808.203 457.284 815.683L442.326 901.17Z" fill="white"/>
<path d="M429.505 920.048H296.665C289.542 920.048 283.844 914.349 283.844 907.225V901.17H442.326V906.869C442.682 913.993 436.628 920.048 429.505 920.048Z" fill="#DCEDF9"/>
<path d="M377.153 854.865C377.153 862.345 371.098 868.756 363.263 868.756C355.784 868.756 349.374 862.701 349.374 854.865C349.374 847.385 355.428 840.973 363.263 840.973C371.098 840.973 377.153 847.385 377.153 854.865Z" fill="#DCEDF9"/>
<path d="M261.407 1188.97L256.421 1210.7L277.433 1214.62L285.981 1195.39L261.407 1188.97Z" fill="#F9AF8B"/>
<path d="M387.481 899.389C387.481 899.389 346.881 885.497 323.375 914.705C299.87 943.913 259.982 1191.11 259.982 1191.11L287.049 1202.51L374.659 983.094C374.659 983.094 445.888 1023.7 454.435 965.997C461.558 920.048 387.481 899.389 387.481 899.389Z" fill="#2E3052"/>
<path d="M293.46 1191.11C293.46 1196.81 290.967 1201.44 287.761 1206.07L254.284 1194.32C254.64 1188.97 256.065 1183.99 258.558 1179.36L293.46 1191.11Z" fill="#524E84"/>
<path d="M272.447 1207.14C272.447 1207.14 259.626 1200.73 256.065 1200.02C252.503 1199.3 221.519 1221.03 212.616 1221.03C196.946 1220.68 191.603 1243.83 200.863 1247.03C226.861 1256.29 274.94 1255.23 274.94 1255.23C274.94 1255.23 285.624 1226.37 285.981 1216.4C285.981 1206.43 279.214 1211.41 272.447 1207.14Z" fill="#008EFF"/>
<path d="M244.668 1227.8C245.025 1228.16 245.737 1228.16 246.093 1227.8C247.161 1227.44 247.518 1226.37 247.161 1225.31C247.161 1224.95 243.956 1217.47 238.614 1213.91C231.847 1209.28 225.437 1212.48 225.081 1212.48C224.012 1212.84 223.656 1214.26 224.368 1214.98C224.725 1216.05 226.149 1216.05 226.861 1215.69C226.861 1215.69 231.491 1213.55 236.121 1216.76C240.395 1219.61 243.244 1226.37 243.244 1226.37C243.956 1227.09 244.312 1227.44 244.668 1227.8Z" fill="white"/>
<path d="M251.079 1223.17C251.435 1223.52 252.147 1223.52 252.503 1223.17C253.572 1222.81 253.928 1221.74 253.572 1220.68C253.572 1220.32 250.367 1212.84 245.025 1209.28C238.258 1204.65 231.847 1207.85 231.491 1207.85C230.423 1208.21 230.067 1209.63 230.779 1210.35C231.135 1211.41 232.56 1211.41 233.272 1211.06C233.272 1211.06 237.902 1208.92 242.532 1212.13C246.805 1214.98 249.654 1221.74 249.654 1221.74C250.367 1222.81 250.723 1223.17 251.079 1223.17Z" fill="white"/>
<path d="M236.477 1231C236.833 1231.36 237.546 1231.36 237.902 1231C238.97 1230.65 239.326 1229.58 238.97 1228.51C238.97 1228.15 235.765 1220.67 230.423 1217.11C223.656 1212.48 217.246 1215.69 216.889 1215.69C215.821 1216.04 215.465 1217.47 216.177 1218.18C216.533 1219.25 217.958 1219.25 218.67 1218.89C218.67 1218.89 223.3 1216.76 227.93 1219.96C232.203 1222.81 235.053 1229.58 235.053 1229.58C235.765 1230.29 236.121 1230.65 236.477 1231Z" fill="white"/>
<path d="M372.167 1271.61C372.167 1271.61 384.988 1267.69 388.905 1267.69C392.467 1267.69 417.753 1293.34 425.944 1294.41C440.902 1296.54 441.614 1319.34 432.71 1320.77C406.712 1325.04 361.482 1316.14 361.482 1316.14C361.482 1316.14 356.14 1287.28 357.565 1278.02C359.346 1268.76 364.688 1274.46 372.167 1271.61Z" fill="#008EFF"/>
<path d="M394.604 1295.48C394.247 1295.48 393.535 1295.48 393.179 1295.12C392.467 1294.76 392.111 1293.34 392.467 1292.63C392.467 1292.27 396.74 1285.86 402.082 1283.37C409.205 1280.16 414.547 1284.08 414.903 1284.43C415.616 1285.15 415.972 1286.21 415.26 1286.93C414.547 1287.64 413.479 1288 412.767 1287.28C412.767 1287.28 408.849 1284.43 403.863 1286.57C399.589 1288.71 395.672 1294.41 395.672 1294.41C395.316 1295.12 394.96 1295.48 394.604 1295.48Z" fill="white"/>
<path d="M389.261 1290.49C388.905 1290.49 388.193 1290.49 387.837 1290.13C387.125 1289.78 386.768 1288.35 387.125 1287.64C387.125 1287.28 391.398 1280.87 396.74 1278.38C403.863 1275.17 409.205 1279.09 409.561 1279.45C410.274 1280.16 410.63 1281.23 409.918 1281.94C409.205 1282.65 408.137 1283.01 407.425 1282.3C407.425 1282.3 403.507 1279.45 398.521 1281.58C394.247 1283.72 390.33 1289.42 390.33 1289.42C390.33 1290.13 389.974 1290.49 389.261 1290.49Z" fill="white"/>
<path d="M401.726 1299.75C401.37 1299.75 400.658 1299.75 400.302 1299.39C399.589 1299.04 399.233 1297.61 399.589 1296.9C399.589 1296.54 403.863 1290.13 409.205 1287.64C416.328 1284.43 421.67 1288.35 422.026 1288.71C422.739 1289.42 423.095 1290.49 422.382 1291.2C421.67 1291.91 420.602 1292.27 419.889 1291.56C419.889 1291.56 415.972 1288.71 410.986 1290.84C406.712 1292.98 402.795 1298.68 402.795 1298.68C402.439 1299.39 402.082 1299.75 401.726 1299.75Z" fill="white"/>
<path d="M407.425 547.113C407.425 547.113 426.656 577.034 424.519 608.022C422.382 639.011 427.368 674.987 399.589 673.206C371.81 671.781 322.307 684.248 306.637 660.027C290.967 635.805 407.425 547.113 407.425 547.113Z" fill="#2E3052"/>
<path d="M414.547 601.611C414.547 601.611 419.533 646.491 398.165 658.958C376.796 671.425 361.482 657.534 361.482 657.534C361.482 657.534 406.356 594.843 414.547 601.611Z" fill="#000B29"/>
<path d="M325.868 601.611C325.868 601.611 318.389 591.281 312.691 599.83C306.993 608.379 315.184 633.312 329.074 627.257L325.868 601.611Z" fill="#FC8664"/>
<path d="M325.868 619.421C325.512 619.421 324.8 619.064 324.8 618.708C322.663 610.872 314.828 608.022 314.472 608.022C313.76 607.666 313.403 606.954 313.76 606.598C314.116 605.885 314.828 605.529 315.184 605.885C315.54 605.885 324.444 609.447 326.937 618.352C326.937 618.352 326.581 619.064 325.868 619.421Z" fill="#FD664D"/>
<path d="M317.677 615.503C317.321 615.503 317.321 615.503 316.965 615.146C316.253 614.79 316.253 614.078 316.609 613.365C316.609 613.365 318.033 611.228 320.882 609.804C321.595 609.447 322.307 609.804 322.307 610.516C322.663 611.228 322.307 611.941 321.595 611.941C319.458 613.009 318.033 614.79 318.033 614.79C318.389 615.147 318.033 615.503 317.677 615.503Z" fill="#FD664D"/>
<path d="M404.575 601.611C404.575 601.611 412.054 591.281 417.753 599.83C423.451 608.379 415.26 633.312 401.37 627.257L404.575 601.611Z" fill="#FC8664"/>
<path d="M404.931 619.421C405.288 619.421 406 619.064 406 618.708C408.137 610.872 415.972 608.022 416.328 608.022C417.04 607.666 417.396 606.954 417.04 606.598C416.684 605.885 415.972 605.529 415.616 605.885C415.259 605.885 406.356 609.447 403.863 618.352C403.507 618.352 403.863 619.064 404.931 619.421C404.575 619.421 404.575 619.421 404.931 619.421Z" fill="#FD664D"/>
<path d="M412.767 615.503C413.123 615.503 413.123 615.503 413.479 615.146C414.191 614.79 414.191 614.078 413.835 613.365C413.835 613.365 412.41 611.228 409.561 609.804C408.849 609.447 408.137 609.804 408.137 610.516C407.781 611.228 408.137 611.941 408.849 611.941C410.986 613.009 412.41 614.79 412.41 614.79C412.054 615.147 412.41 615.503 412.767 615.503Z" fill="#FD664D"/>
<path d="M384.275 648.272V673.206C384.275 673.206 376.796 685.673 366.824 686.741C356.852 687.454 347.949 675.699 347.949 675.699V650.053L384.275 648.272Z" fill="#F9AF8B"/>
<path d="M384.275 648.272V659.314C377.509 666.794 365.756 669.288 347.949 666.794V650.053L384.275 648.272Z" fill="#FC8664"/>
<path d="M410.274 584.514C409.917 594.131 408.849 606.242 407.068 615.859C406.712 618.352 406 620.489 405.644 622.626C400.302 640.792 387.481 672.137 350.798 659.314C334.772 653.615 327.293 635.449 323.731 617.284C321.595 604.817 321.238 592.35 321.238 583.445C321.238 574.184 326.581 565.992 334.416 561.361C356.14 549.251 378.577 553.525 393.891 559.58C404.219 563.142 410.63 573.472 410.274 584.514Z" fill="#F9AF8B"/>
<path d="M349.017 605.173C349.017 607.666 347.593 609.803 345.812 609.803C344.031 609.803 342.607 607.666 342.607 605.173C342.607 602.68 344.031 600.542 345.812 600.542C347.949 600.542 349.017 602.68 349.017 605.173Z" fill="#2E3052"/>
<path d="M386.768 605.173C386.768 607.666 385.344 609.803 383.563 609.803C381.782 609.803 380.358 607.666 380.358 605.173C380.358 602.68 381.782 600.542 383.563 600.542C385.344 600.542 386.768 602.68 386.768 605.173Z" fill="#2E3052"/>
<path d="M340.114 589.5C342.607 588.788 347.593 587.719 353.291 587.719C354.716 587.719 355.784 589.144 355.428 590.213C355.072 591.281 354.36 591.994 352.935 591.994C349.374 591.994 339.758 592.35 335.128 594.131C335.128 593.418 335.484 592.35 336.196 591.637C337.265 590.569 338.689 589.856 340.114 589.5Z" fill="#2E3052"/>
<path d="M389.261 589.5C386.768 588.788 381.782 587.719 376.084 587.719C374.66 587.719 373.591 589.144 373.947 590.213C374.303 591.281 375.016 591.994 376.44 591.994C380.002 591.994 389.617 592.35 394.247 594.131C394.247 593.418 393.891 592.35 393.179 591.637C392.11 590.569 390.686 589.856 389.261 589.5Z" fill="#2E3052"/>
<path d="M365.756 624.764C364.688 624.764 363.975 624.764 363.263 624.052C362.551 623.695 361.838 622.983 361.482 621.202C361.126 616.928 362.195 603.392 362.195 602.68C362.195 601.968 362.907 601.611 363.619 601.611C364.331 601.611 364.688 602.324 364.688 603.036C364.688 603.036 363.619 616.928 363.975 621.202C363.975 621.914 364.331 622.271 364.688 622.271C365.756 622.983 368.249 622.271 369.317 621.914C370.03 621.558 370.742 621.914 370.742 622.627C371.098 623.339 370.742 624.052 370.03 624.052C369.674 624.052 367.537 624.764 365.756 624.764Z" fill="#FC8664"/>
<path d="M350.798 632.244C351.867 636.874 354.716 645.067 364.688 645.067C374.66 645.067 377.509 637.587 378.577 632.244H350.798Z" fill="white"/>
<path d="M364.332 651.834C361.482 651.834 358.989 650.41 358.633 650.054C357.921 649.697 357.921 648.985 358.277 648.273C358.633 647.56 359.346 647.56 360.058 647.916C360.058 647.916 362.195 649.341 364.332 649.341C366.825 649.341 368.961 647.916 368.961 647.916C369.674 647.56 370.386 647.916 370.742 648.273C371.098 648.985 370.742 649.697 370.386 650.054C370.03 650.41 367.537 651.834 364.332 651.834Z" fill="#FC8664"/>
<path d="M414.903 582.733C414.547 583.801 413.479 584.514 412.054 584.87C412.054 587.363 412.054 590.569 411.698 593.419C410.274 610.516 406 613.365 404.932 609.091C404.219 606.241 404.219 590.213 404.575 584.87C401.37 584.514 398.165 584.157 398.165 584.157L394.247 567.773L392.823 584.157C386.768 586.295 373.235 583.089 373.235 583.089L368.605 566.704L365.756 582.376C356.853 586.651 345.812 583.801 345.812 583.801L343.319 567.06L337.265 583.801C337.265 583.801 318.389 590.569 318.033 583.801C318.033 579.883 320.882 568.841 323.375 559.936C325.868 550.675 332.279 542.483 340.47 538.208C363.975 525.742 388.905 532.153 397.453 537.496C415.616 548.182 414.903 582.733 414.903 582.733Z" fill="#2E3052"/>
<path d="M328.717 548.182C328.717 548.182 313.047 566.704 308.061 599.83C303.075 632.956 295.953 657.534 315.896 668.576C337.621 680.33 335.484 656.109 335.484 649.697C335.128 642.93 316.609 625.12 329.074 574.184C332.635 557.443 328.717 548.182 328.717 548.182Z" fill="#2E3052"/>
<path d="M325.156 616.571C325.156 616.571 325.156 616.927 325.156 616.571C325.156 616.927 325.156 618.352 325.156 620.133C325.156 621.558 325.156 622.983 325.512 624.764C326.225 635.806 328.361 655.396 334.772 661.808C337.265 664.301 342.251 665.726 347.949 666.438V657.534C341.895 654.684 337.265 650.053 333.703 644.354C331.567 639.368 327.649 631.888 325.868 619.777L325.156 616.571Z" fill="#000B29"/>
<path d="M410.63 627.613C410.63 629.038 409.561 630.463 407.781 630.463C406.356 630.463 404.931 629.394 404.931 627.613C404.931 626.188 406 624.764 407.781 624.764C409.205 624.764 410.63 626.188 410.63 627.613Z" fill="white"/>
<path d="M1242.22 390.032H1174.55C1169.21 390.032 1165.29 385.758 1165.29 380.771V313.094C1165.29 307.751 1169.56 303.833 1174.55 303.833H1242.22C1247.56 303.833 1251.48 308.107 1251.48 313.094V380.771C1251.48 385.758 1247.2 390.032 1242.22 390.032Z" fill="#FFAA01"/>
<path d="M1237.59 346.576C1237.59 353.7 1235.09 360.111 1230.82 365.454C1225.48 371.866 1217.29 376.14 1208.03 376.14C1198.77 376.14 1190.58 371.866 1185.24 365.454C1180.96 360.468 1178.47 353.7 1178.47 346.576C1178.47 330.191 1191.65 317.012 1208.03 317.012C1224.41 317.012 1237.59 330.191 1237.59 346.576Z" fill="#FDCC50"/>
<path d="M1230.82 365.454C1225.48 371.866 1217.29 376.14 1208.03 376.14C1198.77 376.14 1190.58 371.866 1185.24 365.454L1185.59 364.742C1186.3 363.317 1187.02 362.249 1188.08 361.536C1189.15 360.468 1190.22 360.112 1191.65 359.399C1196.28 357.974 1200.91 356.55 1203.4 352.275C1200.19 350.851 1198.41 348.001 1197.34 345.864C1194.14 346.576 1191.65 340.521 1193.43 338.74C1194.14 338.028 1194.85 338.028 1195.56 338.028C1196.28 331.616 1201.26 326.273 1207.67 326.273C1214.08 326.273 1219.42 331.972 1219.78 338.028C1220.49 338.028 1221.21 338.028 1221.92 338.74C1223.7 340.521 1221.21 346.576 1218 345.864C1217.29 348.001 1214.79 350.851 1212.66 351.919C1215.15 356.193 1219.07 357.974 1224.05 359.399C1225.48 359.755 1226.55 360.468 1227.62 361.536C1228.68 362.605 1229.4 363.674 1230.11 364.742L1230.82 365.454Z" fill="white"/>
<path d="M117.882 849.878H50.2158C44.8737 849.878 40.9561 845.604 40.9561 840.617V772.94C40.9561 767.597 45.2298 763.679 50.2158 763.679H117.882C123.225 763.679 127.142 767.954 127.142 772.94V840.617C127.498 845.604 123.225 849.878 117.882 849.878Z" fill="#FFAA01"/>
<path d="M85.4737 777.927C74.4333 777.215 65.1737 786.119 65.1737 796.805C65.1737 800.367 66.2421 803.573 67.6666 806.422C70.1596 810.697 72.6526 814.971 75.1456 819.245L84.0491 835.274L97.5824 810.697C98.2947 809.272 99.3631 807.847 100.075 806.422C101.856 803.573 102.925 800.011 102.568 796.449C102.925 786.832 95.0894 778.639 85.4737 777.927ZM84.0491 802.504C79.7754 802.504 76.214 798.942 76.214 794.668C76.214 790.394 79.7754 786.832 84.0491 786.832C88.3228 786.832 91.8842 790.394 91.8842 794.668C92.2403 798.942 88.6789 802.504 84.0491 802.504Z" fill="white"/>
<path d="M1539.59 418.527C1550.28 418.527 1558.83 427.076 1558.83 437.762C1558.83 448.448 1550.28 456.996 1539.59 456.996C1528.91 456.996 1520.36 448.448 1520.36 437.762C1520.36 427.076 1528.91 418.527 1539.59 418.527ZM1539.59 450.941C1547.07 450.941 1552.77 444.886 1552.77 437.762C1552.77 430.638 1546.72 424.583 1539.59 424.583C1532.12 424.583 1526.42 430.638 1526.42 437.762C1526.42 444.886 1532.12 450.941 1539.59 450.941Z" fill="#008EFF"/>
<path d="M1470.15 350.495C1480.83 350.495 1489.38 359.043 1489.38 369.729C1489.38 380.415 1480.83 388.964 1470.15 388.964C1459.46 388.964 1450.92 380.415 1450.92 369.729C1450.56 359.399 1459.46 350.495 1470.15 350.495ZM1470.15 383.264C1477.63 383.264 1483.32 377.209 1483.32 370.085C1483.32 362.605 1477.27 356.906 1470.15 356.906C1462.67 356.906 1456.97 362.961 1456.97 370.085C1456.61 377.209 1462.67 383.264 1470.15 383.264Z" fill="#FFAA01"/>
<path d="M1446.29 287.804C1448.07 287.804 1449.49 289.229 1449.49 291.01V304.545C1449.49 306.326 1448.07 307.751 1446.29 307.751C1444.51 307.751 1443.08 306.326 1443.08 304.545V291.01C1443.08 289.229 1444.51 287.804 1446.29 287.804Z" fill="#008EFF"/>
<path d="M1446.29 264.652C1448.07 264.652 1449.49 266.077 1449.49 267.858V281.393C1449.49 283.174 1448.07 284.599 1446.29 284.599C1444.51 284.599 1443.08 283.174 1443.08 281.393V267.858C1443.08 265.72 1444.51 264.652 1446.29 264.652Z" fill="#008EFF"/>
<path d="M1427.41 282.818H1439.52C1441.3 282.818 1442.72 284.243 1442.72 286.024C1442.72 287.805 1441.3 289.229 1439.52 289.229H1427.41C1425.63 289.229 1424.21 287.805 1424.21 286.024C1424.21 284.243 1425.63 282.818 1427.41 282.818Z" fill="#008EFF"/>
<path d="M1453.05 282.818H1465.16C1466.94 282.818 1468.37 284.243 1468.37 286.024C1468.37 287.805 1466.94 289.229 1465.16 289.229H1453.05C1451.27 289.229 1449.85 287.805 1449.85 286.024C1449.85 284.243 1451.27 282.818 1453.05 282.818Z" fill="#008EFF"/>
<path d="M1552.77 362.605C1554.55 362.605 1555.98 364.03 1555.98 365.811V379.346C1555.98 381.127 1554.55 382.552 1552.77 382.552C1550.99 382.552 1549.57 381.127 1549.57 379.346V365.811C1549.57 364.03 1550.99 362.605 1552.77 362.605Z" fill="#FFAA01"/>
<path d="M1552.77 339.452C1554.55 339.452 1555.98 340.877 1555.98 342.658V356.193C1555.98 357.974 1554.55 359.399 1552.77 359.399C1550.99 359.399 1549.57 357.974 1549.57 356.193V342.658C1549.57 340.877 1550.99 339.452 1552.77 339.452Z" fill="#FFAA01"/>
<path d="M1533.9 357.618H1546.01C1547.79 357.618 1549.21 359.043 1549.21 360.824C1549.21 362.605 1547.79 364.03 1546.01 364.03H1533.9C1532.12 364.03 1530.69 362.605 1530.69 360.824C1531.05 359.043 1532.47 357.618 1533.9 357.618Z" fill="#FFAA01"/>
<path d="M1559.54 357.618H1571.65C1573.43 357.618 1574.85 359.043 1574.85 360.824C1574.85 362.605 1573.43 364.03 1571.65 364.03H1559.54C1557.76 364.03 1556.33 362.605 1556.33 360.824C1556.33 359.043 1557.76 357.618 1559.54 357.618Z" fill="#FFAA01"/>
<path d="M343.675 171.685C354.36 171.685 362.907 180.234 362.907 190.919C362.907 201.605 354.36 210.154 343.675 210.154C332.991 210.154 324.444 201.605 324.444 190.919C324.088 180.59 332.991 171.685 343.675 171.685ZM343.675 177.74C336.197 177.74 330.498 183.796 330.498 190.919C330.498 198.4 336.553 204.099 343.675 204.099C351.154 204.099 356.853 198.043 356.853 190.919C356.853 183.796 350.798 177.74 343.675 177.74Z" fill="#008EFF"/>
<path d="M273.16 107.927C283.844 107.927 292.391 116.475 292.391 127.161C292.391 137.847 283.844 146.396 273.16 146.396C262.475 146.396 253.928 137.847 253.928 127.161C253.928 116.475 262.475 107.927 273.16 107.927ZM273.16 113.982C265.681 113.982 259.982 120.037 259.982 127.161C259.982 134.641 266.037 140.34 273.16 140.34C280.639 140.34 286.337 134.285 286.337 127.161C286.337 120.037 280.639 113.982 273.16 113.982Z" fill="#FFAA01"/>
<path d="M247.874 218.347C247.874 220.128 249.298 221.553 251.079 221.553H264.612C266.393 221.553 267.817 220.128 267.817 218.347C267.817 216.566 266.393 215.141 264.612 215.141H251.079C248.942 215.497 247.874 216.566 247.874 218.347Z" fill="#008EFF"/>
<path d="M224.368 218.347C224.368 220.128 225.793 221.553 227.574 221.553H241.107C242.888 221.553 244.312 220.128 244.312 218.347C244.312 216.566 242.888 215.141 241.107 215.141H227.574C225.793 215.497 224.368 216.566 224.368 218.347Z" fill="#008EFF"/>
<path d="M242.888 199.468V211.579C242.888 213.36 244.312 214.785 246.093 214.785C247.874 214.785 249.298 213.36 249.298 211.579V199.468C249.298 197.687 247.874 196.263 246.093 196.263C244.312 196.263 242.888 198.044 242.888 199.468Z" fill="#008EFF"/>
<path d="M242.888 225.114V237.225C242.888 239.006 244.312 240.431 246.093 240.431C247.874 240.431 249.298 239.006 249.298 237.225V225.114C249.298 223.333 247.874 221.908 246.093 221.908C244.312 221.908 242.888 223.333 242.888 225.114Z" fill="#008EFF"/>
<path d="M389.262 113.982C389.262 115.763 390.686 117.188 392.467 117.188H406C407.781 117.188 409.205 115.763 409.205 113.982C409.205 112.201 407.781 110.776 406 110.776H392.467C390.686 111.133 389.262 112.201 389.262 113.982Z" fill="#FFAA01"/>
<path d="M365.756 113.982C365.756 115.763 367.181 117.188 368.961 117.188H382.495C384.276 117.188 385.7 115.763 385.7 113.982C385.7 112.201 384.276 110.776 382.495 110.776H368.961C367.181 111.133 365.756 112.201 365.756 113.982Z" fill="#FFAA01"/>
<path d="M384.275 95.1037V107.214C384.275 108.995 385.7 110.42 387.481 110.42C389.261 110.42 390.686 108.995 390.686 107.214V95.1037C390.686 93.3227 389.261 91.8979 387.481 91.8979C385.7 92.2541 384.275 93.6789 384.275 95.1037Z" fill="#FFAA01"/>
<path d="M384.275 120.749V132.86C384.275 134.641 385.7 136.066 387.481 136.066C389.261 136.066 390.686 134.641 390.686 132.86V120.749C390.686 118.968 389.261 117.544 387.481 117.544C385.7 117.9 384.275 118.968 384.275 120.749Z" fill="#FFAA01"/>
<path d="M1194.49 207.305C1194.85 207.305 1195.21 207.305 1195.92 207.305C1200.55 206.236 1203.04 205.88 1203.04 205.88C1204.47 205.524 1205.18 204.455 1205.18 203.03C1204.82 201.606 1203.75 200.893 1202.33 201.249C1202.33 201.249 1199.48 201.606 1194.85 203.03C1193.43 203.387 1192.71 204.811 1193.07 205.88C1192.71 206.592 1193.43 206.949 1194.49 207.305Z" fill="#DCEDF9"/>
<path d="M1045.98 317.369C1043.49 321.287 1041.35 325.561 1039.22 329.835C1038.86 330.904 1037.44 331.26 1036.37 331.26H1036.01C1034.59 330.548 1034.23 329.123 1034.94 328.054C1037.08 323.78 1039.57 319.506 1042.07 315.231C1042.78 314.163 1044.2 313.807 1045.63 314.163C1046.34 314.519 1046.7 315.944 1045.98 317.369Z" fill="#DCEDF9"/>
<path d="M1033.16 342.658C1031.38 346.933 1029.6 351.563 1027.82 355.837C1027.46 356.906 1026.04 357.618 1024.62 357.262C1024.62 357.262 1024.62 357.262 1024.26 357.262C1022.83 356.906 1022.12 355.481 1022.83 354.056C1024.62 349.426 1026.4 344.795 1028.18 340.521C1028.53 339.453 1030.31 338.74 1031.38 339.096C1033.16 340.165 1033.88 341.59 1033.16 342.658Z" fill="#DCEDF9"/>
<path d="M1011.44 412.828C1010.37 412.472 1009.3 411.403 1009.66 410.335C1010.37 405.704 1011.08 400.718 1011.79 396.087C1012.15 394.662 1013.22 393.95 1014.64 394.306C1016.07 394.662 1017.14 395.731 1016.78 397.156C1016.07 401.786 1015 406.417 1014.64 411.047C1014.64 412.116 1013.22 413.184 1011.44 412.828C1011.79 412.828 1011.79 412.828 1011.44 412.828Z" fill="#DCEDF9"/>
<path d="M1021.77 366.524C1023.19 366.88 1023.9 368.305 1023.55 369.373C1022.83 371.51 1022.48 373.647 1021.77 375.785C1021.05 378.278 1020.34 380.771 1019.99 383.265C1019.63 384.689 1018.21 385.402 1016.78 385.046C1015.36 384.689 1014.64 383.621 1015 382.196C1015.71 379.703 1016.07 377.209 1016.78 374.716C1017.49 372.579 1017.85 370.442 1018.56 368.305C1018.92 366.88 1020.34 366.167 1021.77 366.524Z" fill="#DCEDF9"/>
<path d="M1053.82 304.902C1053.11 305.971 1052.04 306.327 1050.97 305.971C1050.61 305.971 1050.61 305.971 1050.26 305.614C1049.19 304.902 1048.83 303.477 1049.55 302.409C1052.39 298.491 1055.24 294.216 1058.09 290.654C1058.81 289.586 1060.59 289.23 1061.65 289.942C1062.72 290.654 1063.08 292.079 1062.37 293.148C1059.16 297.066 1056.31 300.984 1053.82 304.902Z" fill="#DCEDF9"/>
<path d="M1181.32 211.223C1176.69 212.648 1172.06 214.429 1167.43 216.21C1167.07 216.566 1166.36 216.566 1166 216.21C1165.29 215.853 1164.58 215.497 1164.22 214.785C1163.51 213.716 1164.22 212.292 1165.65 211.579C1170.28 209.798 1175.26 208.017 1179.89 206.592C1181.32 206.236 1182.74 206.949 1183.1 208.017C1183.45 209.442 1182.74 210.867 1181.32 211.223Z" fill="#DCEDF9"/>
<path d="M1140.36 228.676C1139.65 229.033 1138.94 229.033 1138.58 229.033C1137.87 229.033 1137.16 228.32 1136.8 227.964C1136.09 226.895 1136.44 225.471 1137.87 224.758C1142.14 222.265 1146.77 220.128 1151.4 217.991C1152.83 217.278 1154.25 217.991 1154.96 219.059C1155.68 220.128 1154.96 221.553 1153.89 222.265C1149.26 224.046 1144.64 226.183 1140.36 228.676Z" fill="#DCEDF9"/>
<path d="M1091.93 261.802C1091.21 262.514 1090.5 262.514 1089.43 262.514C1089.08 262.514 1088.72 262.158 1088.36 261.802C1087.3 260.734 1087.3 259.309 1088.36 258.24C1091.93 255.034 1095.84 251.829 1099.76 248.623C1100.83 247.911 1102.61 247.911 1103.32 248.979C1104.39 250.048 1104.04 251.473 1102.97 252.185C1099.41 255.391 1095.49 258.596 1091.93 261.802Z" fill="#DCEDF9"/>
<path d="M1115.08 243.636C1114.36 243.992 1113.65 244.349 1112.94 243.992C1112.23 243.992 1111.87 243.636 1111.51 242.924C1110.8 241.855 1110.8 240.431 1112.23 239.718C1116.5 236.869 1120.42 234.019 1125.05 231.526C1126.12 230.813 1127.9 231.169 1128.61 232.238C1129.32 233.307 1128.96 234.731 1127.9 235.444C1123.27 238.293 1118.99 241.143 1115.08 243.636Z" fill="#DCEDF9"/>
<path d="M1071.27 282.105C1070.56 282.818 1069.49 283.174 1068.78 282.818C1068.42 282.818 1068.06 282.462 1067.71 282.462C1066.64 281.749 1066.64 279.968 1067.35 279.256C1070.56 275.694 1074.12 271.776 1077.32 268.57C1078.39 267.501 1079.82 267.501 1080.89 268.57C1081.95 269.639 1081.95 271.063 1080.89 272.132C1077.68 274.981 1074.48 278.543 1071.27 282.105Z" fill="#DCEDF9"/>
<path d="M1196.99 190.92L1192 151.026L1327.33 170.617L1196.99 190.92Z" fill="#008EFF"/>
<path d="M1327.33 170.617L1202.33 201.25H1201.97L1195.56 208.373L1196.99 190.92L1327.33 170.617Z" fill="#0077EB"/>
<path d="M1195.56 208.374H1206.96L1201.97 201.25L1195.56 208.374Z" fill="#0059D3"/>
<path d="M1217.64 197.331L1201.97 201.25L1227.62 237.938L1327.33 170.617L1217.64 197.331Z" fill="#008EFF"/>
</g>
<defs>
<clipPath id="clip0">
<rect width="1624" height="1340" fill="white"/>
</clipPath>
</defs>
</svg>
