<svg width="1383" height="1150" viewBox="0 0 1383 1150" fill="none" xmlns="http://www.w3.org/2000/svg">
<path d="M691.5 1134.41C1073.4 1134.41 1383 1116.28 1383 1093.93C1383 1071.57 1073.4 1053.45 691.5 1053.45C309.595 1053.45 0 1071.57 0 1093.93C0 1116.28 309.595 1134.41 691.5 1134.41Z" fill="#F5F5F5"/>
<path d="M961.394 171.87L956.083 234.579C948.115 240.883 938.156 244.533 927.201 244.533C916.246 244.533 906.287 240.883 898.319 234.911L893.008 171.87H961.394Z" fill="#C74D22"/>
<path d="M927.201 177.842V242.874L949.775 236.57L954.755 177.842H927.201Z" fill="#D56525"/>
<path d="M905.955 185.805L908.278 212.017H937.492L936.496 222.966L927.201 225.288L917.574 222.634V215.998H908.61L909.606 229.27L927.201 234.247L945.127 229.27L947.119 203.39H916.246L915.582 194.763H947.783L948.779 185.805H905.955Z" fill="white"/>
<path d="M907.946 152.957V157.602H903.631V152.957H899.647V165.897H903.631V161.584H907.946V165.897H911.93V152.957H907.946Z" fill="black"/>
<path d="M925.873 152.957H913.59V157.602H917.574V165.897H921.889V157.602H925.873V152.957Z" fill="black"/>
<path d="M948.779 161.916V152.957H944.464V161.916V165.897H948.779H955.087V161.916H948.779Z" fill="black"/>
<path d="M938.156 152.957L935.168 157.602L932.18 152.957H927.865V165.897H932.18V159.593L935.168 164.238L938.156 159.593V165.897H942.472V152.957H938.156Z" fill="black"/>
<path d="M841.884 44.7923L836.904 101.197C829.601 106.838 820.638 110.156 811.01 110.156C801.383 110.156 792.088 106.838 785.116 101.197L780.137 44.7923H841.884Z" fill="#3C6BBB"/>
<path d="M811.01 50.1009V108.829L831.261 102.856L835.908 50.1009H811.01Z" fill="#5494D8"/>
<path d="M828.937 72.9948H814.33L829.601 65.0317L830.265 57.4004H791.756L792.42 65.3635H808.023L793.084 72.663L793.748 80.9579H820.306L819.31 90.5799L811.01 92.9025L802.379 90.5799L802.047 84.2758H794.08L795.076 96.2204L811.01 100.866L826.945 96.2204L828.937 72.9948Z" fill="white"/>
<path d="M796.072 36.1656V30.5251H804.039V27.5389H793.084V39.1517H804.039V36.1656H796.072Z" fill="#272628"/>
<path d="M808.687 31.8523V30.5251H816.654V27.5389H805.699V34.5066H813.666V36.1656H805.699V39.1517H816.654V36.1656V31.8523H808.687Z" fill="#272628"/>
<path d="M820.97 31.8523V30.5251H828.937V27.5389H818.314V34.5066H825.949V36.1656H818.314V39.1517H828.937V36.1656V31.8523H820.97Z" fill="#272628"/>
<path d="M675.233 9.62203H618.134V66.6907H675.233V9.62203Z" fill="black"/>
<path d="M683.201 0.663589C682.869 0.331795 682.205 0 681.873 0H610.83C610.167 0 609.835 0.331795 609.503 0.663589C609.171 0.995384 608.839 1.65897 609.171 1.99077L615.478 73.6584C615.478 74.322 616.142 74.9856 616.806 75.3174L646.02 83.6122H646.352H646.684L675.897 75.3174C676.561 74.9856 677.225 74.322 677.225 73.6584L683.532 1.99077C683.532 1.32718 683.533 0.995384 683.201 0.663589ZM622.449 49.1056L635.064 52.7553V16.2579H642.368V63.3728L622.449 57.7323V49.1056ZM669.922 36.1656L667.93 58.3958L649.671 63.3728V55.0779L661.954 51.76L662.286 44.7923L649.671 47.1148V16.2579H671.581L670.918 23.5574H656.975V38.1564L669.922 36.1656Z" fill="#F7DF1E"/>
<path d="M428.577 335.444C401.687 335.444 380.441 326.154 380.441 314.541C380.441 302.928 401.687 293.638 428.577 293.638C455.467 293.638 476.713 302.928 476.713 314.541C476.713 326.154 455.467 335.444 428.577 335.444ZM428.577 297.62C402.351 297.62 384.757 306.246 384.757 314.209C384.757 322.173 402.351 330.799 428.577 330.799C454.803 330.799 472.398 322.173 472.398 314.209C472.398 306.246 454.803 297.62 428.577 297.62Z" fill="#A0DCE8"/>
<path d="M409.987 357.343C407.995 357.343 406.335 357.011 404.675 356.016C394.384 350.043 397.04 327.481 410.651 303.924C416.958 292.975 424.594 284.016 432.229 278.044C440.528 271.74 447.832 269.749 452.811 272.735C458.123 275.721 459.783 283.021 458.787 293.306C457.459 302.928 453.475 314.209 447.168 325.159C440.86 336.108 433.225 345.066 425.589 351.039C419.614 355.02 414.302 357.343 409.987 357.343ZM447.168 275.721C443.848 275.721 439.532 277.712 434.553 281.362C427.581 287.002 420.278 295.629 413.97 306.246C400.692 329.14 399.696 348.716 406.335 352.698C409.987 354.688 415.63 353.029 422.27 348.053C429.241 342.412 436.545 333.785 442.852 323.168C448.828 312.882 452.811 301.933 454.139 292.975C455.135 284.68 453.807 278.707 450.487 276.717C449.492 276.053 448.496 275.721 447.168 275.721Z" fill="#A0DCE8"/>
<path d="M447.5 357.343C437.209 357.343 421.938 344.735 410.651 324.827C397.04 301.601 394.384 278.708 404.675 272.735C414.966 266.763 433.225 280.366 446.836 303.924C453.143 314.873 457.127 326.154 458.455 335.776C459.783 346.062 457.791 353.029 452.479 356.347C450.819 357.011 449.16 357.343 447.5 357.343ZM406.667 276.385C399.696 280.366 401.024 299.942 414.302 322.836C427.581 345.73 443.848 356.347 450.487 352.366C454.139 350.375 455.135 344.403 454.139 336.108C452.811 327.15 448.828 316.532 442.852 305.915C429.905 283.353 413.638 272.403 406.667 276.385Z" fill="#A0DCE8"/>
<path d="M428.577 322.836C433.161 322.836 436.877 319.122 436.877 314.541C436.877 309.96 433.161 306.246 428.577 306.246C423.994 306.246 420.278 309.96 420.278 314.541C420.278 319.122 423.994 322.836 428.577 322.836Z" fill="#A0DCE8"/>
<path d="M463.766 141.676L447.5 150.635C446.836 150.966 446.504 151.63 446.504 152.294V170.211C446.504 170.874 446.836 171.538 447.5 171.87L463.766 180.828C464.43 181.16 465.094 181.16 465.758 180.828L482.025 171.87C482.689 171.538 483.021 170.874 483.021 170.211V152.294C483.021 151.63 482.689 150.966 482.025 150.635L465.758 141.676C465.426 141.344 465.094 141.344 464.762 141.344C464.43 141.344 464.098 141.344 463.766 141.676ZM547.424 157.934L544.768 159.593C544.768 159.593 544.768 159.593 544.768 159.925V162.579V162.911L547.424 164.57H547.756L550.411 162.911C550.411 162.911 550.411 162.911 550.411 162.579V159.593C550.411 159.593 550.411 159.261 550.079 159.261L547.424 157.934C547.756 157.934 547.756 157.934 547.424 157.934C547.756 157.934 547.424 157.934 547.424 157.934Z" fill="#5C8C44"/>
<path d="M525.181 122.432L517.214 118.119C516.882 118.119 516.55 118.119 516.55 118.119C516.218 118.119 516.218 118.451 516.218 118.782V145.658L508.915 141.676C508.583 141.345 508.251 141.345 507.919 141.345C507.587 141.345 507.255 141.345 506.923 141.676L490.656 150.635C489.992 150.967 489.66 151.63 489.66 152.294V170.211C489.66 170.874 489.992 171.538 490.656 171.87L506.923 180.828C507.587 181.16 508.251 181.16 508.915 180.828L525.181 171.87C525.845 171.538 526.177 170.874 526.177 170.211V124.091C526.177 123.428 525.845 122.764 525.181 122.432ZM515.554 165.897L508.251 169.879C507.919 169.879 507.587 169.879 507.255 169.879L499.952 165.897C499.62 165.897 499.62 165.566 499.62 165.234V156.939C499.62 156.607 499.952 156.275 499.952 156.275L507.255 152.294H507.587H507.919L515.222 156.275C515.554 156.275 515.554 156.607 515.554 156.939V165.234C516.218 165.566 515.886 165.897 515.554 165.897Z" fill="#3E4950"/>
<path d="M463.766 141.676L446.504 170.211C446.504 170.874 446.836 171.538 447.5 171.87L463.766 180.828C464.43 181.16 465.094 181.16 465.758 180.828L483.021 152.294C483.021 151.63 482.689 150.966 482.025 150.635L465.758 141.676C465.426 141.344 465.094 141.344 464.762 141.344C464.43 141.344 464.098 141.344 463.766 141.676Z" fill="#507C3A"/>
<path d="M463.766 141.676L447.5 150.635C446.836 150.966 446.504 151.63 446.504 152.294L463.766 180.828C464.43 181.16 465.094 181.16 465.758 180.828L482.025 171.87C482.689 171.538 483.021 170.874 483.021 170.211L465.758 141.676C465.426 141.344 465.094 141.344 464.762 141.344C464.43 141.344 464.098 141.344 463.766 141.676Z" fill="#73AC57"/>
<path d="M565.018 150.635L548.752 141.676C548.42 141.344 548.088 141.344 547.756 141.344C547.424 141.344 547.092 141.344 546.76 141.676L530.493 150.635C529.829 150.966 529.497 151.63 529.497 152.294V170.211C529.497 170.874 529.829 171.538 530.493 171.87L546.76 180.828C547.424 181.16 548.088 181.16 548.752 180.828L556.387 176.515C557.051 176.183 557.051 175.187 556.387 174.856L540.12 165.897C539.788 165.897 539.788 165.565 539.788 165.234V156.939C539.788 156.607 539.788 156.275 540.12 156.275L547.424 152.294H547.756H548.088L555.391 156.275C555.723 156.275 555.723 156.607 555.723 156.939V163.575C555.723 163.906 555.723 164.238 556.055 164.238C556.387 164.238 556.719 164.238 556.719 164.238L564.686 159.593C565.018 159.261 565.35 158.93 565.35 158.266V151.962C566.014 151.63 565.682 150.966 565.018 150.635ZM442.188 150.635L425.922 141.676C425.59 141.344 425.258 141.344 424.926 141.344C424.594 141.344 424.262 141.344 423.93 141.676L407.663 150.635C406.999 150.966 406.667 151.63 406.667 152.294V177.178C406.667 177.51 406.667 177.842 406.999 177.842C407.331 177.842 407.663 177.842 407.663 177.842L415.63 173.197C415.962 172.865 416.294 172.533 416.294 171.87V157.271C416.294 156.939 416.626 156.607 416.626 156.607L423.93 152.625H424.262H424.594L431.897 156.607C432.229 156.607 432.229 156.939 432.229 157.271V171.87C432.229 172.533 432.561 172.865 432.893 173.197L440.86 177.842C441.192 177.842 441.524 177.842 441.524 177.842C441.856 177.842 441.856 177.51 441.856 177.178V152.294C443.184 151.63 442.852 150.966 442.188 150.635Z" fill="#3E4950"/>
<path d="M931.849 427.683L957.078 380.237C957.742 379.241 959.07 379.241 959.402 380.237L968.034 397.822L931.849 427.683Z" fill="#E58D21"/>
<path d="M931.849 427.683L941.144 370.614C941.476 369.287 943.468 368.955 944.132 370.283L962.058 404.458L931.849 427.683Z" fill="#E79E25"/>
<path d="M931.849 427.683L932.18 427.351L961.394 403.462L953.095 387.536L931.849 427.683Z" fill="#E06F1A"/>
<path d="M931.849 427.683L976.333 384.882C977.329 383.886 978.657 384.55 978.989 385.877L985.296 427.683L960.398 442.282C959.402 442.946 958.074 442.946 957.078 442.282L931.849 427.683Z" fill="#EFC22E"/>
<path d="M661.954 1059.09H636.061L635.065 1000.03H660.626L661.954 1059.09Z" fill="#B55B52"/>
<path d="M815.658 1059.09H789.764L778.477 1000.03H804.039L815.658 1059.09Z" fill="#B55B52"/>
<path d="M788.104 1056.1H816.986C817.982 1056.1 818.978 1056.77 818.978 1057.76L823.625 1080.65C823.957 1082.98 822.297 1085.3 819.642 1085.3C809.682 1084.97 804.703 1084.64 792.088 1084.64C784.452 1084.64 768.186 1085.3 757.563 1085.3C746.94 1085.3 745.612 1074.68 750.259 1073.69C770.178 1069.37 777.813 1063.4 784.12 1057.76C785.116 1056.77 786.776 1056.1 788.104 1056.1Z" fill="#263238"/>
<path d="M636.392 1056.1H664.278C665.274 1056.1 666.27 1056.77 666.27 1057.76L670.918 1080.65C671.25 1082.98 669.59 1085.3 667.266 1085.3C657.307 1084.97 642.7 1084.64 630.085 1084.64C615.146 1084.64 602.531 1085.3 584.937 1085.3C574.313 1085.3 571.658 1074.68 576.305 1073.69C596.556 1069.37 612.822 1068.71 630.417 1058.09C632.077 1057.1 634.069 1056.1 636.392 1056.1Z" fill="#263238"/>
<path d="M635.728 420.384L608.507 395.831C608.507 395.831 541.448 457.545 528.169 457.213C510.243 456.881 473.062 455.222 452.147 450.577C448.496 452.9 440.86 461.526 440.196 465.176C464.098 484.088 526.177 497.36 541.448 492.051C576.969 480.439 635.728 420.384 635.728 420.384Z" fill="#B55B52"/>
<path d="M650.999 406.117C650.667 430.669 585.601 479.443 585.601 479.443L547.756 435.978C547.756 435.978 570.994 408.439 596.888 389.527C623.777 370.283 651.331 379.573 650.999 406.117Z" fill="#263238"/>
<path opacity="0.2" d="M585.6 479.443C585.6 479.443 645.688 434.319 650.667 409.103C643.032 401.471 601.867 424.033 585.6 479.443Z" fill="black"/>
<path d="M456.131 451.904L433.557 431.001L413.307 457.213C413.307 457.213 427.581 465.508 445.84 468.826L456.131 451.904Z" fill="#B55B52"/>
<path d="M406.667 419.057L399.364 438.632L413.306 457.213L433.557 431.333L406.667 419.057Z" fill="#B55B52"/>
<path opacity="0.2" d="M635.065 993.393L635.729 1023.92H661.29L660.626 993.393H635.065Z" fill="black"/>
<path opacity="0.2" d="M802.711 993.393H777.149L783.125 1023.92H808.686L802.711 993.393Z" fill="black"/>
<path d="M617.802 380.568C617.802 380.568 585.601 457.876 610.831 601.875C651.995 601.875 727.685 601.875 747.935 601.875C749.263 580.972 738.64 478.448 761.546 379.241C761.546 379.241 738.308 374.596 715.734 373.601C698.139 372.605 672.909 372.274 657.639 373.601C637.056 375.26 617.802 380.568 617.802 380.568Z" fill="#263238"/>
<path opacity="0.2" d="M731.005 403.462C728.349 419.72 732.665 458.872 746.94 503.664C747.935 469.158 750.923 428.679 759.223 388.863V388.531C750.259 387.868 733.329 388.2 731.005 403.462Z" fill="black"/>
<path d="M709.427 318.855C705.443 337.435 702.787 360.661 715.734 373.269C715.734 373.269 707.767 392.181 672.91 392.181C641.04 392.181 657.639 373.269 657.639 373.269C678.553 368.292 678.221 342.412 674.901 327.813L709.427 318.855Z" fill="#B55B52"/>
<path d="M671.25 390.854L663.614 399.149C662.95 399.812 662.95 400.476 663.282 401.471L665.606 408.771C665.938 409.766 666.602 410.098 667.598 410.098L675.565 410.43C676.229 410.43 677.225 410.098 677.557 409.435L682.537 402.467C683.201 401.471 683.201 400.476 682.537 399.812L674.569 390.854C673.573 389.859 671.914 389.859 671.25 390.854Z" fill="#407BFF"/>
<path d="M672.909 388.863C679.217 398.154 679.217 410.098 679.217 410.098C679.217 410.098 723.037 394.836 721.709 372.274C721.709 372.274 715.734 368.624 711.75 365.638C711.418 365.969 709.758 379.905 672.909 388.863Z" fill="white"/>
<path d="M672.909 388.863C666.27 398.153 663.946 408.771 663.946 408.771C663.946 408.771 644.36 395.499 650.999 373.269C650.999 373.269 656.643 370.946 662.286 369.619C661.954 369.951 659.299 384.218 672.909 388.863Z" fill="white"/>
<path d="M669.258 409.103C669.258 409.103 656.643 500.678 656.643 516.604C656.311 538.503 663.614 561.065 663.614 561.065C663.614 561.065 672.246 544.807 673.573 515.941C674.901 487.406 673.241 425.361 673.905 409.103H669.258Z" fill="#407BFF"/>
<path opacity="0.2" d="M674.569 328.145C676.561 336.771 677.557 349.048 673.573 359.002C676.561 358.67 679.881 357.675 682.869 356.016C694.82 350.375 700.795 341.748 707.103 328.808C707.767 325.49 708.431 322.173 709.095 319.186L674.569 328.145Z" fill="black"/>
<path d="M646.352 303.26C647.68 309.896 651.663 315.537 656.311 318.523C663.282 323.168 669.59 317.196 669.922 309.233C670.254 301.933 666.934 290.984 658.635 289.657C650.667 288.33 645.024 295.629 646.352 303.26Z" fill="#B55B52"/>
<path opacity="0.2" d="M646.352 303.26C647.68 309.896 651.663 315.537 656.311 318.523C663.282 323.168 669.59 317.196 669.922 309.233C670.254 301.933 666.934 290.984 658.635 289.657C650.667 288.33 645.024 295.629 646.352 303.26Z" fill="black"/>
<path d="M680.877 254.486C667.266 255.15 647.68 286.007 659.631 298.947C671.582 312.219 706.771 253.159 680.877 254.486Z" fill="#263238"/>
<path d="M727.353 303.26C716.398 326.486 711.418 340.753 694.82 348.384C669.59 359.997 645.024 338.43 648.675 312.55C651.995 289.325 669.258 255.15 695.816 254.486C722.042 253.491 737.976 280.035 727.353 303.26Z" fill="#B55B52"/>
<path d="M745.28 273.399C758.559 282.025 739.636 319.85 722.705 318.855C715.07 318.523 716.73 299.942 724.033 284.348C710.422 283.684 664.942 273.731 666.602 252.164C666.934 245.196 674.237 241.215 684.197 235.906C694.488 230.597 690.836 221.307 690.836 221.307C690.836 221.307 698.471 228.275 694.82 238.56C690.836 249.178 712.082 244.864 724.033 244.533C745.944 244.201 758.227 260.127 745.28 273.399Z" fill="#263238"/>
<path d="M742.292 273.399C742.292 273.399 752.915 269.417 756.567 278.707C754.575 277.38 750.259 274.394 742.292 273.399Z" fill="#263238"/>
<path d="M727.685 333.454C722.041 337.767 715.402 339.094 709.758 338.099C701.459 337.103 700.795 328.477 706.107 322.504C710.754 316.864 721.046 310.891 728.017 315.205C734.656 319.518 733.992 328.808 727.685 333.454Z" fill="#B55B52"/>
<path d="M610.831 601.544C610.831 601.544 602.531 731.275 603.527 784.031C604.523 839.109 626.433 999.697 626.433 999.697H669.922C669.922 999.697 677.889 842.427 681.873 788.344C686.188 729.285 701.127 601.544 701.127 601.544H610.831Z" fill="#407BFF"/>
<path d="M672.909 998.038C673.241 998.038 672.578 1012.31 672.578 1012.31H622.45L620.79 996.379L672.909 998.038Z" fill="#263238"/>
<path opacity="0.2" d="M669.59 636.05C667.93 700.418 672.245 739.57 682.869 771.091C685.524 740.234 689.84 699.755 693.492 665.912L669.59 636.05Z" fill="black"/>
<path d="M659.299 601.544C659.299 601.544 683.533 734.262 697.807 783.699C713.41 838.113 772.501 999.697 772.501 999.697H819.31C819.31 999.697 782.461 842.427 774.161 788.676C765.53 730.28 747.603 601.544 747.603 601.544H659.299Z" fill="#407BFF"/>
<path d="M819.973 999.034C820.305 999.034 821.965 1011.97 821.965 1011.97H770.178L765.862 997.043L819.973 999.034Z" fill="#263238"/>
<path opacity="0.2" d="M801.383 981.117C801.051 981.117 801.051 981.117 801.051 980.785C800.719 979.126 767.19 839.109 760.218 790.667C752.251 738.243 735.984 621.783 735.984 620.456C735.984 620.456 735.984 620.124 736.316 620.124C736.648 620.124 736.648 620.124 736.648 620.456C736.648 621.783 752.915 737.911 760.882 790.667C768.186 839.109 801.383 979.126 801.715 980.785C801.715 981.117 801.715 981.117 801.383 981.117Z" fill="black"/>
<path d="M688.844 296.624C688.18 298.615 686.52 299.61 685.192 299.279C683.865 298.947 683.533 296.956 684.197 294.965C684.861 292.975 686.52 291.979 687.848 292.311C689.176 292.975 689.84 294.634 688.844 296.624Z" fill="#263238"/>
<path d="M667.266 288.661C666.602 290.652 664.942 291.647 663.614 291.316C662.286 290.984 661.954 288.993 662.618 287.002C663.282 285.012 664.942 284.016 666.27 284.348C667.598 284.68 667.93 286.67 667.266 288.661Z" fill="#263238"/>
<path d="M673.573 292.311C673.573 292.311 664.942 301.933 657.971 305.583C659.962 309.896 666.602 310.892 666.602 310.892L673.573 292.311Z" fill="#A02724"/>
<path d="M669.922 317.859C669.59 317.859 669.59 317.527 669.59 317.196C669.59 316.864 669.922 316.864 670.254 316.864C678.553 319.85 684.86 315.537 684.86 315.537C685.192 315.205 685.524 315.537 685.856 315.537C686.188 315.868 685.856 316.2 685.856 316.532C685.856 316.864 679.217 321.177 669.922 317.859Z" fill="#263238"/>
<path d="M698.139 291.979C697.807 291.979 697.476 291.647 697.476 291.316C696.148 286.007 691.832 284.68 691.832 284.68C691.168 284.68 690.836 283.684 691.168 283.021C691.5 282.357 692.164 282.025 692.828 282.357C693.16 282.357 698.471 284.016 700.131 290.32C700.463 290.984 699.799 291.647 699.135 291.979C698.803 292.311 698.471 292.311 698.139 291.979Z" fill="#263238"/>
<path d="M660.626 277.38L660.294 277.048C659.962 276.385 659.963 275.721 660.626 275.389C665.938 271.076 671.25 272.735 671.582 272.735C672.246 272.735 672.577 273.73 672.245 274.394C671.914 275.058 671.25 275.389 670.586 275.058C670.254 275.058 666.27 273.731 661.954 277.38C661.29 277.38 660.958 277.38 660.626 277.38Z" fill="#263238"/>
<path d="M738.972 421.379L774.493 409.766C774.493 409.766 807.359 493.047 819.31 498.024C835.908 504.66 869.438 522.245 890.352 526.226C892.676 529.876 895.995 540.493 894.999 544.475C865.122 552.106 804.371 535.848 792.42 525.231C764.866 500.678 738.972 421.379 738.972 421.379Z" fill="#B55B52"/>
<path d="M761.214 379.241C785.448 382.891 811.01 466.503 811.01 466.503L759.554 495.369C759.554 495.369 737.976 455.554 727.685 425.692C717.062 394.836 735.32 375.26 761.214 379.241Z" fill="#263238"/>
<path d="M779.473 1060.75C777.481 1060.75 775.821 1060.42 774.493 1059.42C773.497 1058.76 773.165 1057.43 773.165 1056.1C773.165 1055.11 773.829 1054.77 774.161 1054.44C777.149 1053.12 785.116 1058.09 786.112 1058.76C786.444 1058.76 786.444 1059.09 786.444 1059.42C786.444 1059.75 786.112 1059.75 786.112 1059.75C784.453 1060.08 782.129 1060.75 779.473 1060.75ZM775.821 1055.44C775.489 1055.44 775.157 1055.44 775.157 1055.44C775.157 1055.44 774.825 1055.77 774.825 1056.1C774.825 1057.1 774.825 1057.76 775.489 1058.42C776.817 1059.75 780.137 1059.75 784.453 1058.76C781.797 1057.43 777.813 1055.44 775.821 1055.44Z" fill="#407BFF"/>
<path d="M786.112 1059.75C783.125 1058.09 778.145 1052.78 778.809 1049.8C778.809 1049.13 779.473 1048.47 780.801 1048.14C781.797 1048.14 782.461 1048.14 783.457 1048.8C786.444 1051.13 786.776 1058.76 786.776 1059.09C786.776 1059.42 786.776 1059.75 786.112 1059.75C786.444 1059.75 786.444 1059.75 786.112 1059.75ZM781.133 1049.47C780.137 1049.47 780.137 1049.8 779.805 1050.13C779.473 1051.79 782.461 1056.1 785.116 1058.09C784.784 1055.77 784.12 1051.79 782.129 1050.13C782.129 1049.47 781.797 1049.47 781.133 1049.47Z" fill="#407BFF"/>
<path d="M625.769 1060.75C623.113 1060.75 620.79 1060.42 619.462 1059.09C618.798 1058.42 618.134 1057.43 618.466 1056.1C618.466 1055.44 618.798 1054.77 619.462 1054.44C622.45 1052.78 632.741 1057.76 634.069 1058.42C634.401 1058.42 634.401 1058.76 634.401 1059.09C634.401 1059.42 634.069 1059.42 634.069 1059.75C631.413 1060.08 628.425 1060.75 625.769 1060.75ZM621.122 1055.44C620.79 1055.44 620.126 1055.44 620.126 1055.77C619.794 1055.77 619.794 1056.1 619.794 1056.43C619.794 1057.1 619.794 1057.76 620.458 1058.42C622.118 1059.75 626.101 1060.08 631.745 1059.09C628.093 1057.1 623.445 1055.44 621.122 1055.44Z" fill="#407BFF"/>
<path d="M633.737 1059.75C633.405 1059.75 633.405 1059.75 633.737 1059.75C630.417 1058.42 624.441 1052.78 625.105 1049.8C625.105 1049.13 625.769 1048.14 627.429 1048.14C628.757 1048.14 629.753 1048.47 630.749 1049.13C634.069 1051.79 634.401 1058.76 634.401 1059.09C634.401 1059.42 634.401 1059.42 634.069 1059.75C633.737 1059.75 633.737 1059.75 633.737 1059.75ZM627.761 1049.47H627.429C626.433 1049.47 626.101 1050.13 626.101 1050.13C625.769 1051.79 629.753 1056.1 633.073 1058.09C632.741 1056.1 632.077 1052.12 629.753 1050.13C629.089 1049.8 628.425 1049.47 627.761 1049.47Z" fill="#407BFF"/>
<path d="M892.676 544.807L916.91 546.134L903.963 519.59C903.963 519.59 882.717 519.258 879.065 535.516L892.676 544.807Z" fill="#B55B52"/>
<path d="M936.496 533.194L923.881 509.968L903.963 519.59L916.91 546.134L936.496 533.194Z" fill="#B55B52"/>
</svg>
