<svg xmlns="http://www.w3.org/2000/svg" xmlns:xlink="http://www.w3.org/1999/xlink" viewBox="0 0 416.64 346.61"><defs><style>.cls-1{fill:none;}.cls-2{fill:#f5f5f5;}.cls-3{fill:#c74d22;}.cls-4{fill:#d56525;}.cls-5{fill:#fff;}.cls-6{fill:#3c6bbb;}.cls-7{fill:#5494d8;}.cls-8{fill:#272628;}.cls-9{fill:#f7df1e;}.cls-10{fill:#a0dce8;}.cls-11{fill:#5c8c44;}.cls-12{fill:#3e4950;}.cls-13{fill:#507c3a;}.cls-14{fill:#73ac57;}.cls-15{fill:#e58d21;}.cls-16{fill:#e79e25;}.cls-17{fill:#e06f1a;}.cls-18{fill:#efc22e;}.cls-19{fill:#b55b52;}.cls-20{fill:#263238;}.cls-21{opacity:0.2;}.cls-22{fill:#407bff;}.cls-23{fill:#a02724;}.cls-24{fill:#5d3db1;}.cls-25{fill:#6e9440;}.cls-26{fill:#80a950;}.cls-27{fill:#bfbdbd;}.cls-28{fill:#49494b;}.cls-29{fill:#6e7d8f;}.cls-29,.cls-32,.cls-33{fill-rule:evenodd;}.cls-30,.cls-33{fill:#42748c;}.cls-31,.cls-32{fill:#da8f28;}.cls-34{clip-path:url(#clip-path);}.cls-35{fill:url(#radial-gradient);}.cls-36{clip-path:url(#clip-path-2);}.cls-37{fill:#777aaf;}</style><clipPath id="clip-path"><path class="cls-1" d="M48.44,334.75c1.71,5.27,11.2,6.9,21.21,3.66h0c10-3.25,16.73-10.14,15-15.41h0c-1.71-5.26-11.2-6.89-21.2-3.65h0c-10,3.25-16.73,10.14-15,15.4"/></clipPath><radialGradient id="radial-gradient" cx="6233.58" cy="8447.91" r="0.06" gradientTransform="matrix(431.69, -140.01, -140.01, -431.69, -1508134.19, 4519913.72)" gradientUnits="userSpaceOnUse"><stop offset="0" stop-color="#adafd2"/><stop offset="0.3" stop-color="#adafd2"/><stop offset="0.75" stop-color="#4b4d85"/><stop offset="1" stop-color="#4b4d85"/></radialGradient><clipPath id="clip-path-2"><rect class="cls-1" x="46.72" y="317.72" width="39.67" height="22.32" transform="translate(-98.21 36.57) rotate(-17.97)"/></clipPath></defs><title>skillsAsset 11</title><g id="Layer_2" data-name="Layer 2"><g id="Character"><ellipse id="_Path_" data-name="&lt;Path&gt;" class="cls-2" cx="208.32" cy="329.67" rx="208.32" ry="12.17"/><path class="cls-3" d="M289.64,51.81,288,70.66a14.24,14.24,0,0,1-17.37,0L269,51.81Z"/><polygon class="cls-4" points="279.32 53.58 279.32 73.2 286.11 71.29 287.62 53.58 279.32 53.58"/><polygon class="cls-5" points="272.89 56.04 273.56 63.91 282.39 63.91 282.11 67.16 279.32 67.92 276.43 67.11 276.36 65.08 273.66 65.08 273.99 69.08 279.32 70.58 284.65 69.08 285.32 61.25 276.01 61.25 275.78 58.7 275.78 58.7 285.54 58.65 285.76 56.04 272.89 56.04"/><polygon points="273.46 46.1 273.46 47.45 272.17 47.45 272.17 46.1 270.97 46.1 270.97 49.98 272.17 49.98 272.17 48.71 273.46 48.71 273.46 49.98 274.67 49.98 274.67 46.1 273.46 46.1"/><polygon points="278.93 46.1 275.24 46.1 275.24 47.45 276.44 47.45 276.44 50.01 277.73 50.01 277.73 47.45 278.93 47.45 278.93 46.1"/><polygon points="285.82 48.77 285.82 46.13 284.52 46.13 284.52 48.77 284.52 50.01 285.82 50.01 287.68 50.01 287.68 48.77 285.82 48.77"/><polygon points="282.57 46.13 281.67 47.51 280.77 46.13 279.48 46.13 279.48 50.01 280.77 50.01 280.77 48.08 281.67 49.46 282.57 48.08 282.57 50.01 283.86 50.01 283.86 46.13 282.57 46.13"/><path class="cls-6" d="M253.63,13.47l-1.46,17a12.81,12.81,0,0,1-15.68,0l-1.47-17Z"/><polygon class="cls-7" points="244.33 15.06 244.33 32.77 250.44 31.05 251.81 15.06 244.33 15.06"/><polygon class="cls-5" points="249.73 21.99 245.32 21.99 249.93 19.64 250.13 17.29 238.53 17.29 238.73 19.69 243.39 19.69 238.92 21.93 239.13 24.39 239.13 24.39 247.1 24.39 246.84 27.32 244.33 28 241.72 27.27 241.65 25.44 239.22 25.44 239.52 29.05 244.33 30.41 249.14 29.05 249.73 21.99 249.73 21.99"/><polygon class="cls-8" points="239.79 10.86 239.79 9.18 242.2 9.18 242.2 8.28 238.92 8.28 238.92 11.76 242.2 11.76 242.2 10.86 239.79 10.86"/><polygon class="cls-8" points="243.6 9.64 243.6 9.22 246 9.22 246 9.18 246 8.28 242.72 8.28 242.72 10.44 245.07 10.44 245.07 10.86 242.72 10.86 242.72 11.76 246 11.76 246 10.86 246 9.64 243.6 9.64"/><polygon class="cls-8" points="247.34 9.64 247.34 9.22 249.73 9.22 249.73 9.18 249.73 8.28 246.46 8.28 246.46 10.44 248.81 10.44 248.81 10.86 246.46 10.86 246.46 11.76 249.73 11.76 249.73 10.86 249.73 9.64 247.34 9.64"/><rect x="186.21" y="2.94" width="17.21" height="17.21"/><path class="cls-9" d="M205.76.18a.52.52,0,0,0-.4-.18H184a.52.52,0,0,0-.4.18.5.5,0,0,0-.14.42l1.92,21.58a.54.54,0,0,0,.4.47l8.76,2.51.15,0,.15,0,8.77-2.51a.54.54,0,0,0,.4-.47L205.9.6A.57.57,0,0,0,205.76.18Zm-18.21,14.6,3.83,1.06V4.93h2.19V19.16l-6-1.67ZM201.81,11l-.58,6.7-5.47,1.51V16.64l3.69-1,.14-2-3.83.66V4.93h6.57l-.19,2.19H198v4.37Z"/><path class="cls-10" d="M129.11,101.05c-8.11,0-14.46-2.76-14.46-6.29s6.35-6.28,14.46-6.28,14.47,2.76,14.47,6.28S137.23,101.05,129.11,101.05Zm0-11.32c-7.92,0-13.2,2.58-13.2,5s5.28,5,13.2,5,13.21-2.58,13.21-5S137,89.73,129.11,89.73Z"/><path class="cls-10" d="M123.52,107.72a2.87,2.87,0,0,1-1.64-.44c-3.08-1.76-2.26-8.62,1.76-15.66h0a27.54,27.54,0,0,1,6.48-7.8c2.45-1.89,4.65-2.45,6.16-1.57s2.14,3.08,1.76,6.16A26.78,26.78,0,0,1,134.52,98a27.21,27.21,0,0,1-6.48,7.8A7.9,7.9,0,0,1,123.52,107.72Zm11.19-24.65a6.69,6.69,0,0,0-3.77,1.69,27.11,27.11,0,0,0-6.17,7.49h0c-4,6.85-4.34,12.77-2.26,14,1.07.63,2.83.06,4.78-1.45a26.72,26.72,0,0,0,6.16-7.48,26,26,0,0,0,3.4-9.06c.31-2.51-.06-4.27-1.13-4.9A2.59,2.59,0,0,0,134.71,83.07Z"/><path class="cls-10" d="M134.77,107.72c-3.14,0-7.67-3.84-11.06-9.81-4.09-7-4.91-13.9-1.83-15.66h0c3.08-1.76,8.62,2.33,12.71,9.37a27.23,27.23,0,0,1,3.52,9.56c.44,3.08-.19,5.22-1.76,6.16A3.35,3.35,0,0,1,134.77,107.72Zm-12.26-24.4c-2.08,1.19-1.7,7.11,2.26,14s8.87,10.13,11,8.93c1.07-.63,1.44-2.39,1.13-4.9a26,26,0,0,0-3.4-9.06c-4-6.86-8.86-10.13-10.94-8.93Z"/><circle class="cls-10" cx="129.11" cy="94.76" r="2.52"/><path class="cls-11" d="M139.68,42.7l-4.91,2.71a.55.55,0,0,0-.3.49v5.44a.55.55,0,0,0,.3.49l4.91,2.72a.62.62,0,0,0,.59,0l4.91-2.72a.56.56,0,0,0,.29-.49V45.9a.55.55,0,0,0-.3-.49l-4.9-2.71a.64.64,0,0,0-.3-.08.67.67,0,0,0-.3.08m25.25,4.89-.82.45a.09.09,0,0,0,0,.08V49a.09.09,0,0,0,0,.08l.82.45a.09.09,0,0,0,.1,0l.82-.45a.1.1,0,0,0,0-.08v-.91a.1.1,0,0,0,0-.08l-.82-.45-.05,0-.05,0"/><path class="cls-12" d="M158.22,36.94l-2.39-1.33a.21.21,0,0,0-.24,0,.24.24,0,0,0-.12.21v8l-2.2-1.22a.64.64,0,0,0-.3-.08.67.67,0,0,0-.3.08h0l-4.91,2.72a.54.54,0,0,0-.3.49v5.43a.55.55,0,0,0,.3.49l4.91,2.72a.62.62,0,0,0,.59,0l4.91-2.72a.56.56,0,0,0,.29-.49V37.36A.47.47,0,0,0,158.22,36.94ZM155.34,50l-2.23,1.24a.32.32,0,0,1-.27,0L150.61,50a.24.24,0,0,1-.14-.22V47.34a.27.27,0,0,1,.14-.23l2.23-1.23h0a.28.28,0,0,1,.13,0,.35.35,0,0,1,.14,0l2.23,1.23a.28.28,0,0,1,.13.23v2.47A.25.25,0,0,1,155.34,50Z"/><path class="cls-13" d="M139.68,42.7l-5.21,8.64a.55.55,0,0,0,.3.49l4.91,2.72a.62.62,0,0,0,.59,0l5.2-8.65a.55.55,0,0,0-.3-.49l-4.9-2.71a.64.64,0,0,0-.3-.08.67.67,0,0,0-.3.08"/><path class="cls-14" d="M139.68,42.7l-4.91,2.71a.55.55,0,0,0-.3.49l5.21,8.65a.62.62,0,0,0,.59,0l4.91-2.72a.56.56,0,0,0,.29-.49l-5.2-8.64a.64.64,0,0,0-.3-.08.67.67,0,0,0-.3.08"/><path class="cls-12" d="M170.17,45.37l-4.9-2.72a.64.64,0,0,0-.3-.08.67.67,0,0,0-.3.08h0l-4.91,2.72a.58.58,0,0,0-.3.5v5.41a.58.58,0,0,0,.3.5l4.91,2.72a.62.62,0,0,0,.59,0l2.26-1.25a.3.3,0,0,0,0-.53L162.61,50a.24.24,0,0,1-.14-.22V47.34a.25.25,0,0,1,.13-.22l2.24-1.24h0a.28.28,0,0,1,.13,0,.35.35,0,0,1,.14,0l2.23,1.24a.25.25,0,0,1,.13.22v2a.24.24,0,0,0,.12.21.25.25,0,0,0,.24,0l2.4-1.39a.49.49,0,0,0,.24-.42V45.87A.56.56,0,0,0,170.17,45.37Zm-37,0-4.9-2.72a.64.64,0,0,0-.3-.08.67.67,0,0,0-.3.08h0l-4.91,2.72a.58.58,0,0,0-.3.5v7.46a.24.24,0,0,0,.12.21.25.25,0,0,0,.24,0l2.4-1.39a.49.49,0,0,0,.24-.42V47.34a.25.25,0,0,1,.13-.22l2.24-1.24h0a.28.28,0,0,1,.13,0,.35.35,0,0,1,.14,0l2.23,1.24a.25.25,0,0,1,.13.22v4.39a.49.49,0,0,0,.24.42l2.4,1.39a.21.21,0,0,0,.24,0,.22.22,0,0,0,.12-.21V45.87A.56.56,0,0,0,133.17,45.37Z"/><path class="cls-15" d="M280.7,128.88l7.65-14.33a.43.43,0,0,1,.75,0l2.64,5.29Z"/><path class="cls-16" d="M280.7,128.88l2.79-17.16a.47.47,0,0,1,.88-.14l5.36,10.28Z"/><path class="cls-17" d="M280.71,128.88l.1-.08,8.79-7.2-2.48-4.75Z"/><path class="cls-18" d="M280.7,128.88,294.08,116a.48.48,0,0,1,.81.28l1.87,12.62-7.53,4.39a1,1,0,0,1-1,0Z"/><polygon class="cls-19" points="199.35 319.24 191.64 319.24 191.31 301.37 199.02 301.37 199.35 319.24"/><polygon class="cls-19" points="245.66 319.24 237.95 319.24 234.51 301.37 242.22 301.37 245.66 319.24"/><path class="cls-20" d="M237.42,318.34h8.67a.65.65,0,0,1,.64.53l1.36,6.85a1.17,1.17,0,0,1-1.17,1.38c-3-.06-4.48-.23-8.3-.23-2.34,0-7.18.24-10.41.24s-3.59-3.2-2.25-3.49c6-1.3,8.25-3.09,10.2-4.8A1.9,1.9,0,0,1,237.42,318.34Z"/><path class="cls-20" d="M191.71,318.34h8.42a.66.66,0,0,1,.65.53l1.35,6.85A1.15,1.15,0,0,1,201,327.1c-3-.06-7.42-.23-11.24-.23-4.47,0-8.33.24-13.57.24-3.16,0-4-3.2-2.63-3.49,6.06-1.32,11-1.46,16.29-4.68A3.63,3.63,0,0,1,191.71,318.34Z"/><path class="cls-19" d="M191.48,126.73l-8.23-7.38s-20.21,18.56-24.17,18.5c-5.4-.08-16.62-.65-22.88-2-1.12.68-3.42,3.27-3.65,4.44,7.17,5.66,25.85,9.72,30.54,8.14C173.76,144.85,191.48,126.73,191.48,126.73Z"/><path class="cls-20" d="M196.09,122.45c-.05,7.37-19.65,22.08-19.65,22.08l-11.39-13.08a97.5,97.5,0,0,1,14.82-14C187.89,111.62,196.15,114.36,196.09,122.45Z"/><path class="cls-21" d="M176.45,144.53S194.54,131,196,123.35C193.69,121,181.35,127.76,176.45,144.53Z"/><path class="cls-19" d="M137.43,136.25,130.6,130l-6.13,7.86a33.91,33.91,0,0,0,9.8,3.53Z"/><polygon class="cls-19" points="122.46 126.26 120.34 132.2 124.47 137.82 130.6 129.96 122.46 126.26"/><polygon class="cls-21" points="191.31 299.38 191.48 308.58 199.19 308.58 199.03 299.38 191.31 299.38"/><polygon class="cls-21" points="241.83 299.38 234.12 299.38 235.89 308.58 243.61 308.58 241.83 299.38"/><path class="cls-20" d="M186.1,114.68S176.42,138,184,181.34h41.25c.44-6.33-2.78-37.22,4.06-67.06a106.08,106.08,0,0,0-13.77-1.74,148.65,148.65,0,0,0-17.54,0A77.37,77.37,0,0,0,186.1,114.68Z"/><path class="cls-21" d="M220.18,121.65c-.81,4.91.45,16.66,4.79,30.23a198.71,198.71,0,0,1,3.7-34.63v-.06C226,116.91,221,117,220.18,121.65Z"/><path class="cls-19" d="M213.66,96.13c-1.24,5.65-2,12.64,1.89,16.41,0,0-2.41,5.72-12.89,5.72-9.58,0-4.65-5.72-4.65-5.72,6.33-1.51,6.2-9.29,5.21-13.67Z"/><path class="cls-22" d="M202.16,117.81l-2.27,2.51a.68.68,0,0,0-.14.65l.73,2.22a.65.65,0,0,0,.58.44l2.44.11a.65.65,0,0,0,.59-.29l1.47-2.15a.66.66,0,0,0-.05-.81l-2.36-2.69A.66.66,0,0,0,202.16,117.81Z"/><path class="cls-5" d="M202.67,117.25a13.36,13.36,0,0,1,1.87,6.43s13.24-4.63,12.8-11.42c0,0-1.84-1.11-3-2C214.34,110.25,213.79,114.53,202.67,117.25Z"/><path class="cls-5" d="M202.67,117.25a18.64,18.64,0,0,0-2.71,6s-5.85-4-3.9-10.73a21.73,21.73,0,0,1,3.39-1.07S198.56,115.8,202.67,117.25Z"/><path class="cls-22" d="M201.59,123.27s-3.75,27.61-3.83,32.42a46.64,46.64,0,0,0,2.12,13.39s2.57-4.88,3-13.6-.1-27.32.1-32.21Z"/><path class="cls-21" d="M203.21,98.87c.59,2.57.88,6.31-.27,9.27a10.34,10.34,0,0,0,2.83-.87c3.59-1.67,5.41-4.3,7.32-8.21.16-1,.36-2,.57-2.93Z"/><path class="cls-19" d="M194.72,91.43a7.06,7.06,0,0,0,3,4.58c2.12,1.38,4-.36,4.06-2.78.08-2.18-.92-5.51-3.37-5.92A3.36,3.36,0,0,0,194.72,91.43Z"/><path class="cls-21" d="M194.72,91.43a7.06,7.06,0,0,0,3,4.58c2.12,1.38,4-.36,4.06-2.78.08-2.18-.92-5.51-3.37-5.92A3.36,3.36,0,0,0,194.72,91.43Z"/><path class="cls-20" d="M205.06,76.68c-4.12.2-10,9.47-6.36,13.44S212.87,76.32,205.06,76.68Z"/><path class="cls-19" d="M219.08,91.44c-3.25,7-4.81,11.27-9.84,13.61-7.58,3.52-15.05-3-13.93-10.81,1-7,6.17-17.29,14.24-17.55A10.2,10.2,0,0,1,219.08,91.44Z"/><path class="cls-20" d="M224.54,82.44c4,2.58-1.67,14-6.82,13.69-2.27-.14-1.84-5.68.43-10.45C214,85.5,200.37,82.49,200.81,76c.15-2.08,2.28-3.34,5.33-4.91a3.65,3.65,0,0,0,2.05-4.42,4.91,4.91,0,0,1,1.15,5.23c-1.16,3.16,5.17,1.92,8.82,1.82C224.68,73.57,228.42,78.45,224.54,82.44Z"/><path class="cls-20" d="M223.64,82.44s3.21-1.2,4.3,1.6A9.65,9.65,0,0,0,223.64,82.44Z"/><path class="cls-19" d="M219.18,100.54a7.37,7.37,0,0,1-5.4,1.44c-2.52-.35-2.71-2.85-1.11-4.71,1.43-1.67,4.47-3.5,6.57-2.21S221.08,99.09,219.18,100.54Z"/><path class="cls-22" d="M184,181.34s-2.48,39.1-2.22,55c.28,16.59,6.86,65,6.86,65h13.06s2.41-47.42,3.58-63.71c1.28-17.76,5.84-56.32,5.84-56.32Z"/><path class="cls-20" d="M202.67,300.8c.06,0-.1,4.27-.1,4.27H187.51l-.52-4.8Z"/><path class="cls-21" d="M201.68,191.69c-.45,19.41.84,31.19,4,40.67.79-9.26,2.08-21.5,3.2-31.66Z"/><path class="cls-22" d="M198.64,181.34s7.31,40,11.57,54.94c4.67,16.4,22.52,65.09,22.52,65.09h14.13S235.72,254,233.3,237.77c-2.62-17.62-8-56.43-8-56.43Z"/><path class="cls-20" d="M247,301.12c.06,0,.61,3.95.61,3.95H232l-1.26-4.53Z"/><path class="cls-21" d="M241.37,295.71c-.06,0-.12,0-.12-.07-.11-.49-10.16-42.68-12.33-57.26-2.35-15.83-7.25-50.92-7.3-51.28,0,0,0-.09.12-.1s.13,0,.14.08c.05.35,5,35.45,7.3,51.28,2.17,14.58,12.23,56.77,12.33,57.25,0,.05,0,.09-.12.1Z"/><path class="cls-20" d="M207.52,89.43c-.23.59-.72.95-1.1.8s-.5-.72-.27-1.31.73-.94,1.1-.8S207.75,88.85,207.52,89.43Z"/><path class="cls-20" d="M201,87c-.23.58-.73.94-1.11.8s-.49-.73-.26-1.31.72-.95,1.1-.8S201.22,86.41,201,87Z"/><path class="cls-23" d="M203,88.06a22.89,22.89,0,0,1-4.73,4,3.5,3.5,0,0,0,2.56,1.56Z"/><path class="cls-20" d="M201.83,95.82a.18.18,0,0,1-.1-.24.19.19,0,0,1,.23-.11,5,5,0,0,0,4.45-.41.18.18,0,0,1,.26,0,.19.19,0,0,1,0,.25A5.27,5.27,0,0,1,201.83,95.82Z"/><path class="cls-20" d="M210.33,88a.35.35,0,0,1-.22-.24,2.78,2.78,0,0,0-1.72-2,.36.36,0,0,1-.24-.46.37.37,0,0,1,.46-.24,3.48,3.48,0,0,1,2.21,2.44.38.38,0,0,1-.26.46A.36.36,0,0,1,210.33,88Z"/><path class="cls-20" d="M199,83.57l-.13-.1a.38.38,0,0,1,.06-.52,3.69,3.69,0,0,1,3.25-.82.35.35,0,0,1,.23.46.37.37,0,0,1-.45.25h0a2.91,2.91,0,0,0-2.57.67A.4.4,0,0,1,199,83.57Z"/><path class="cls-19" d="M222.58,127l10.71-3.48s9.87,25.13,13.52,26.59c5,2,15.08,7.28,21.36,8.53.71,1.06,1.68,4.32,1.38,5.47-9,2.34-27.33-2.59-30.93-5.83C230.39,150.87,222.58,127,222.58,127Z"/><path class="cls-20" d="M229.32,114.28c7.27,1.06,15,26.35,15,26.35l-15.54,8.65s-6.46-12-9.57-20.95C216,119,221.52,113.14,229.32,114.28Z"/><path class="cls-22" d="M234.84,319.69a2.34,2.34,0,0,1-1.48-.39,1.08,1.08,0,0,1-.35-1,.63.63,0,0,1,.32-.52c.86-.43,3.32,1.09,3.6,1.27a.18.18,0,0,1,.08.18.19.19,0,0,1-.15.15A9.11,9.11,0,0,1,234.84,319.69Zm-1.11-1.6a.6.6,0,0,0-.24.05c-.05,0-.1.07-.12.21a.74.74,0,0,0,.24.67c.41.35,1.41.4,2.73.13A7.28,7.28,0,0,0,233.73,318.09Z"/><path class="cls-22" d="M236.82,319.42l-.09,0c-.78-.44-2.29-2.13-2.1-3a.62.62,0,0,1,.59-.48,1,1,0,0,1,.77.24c.88.73,1,3,1,3.05a.2.2,0,0,1-.09.17A.17.17,0,0,1,236.82,319.42Zm-1.48-3.13h-.08c-.24,0-.26.13-.27.18-.11.51.84,1.79,1.62,2.39a4.37,4.37,0,0,0-.85-2.42A.63.63,0,0,0,235.34,316.29Z"/><path class="cls-22" d="M188.47,319.69a2.89,2.89,0,0,1-1.86-.47,1,1,0,0,1-.32-.89.6.6,0,0,1,.31-.49c1-.52,4,1.05,4.36,1.23a.18.18,0,0,1,.09.19.17.17,0,0,1-.15.15A13.21,13.21,0,0,1,188.47,319.69Zm-1.36-1.6a.66.66,0,0,0-.34.07.23.23,0,0,0-.12.2.64.64,0,0,0,.21.58c.46.42,1.73.5,3.44.21A10.13,10.13,0,0,0,187.11,318.09Z"/><path class="cls-22" d="M190.87,319.42l-.08,0c-.92-.42-2.72-2.08-2.56-3,0-.2.19-.46.69-.51a1.31,1.31,0,0,1,1,.32c1,.8,1.12,2.88,1.12,3a.16.16,0,0,1-.08.16A.14.14,0,0,1,190.87,319.42Zm-1.81-3.13H189c-.33,0-.35.16-.36.2-.1.53,1.12,1.84,2.06,2.41a4.23,4.23,0,0,0-1-2.38A1,1,0,0,0,189.06,316.29Z"/><path class="cls-19" d="M268.86,164.25l7.34.35-3.9-8s-6.44-.1-7.49,4.85Z"/><polygon class="cls-19" points="282.15 160.73 278.25 153.66 272.3 156.6 276.2 164.6 282.15 160.73"/><path class="cls-24" d="M323.6,227.08a2.73,2.73,0,0,1-1.31,3.63l-12.86,6a2.72,2.72,0,0,1-3.62-1.32l-6-12.85a2.72,2.72,0,0,1,1.31-3.63l12.86-6a2.73,2.73,0,0,1,3.63,1.31Z"/><path class="cls-5" d="M316.53,223.52a2.7,2.7,0,0,0-1.81-.27,2.43,2.43,0,0,0,.55-1.31,3.29,3.29,0,0,0-.32-1.77,3.14,3.14,0,0,0-2.3-1.89,5.37,5.37,0,0,0-3.56.52L304.47,221,310,232.84l5.16-2.42a5.47,5.47,0,0,0,2.75-2.37,3.5,3.5,0,0,0-.16-3.12A2.93,2.93,0,0,0,316.53,223.52Zm-8.17-2,2.1-1a1.51,1.51,0,0,1,2,.73,1.49,1.49,0,0,1-.73,2l-2.1,1Zm6.18,6.75-2.48,1.16-1.39-3,2.48-1.16a1.64,1.64,0,0,1,1.39,3Z"/><path class="cls-25" d="M62.39,219.36l1,.95a4,4,0,0,0,.69.41,18,18,0,0,1,2.07,1.12,15.44,15.44,0,0,1,4,3.77,12.16,12.16,0,0,1,1.63,2.95,11.71,11.71,0,0,1-.26,9.32,10.22,10.22,0,0,1-.79,1.4c-.21.08-.38-.06-.52-.17a2.61,2.61,0,0,1-.65-.8,4.67,4.67,0,0,1-.53-1.13L69,237s-6.63-17.52-6.58-17.64Z"/><path class="cls-26" d="M62.38,219.32c-.05,0-.06,0-.08,0a1.23,1.23,0,0,1,0,.78,3.57,3.57,0,0,1-.35.77,13,13,0,0,0-1.47,4.5A15.05,15.05,0,0,0,61,231.7,20.17,20.17,0,0,0,63,235.56a12.92,12.92,0,0,0,5,3.86,12.67,12.67,0,0,0,1.49.56c.12,0,.09-.15.09-.24a3.07,3.07,0,0,0-.07-.53c-.12-.68-.29-1.35-.44-2l-6.69-17.88Z"/><path class="cls-27" d="M70.7,240.17a1.92,1.92,0,0,1,0-.89.86.86,0,0,1-.47-.2,2.89,2.89,0,0,1-.35-.35,7.88,7.88,0,0,1-.87-1.55l-.12-.33a1.87,1.87,0,0,0,.12.57,13.38,13.38,0,0,1,.4,1.81,1.54,1.54,0,0,1,0,.74.25.25,0,0,0,0,.08A8.08,8.08,0,0,1,70.61,242l.1.25c.11.31.07.25.36.26a1.16,1.16,0,0,1,.37,0c.08,0,.07-.1,0-.15l-.2-.41-.42-1.17a2.87,2.87,0,0,1-.17-.62Z"/><path class="cls-28" d="M78.44,231.31l.44,1.21.06.14a.34.34,0,0,0,.33.19,2.57,2.57,0,0,0,.4-.07.11.11,0,0,1,.14.08c.11.27.1.31-.17.39a17,17,0,0,0-1.85.68l-.05,0c-.19.08-.22.07-.29-.13a.38.38,0,0,0,0-.1c0-.06,0-.1.07-.13a3.79,3.79,0,0,0,.34-.2A.37.37,0,0,0,78,233c0-.19-.12-.38-.18-.56L77,230.26a.35.35,0,0,0-.28-.24,2.35,2.35,0,0,0-.53,0h-.15c-.14,0-.18-.12-.09-.22a.52.52,0,0,1,.11-.1,7.61,7.61,0,0,0,1.3-.88c.08-.07.11-.07.15,0a.55.55,0,0,1,.06.18,2.29,2.29,0,0,0,.09.31s0,.08.09.09.08,0,.11-.07a4.11,4.11,0,0,1,.39-.54,2.56,2.56,0,0,1,.73-.62,1.28,1.28,0,0,1,1.08-.06,2,2,0,0,1,.43.24c.12.08.13.08.2,0a5.24,5.24,0,0,1,.76-.92,1.55,1.55,0,0,1,1.08-.45,1.4,1.4,0,0,1,1.06.47,2.17,2.17,0,0,1,.51.83l.78,2.14a.35.35,0,0,0,.32.23,4.57,4.57,0,0,0,.52,0c.11,0,.11,0,.15.09.08.27.06.29-.2.37a19.36,19.36,0,0,0-1.93.7c-.12.06-.12.06-.18-.07v0c-.09-.21-.09-.21.1-.34l.19-.13a.35.35,0,0,0,.14-.4l-.2-.61-.59-1.56a1.1,1.1,0,0,0-.23-.37,1,1,0,0,0-1.29-.23,2,2,0,0,0-.74.66.2.2,0,0,0,0,.2,13.33,13.33,0,0,1,.6,1.52l.4,1.11a.34.34,0,0,0,.4.25l.4-.06c.06,0,.1,0,.12.07l0,0c.07.23.06.25-.16.33-.65.2-1.29.44-1.91.69-.22.09-.24.07-.31-.15s0-.14.08-.21l.25-.14a.38.38,0,0,0,.2-.51l-.18-.54-.6-1.6a1.3,1.3,0,0,0-.38-.52A.88.88,0,0,0,79,229a1.77,1.77,0,0,0-.84.61.5.5,0,0,0-.09.58l.43,1.17Zm15.07-5.45.41,1.12.1.24a.27.27,0,0,0,.28.15,2.36,2.36,0,0,0,.45-.08c.08,0,.11,0,.14.07l0,0c.09.28.07.33-.2.41a14.83,14.83,0,0,0-1.83.67l-.23.09c-.05,0-.06,0-.09,0a.82.82,0,0,1-.12-.34c0-.05,0-.07.06-.1l.31-.18a.32.32,0,0,0,.15-.44l-.22-.68-.72-2a.32.32,0,0,0-.29-.23,3,3,0,0,0-.52,0h-.16c-.13,0-.18-.13-.11-.25a.24.24,0,0,1,.14-.12,7.29,7.29,0,0,0,1.34-.93s.08,0,.12,0a.28.28,0,0,1,.08.15l.12.39s0,.12.06.13.07-.07.1-.11a3.66,3.66,0,0,1,.59-.77,1.77,1.77,0,0,1,.73-.47,1.44,1.44,0,0,1,1.45.35,2.27,2.27,0,0,1,.5.72l.24.58.65,1.76a.29.29,0,0,0,.29.21,3.55,3.55,0,0,0,.47-.06c.14,0,.15,0,.2.11l0,0c.08.28.07.29-.21.37a18.21,18.21,0,0,0-1.79.66,1.57,1.57,0,0,0-.23.09s-.08,0-.11,0a.88.88,0,0,1-.12-.32.09.09,0,0,1,0-.11l.35-.2a.27.27,0,0,0,.13-.31l-.06-.23-.62-1.67a2.77,2.77,0,0,0-.26-.55,1,1,0,0,0-1.1-.44,1.57,1.57,0,0,0-.91.62.45.45,0,0,0-.07.48l.44,1.21s0,0,0,0Z"/><path class="cls-27" d="M116.09,215.05a3.35,3.35,0,0,0-1.25-1.31,3.29,3.29,0,0,0-1.56-.46,4.66,4.66,0,0,0-1.69.29c-.23.07-3.26,1.23-3.5,1.28a.13.13,0,0,0-.11.1.85.85,0,0,0,0,.22c0,.25,0,.24.22.18a4.42,4.42,0,0,1,.6-.1.48.48,0,0,1,.45.22c.05.08,1.09,2.89,1.57,4.2l.31,1a.85.85,0,0,1,0,.22.36.36,0,0,1-.11.28,1,1,0,0,1-.3.21c-.21.1-.24.12-.22.39v.1c0,.11,0,.12.14.08l2.39-.85.93-.36.62-.31a4.3,4.3,0,0,0,1.61-1.64,3.29,3.29,0,0,0,.4-1.29,3.7,3.7,0,0,0-.18-1.55,2.94,2.94,0,0,0-.33-.85Zm-.75,1.56a3.34,3.34,0,0,1,.14,1.6,2.38,2.38,0,0,1-1.07,1.67,3.32,3.32,0,0,1-1.53.48.73.73,0,0,1-.75-.52L110.37,215c-.11-.29,0-.4.2-.48a5.34,5.34,0,0,1,1-.33,3.72,3.72,0,0,1,1-.12,2.58,2.58,0,0,1,.78.16,3,3,0,0,1,1.38,1.06,4.43,4.43,0,0,1,.61,1.28Zm8.09-2.07a.75.75,0,0,0-.06-.13,1.64,1.64,0,0,0-1-.79,2.7,2.7,0,0,0-.9-.08h-.15a.07.07,0,0,1,0-.07,2.19,2.19,0,0,0,.34-.46,1.57,1.57,0,0,0,.21-1,1.4,1.4,0,0,0-.15-.53,1.46,1.46,0,0,0-1-.82,2.27,2.27,0,0,0-1.39.06c-.87.3-1.74.63-2.6.95a4.83,4.83,0,0,1-.76.25c-.05,0-.12,0-.14.09a1.2,1.2,0,0,0,0,.38c0,.06,0,.09.11.07l.58-.12a.43.43,0,0,1,.51.2,3.2,3.2,0,0,1,.16.39l.53,1.5,1.08,3a3.53,3.53,0,0,1,.13.54.32.32,0,0,1-.12.32,1.59,1.59,0,0,1-.45.27.2.2,0,0,0-.15.21.69.69,0,0,0,0,.25c0,.1,0,.13.14.08s2.73-.93,3.21-1.16a5.66,5.66,0,0,0,.82-.48,3.15,3.15,0,0,0,1-1.27,1.8,1.8,0,0,0,.07-1.33,1.24,1.24,0,0,0-.09-.33Zm-5.07-1.86-.21-.64a.2.2,0,0,1,.09-.27,2.49,2.49,0,0,1,.57-.22,2.44,2.44,0,0,1,.61-.11,1.23,1.23,0,0,1,1,.35,1.2,1.2,0,0,1,.29.45,1.62,1.62,0,0,1,.15.69,1,1,0,0,1-.47.78,12.54,12.54,0,0,1-1.32.52c-.12.05-.14,0-.18-.09l-.27-.75a4.59,4.59,0,0,1-.27-.7Zm4.17,3.35a1.37,1.37,0,0,1-.47,1,1.43,1.43,0,0,1-.55.31,4.78,4.78,0,0,1-.76.23.73.73,0,0,1-.73-.44c-.19-.39-.32-.82-.44-1.12L119.2,215c0-.13,0-.18.09-.23l.75-.26.53-.13a1.84,1.84,0,0,1,1.13.15,1.37,1.37,0,0,1,.63.67,1.77,1.77,0,0,1,.2.85Z"/><path class="cls-28" d="M101.34,221l.22,0a.56.56,0,0,0,.43-.59.83.83,0,0,0-.17-.46s-.06.07-.07.09a.78.78,0,0,1-.34.31,2,2,0,0,1-.89.23h-.44a2.45,2.45,0,0,0-.89.19,3.38,3.38,0,0,0-1,.78,1.69,1.69,0,0,0-.44,1.23,2.08,2.08,0,0,0,.23.78,1.53,1.53,0,0,0,1.37.87h.1c.09,0,.11.05.06.13l-.15.21-.37.47a.19.19,0,0,0,0,.29.9.9,0,0,0,.4.29,1.64,1.64,0,0,0,.44.09c.11,0,.11,0,.06.13l-.34.49a2.54,2.54,0,0,0-.29.54.85.85,0,0,0,.07.79,1.46,1.46,0,0,0,.68.57,1.89,1.89,0,0,0,.88.13,3.26,3.26,0,0,0,1.39-.45,3.1,3.1,0,0,0,1.34-1.52,1.81,1.81,0,0,0,.09-1.35,1.2,1.2,0,0,0-1.29-.86l-.46.08-1.36.37a1,1,0,0,1-.45,0,.29.29,0,0,1-.24-.36.41.41,0,0,1,.22-.26l.24-.11a2.48,2.48,0,0,0,1.13-1.11,1.49,1.49,0,0,0,.16-.83,2.25,2.25,0,0,0-.37-1.06c-.06-.08,0-.09.07-.11Zm-.5,4.7a.84.84,0,0,0,.14-.06,6.15,6.15,0,0,1,1-.24h.36a.82.82,0,0,1,.69.66,1.06,1.06,0,0,1-.27,1,1.9,1.9,0,0,1-.61.44,2,2,0,0,1-.26.09,1.94,1.94,0,0,1-.86.16,1.35,1.35,0,0,1-.59-.14.88.88,0,0,1-.43-1.21A1.23,1.23,0,0,1,100.84,225.74Zm0-2.83a.83.83,0,0,1-.73.82,1,1,0,0,1-.93-.26,1.8,1.8,0,0,1-.61-1.22.83.83,0,0,1,.41-.86,1,1,0,0,1,1.29.12,1.79,1.79,0,0,1,.48.8,2,2,0,0,1,.09.6ZM90.57,226a2.37,2.37,0,0,0-.95-1,2.25,2.25,0,0,0-1.88-.1,2.94,2.94,0,0,0-1.38,1,2.21,2.21,0,0,0-.49,1.56,3.1,3.1,0,0,0,.49,1.41,2.27,2.27,0,0,0,3,.85,2.69,2.69,0,0,0,.88-.65,2.25,2.25,0,0,0,.66-1.39,2.84,2.84,0,0,0-.19-1.33l-.19-.39Zm-.49,2.19a1,1,0,0,1-.58,1,1.39,1.39,0,0,1-1.06.11,1.69,1.69,0,0,1-.72-.42,3.18,3.18,0,0,1-1-2,1.25,1.25,0,0,1,.12-.71,1.16,1.16,0,0,1,.93-.62,1.52,1.52,0,0,1,1.09.26,2.42,2.42,0,0,1,.77.88,3.75,3.75,0,0,1,.22.48,2.8,2.8,0,0,1,.22,1.06Zm18-8.5a2.27,2.27,0,0,0-2.87-1.12,3,3,0,0,0-1.34.95,2.15,2.15,0,0,0-.51,1.68,2.94,2.94,0,0,0,.88,1.83,2.08,2.08,0,0,0,1.7.61,2.85,2.85,0,0,0,1.81-.89,2.33,2.33,0,0,0,.68-1.61,3.1,3.1,0,0,0-.2-1.13,1.45,1.45,0,0,0-.15-.32Zm-.51,2a1.06,1.06,0,0,1-.57,1.09,1.46,1.46,0,0,1-1,.12,1.71,1.71,0,0,1-.79-.46,2.6,2.6,0,0,1-.58-.78,3.47,3.47,0,0,1-.36-1.13,1,1,0,0,1,0-.25,1.15,1.15,0,0,1,1-1.16,1.55,1.55,0,0,1,1.14.3,2.32,2.32,0,0,1,.75.92,2.09,2.09,0,0,1,.19.44,2.73,2.73,0,0,1,.21.92Z"/><path class="cls-29" d="M353.57,196.26a1.48,1.48,0,0,0-.39.05h0a4,4,0,0,0,.3.39c.08.15.15.3.22.45l0,0a.53.53,0,0,0,.2-.47.78.78,0,0,1-.11-.2c-.06-.09-.18-.14-.26-.21"/><path class="cls-29" d="M382.71,320.38a1.91,1.91,0,0,0-.49-.06v0h0c0,.2.18.37.25.57s.08.41.13.62l0,0A.67.67,0,0,0,383,321a2.76,2.76,0,0,1-.08-.27c0-.14-.17-.23-.24-.35"/><path class="cls-30" d="M358.44,338.54l-1.61-.41q1-4.08,1.48-7.76h0l-4.4,7-1.22-.31-.47-8.26h0c-.76,2.24-1.53,4.76-2.29,7.55l-1.46-.37q1.44-5.08,3.15-9.41l2,.51.52,7.63h0l4.13-6.45,1.91.48q-.72,5.4-1.71,9.78"/><path class="cls-30" d="M367.2,333.24q-2.34,5.07-4.56,7.07a3.52,3.52,0,0,1-3.21,1.16,2.68,2.68,0,0,1-.92-.49l.22-.85a5,5,0,0,0,.65.21,1.62,1.62,0,0,0,1.22-.1,1.43,1.43,0,0,0,.78-.92,6.76,6.76,0,0,0,0-1.73l-.36-5.92,1.57.4.22,4.42a5.62,5.62,0,0,1-.14,2,27.8,27.8,0,0,0,3-5.66Z"/><polygon class="cls-31" points="386.76 345.77 382.2 344.61 384.65 335.02 386.18 335.41 384.03 343.82 387.06 344.59 386.76 345.77"/><path class="cls-32" d="M381,344.54l-1.54-1.32a3.41,3.41,0,0,0,.55-.32,6.08,6.08,0,0,0,2.12-3.62q1.21-4.75-2.52-5.71a3.67,3.67,0,0,0-3.17.48,6,6,0,0,0-2.11,3.6,5.89,5.89,0,0,0,0,4,3.52,3.52,0,0,0,2.47,1.77,4.3,4.3,0,0,0,1.3.15l2,1.92Zm-5.16-3.61a6.11,6.11,0,0,1,.18-3.16q.93-3.63,3.13-3.06a1.91,1.91,0,0,1,1.47,1.3,6,6,0,0,1-.18,3.13q-.93,3.64-3.14,3.09a1.91,1.91,0,0,1-1.46-1.3"/><path class="cls-31" d="M373.1,339.46a2.59,2.59,0,0,1-1.4,1.77,3.66,3.66,0,0,1-2.6.17,5,5,0,0,1-2.5-1.59l.62-.72a4.86,4.86,0,0,0,1.92,1.09,2.21,2.21,0,0,0,1.45,0,1.35,1.35,0,0,0,.79-.94,1.82,1.82,0,0,0-.75-1.75c-.58-.54-1.72-1.65-1.72-1.65a2.38,2.38,0,0,1-.58-2.32,2.49,2.49,0,0,1,1.3-1.68,3.22,3.22,0,0,1,2.29-.17,4.47,4.47,0,0,1,2.25,1.33l-.58.72a4.88,4.88,0,0,0-1.74-.86,1.69,1.69,0,0,0-1.23.06,1.21,1.21,0,0,0-.66.8,1.85,1.85,0,0,0,.78,1.77l1.76,1.68a2.34,2.34,0,0,1,.6,2.32"/><path class="cls-33" d="M392,333.47a5.38,5.38,0,0,0-2.33-.25c-.19,0-.47-.05-.55.16s0,.27.09.42a2.78,2.78,0,0,0,.43.86,8.48,8.48,0,0,0,.6.72c.38.4.85.69,1.22,1.08.21.23.41.5.63.74s.14.3.29.4v0c-.06-.12,0-.28-.09-.42l-.27-.42a5.59,5.59,0,0,0-.9-1.48c-.31-.35-1-.9-1.07-1.37l0,0a4.83,4.83,0,0,0,.85,0c.42,0,.77.11,1.2.11l.6,0,0-.1c-.16-.27-.24-.58-.41-.84a16.5,16.5,0,0,0-1.54-1.91c-.3-.32-.73-.59-1.06-.89-.12-.1-.34-.19-.4-.33a4.89,4.89,0,0,1-.24-1c-.18-.72-.32-1.51-.44-2.25a11.56,11.56,0,0,0-.25-1.47,12,12,0,0,0-3.38-5.48,5.74,5.74,0,0,0-1.36-.86l-.86-.26a5.79,5.79,0,0,1-.43-.55c-.55-.58-2-1.92-2.81-.85-.51.67.08,1.61.25,2.06a6.57,6.57,0,0,1,.37,1c0,.22,0,.43,0,.66a16,16,0,0,0,.21,1.71,5.69,5.69,0,0,0,.25.83c.06.15.2.25.18.47a3.15,3.15,0,0,0-.48.8,5.19,5.19,0,0,0-.66,4c.11.34.39,1.09,1,1s.63-.77.93-1.31c.07-.13.07-.23.16-.3v0c.08.37.17.72.23,1.08a7,7,0,0,0,1.11,1.94c.23.28.36.7.67.91v0h0a2,2,0,0,0-.21-.3,5.65,5.65,0,0,1-.43-.85,15,15,0,0,1-.75-2.44c-.1-.4-.16-.84-.22-1.24,0-.15,0-.36-.08-.46a4.54,4.54,0,0,0-.75.64,7.17,7.17,0,0,0-.78,1.67h0c-.34-.18-.37-.6-.43-1a5.17,5.17,0,0,1,.68-3.12c.15-.22.69-.9.61-1.16s-.21-.43-.29-.64a4,4,0,0,1-.23-.84c-.11-.72-.07-1.48-.21-2.2a5.78,5.78,0,0,0-.35-1,5.91,5.91,0,0,1-.4-1.07c0-.14-.06-.37.07-.48a.19.19,0,0,1,.2-.11c.18-.09.57.18.7.29a5.3,5.3,0,0,1,1,.87c.14.16.25.42.45.53l.24.06c.35.18.78.23,1.1.42a7.44,7.44,0,0,1,1.47,1.23,10.62,10.62,0,0,1,2.6,4.88c.07.3.07.56.12.87.1.63.26,1.29.36,1.91a7.8,7.8,0,0,0,.42,1.76c.11.29.78.59,1.06.8a7.71,7.71,0,0,1,.71.53c.34.34.66.72,1,1.08.15.19.66.62.63.87"/><path class="cls-31" d="M389.79,346.55l.24.06.3-1.18-.36-.09-.5.73-.12-.89-.34-.08-.3,1.17.22.06.23-.9h0l.1,1,.17,0,.57-.81Zm-1.94-.5.26.07.25-1,.33.09.05-.2-.93-.24-.05.2.34.09Z"/><path d="M306.84,317.23A10,10,0,0,1,305,328.92l-1.17-2.25a3,3,0,0,0-1.83-1.5c2.11-1.63,2.57-3.59,1.27-6.1a5.26,5.26,0,0,0-2-2.28,4,4,0,0,0-1.63-2.59,3.3,3.3,0,0,0-1.63,2.27,11.22,11.22,0,0,0-2.35.92,9.47,9.47,0,0,0-2.05,1.41,3.32,3.32,0,0,0-2.85,0,3.41,3.41,0,0,0,1.28,2.78,4.93,4.93,0,0,0,.6,3c1.3,2.52,3.16,3.27,5.71,2.48a3,3,0,0,0-.13,1.39l-1.05.54a1.51,1.51,0,0,1-1.61-.11,2.57,2.57,0,0,0-1.62-.3c-.25.09-.31.37,0,.43.95.14,1.43.93,2,1.32a1.68,1.68,0,0,0,1.77.08l1.06-.55.94,1.81a10,10,0,1,1,7.15-14.45Z"/><path d="M139.34,306.12a12.35,12.35,0,1,0,3.16,17.18,12.23,12.23,0,0,0,2-4.89,4,4,0,0,1-2.79.19,9.66,9.66,0,1,1-3.89-10.27,9.52,9.52,0,0,1,2.82,3.05,4.06,4.06,0,0,1,2.73-.63A12.3,12.3,0,0,0,139.34,306.12Zm5.19,6.19a3,3,0,1,0,.76,4.11A2.94,2.94,0,0,0,144.53,312.31Zm-9.15-.44a5.37,5.37,0,1,0,1.37,7.47A5.36,5.36,0,0,0,135.38,311.87Z"/><g id="g3438"><g id="g3440"><g class="cls-34"><g id="g3442"><g id="g3448"><g id="g3450"><path id="path3462" class="cls-35" d="M48.44,334.75c1.71,5.27,11.2,6.9,21.21,3.66h0c10-3.25,16.73-10.14,15-15.41h0c-1.71-5.26-11.2-6.89-21.2-3.65h0c-10,3.25-16.73,10.14-15,15.4"/></g></g></g></g></g><g id="g3464"><g class="cls-36"><g id="g3466"><g id="g3472"><path id="path3474" class="cls-37" d="M69.42,337.7C79,334.58,85.54,328.11,84,323.23s-10.65-6.29-20.27-3.17-16.12,9.59-14.54,14.46,10.65,6.3,20.27,3.18"/></g></g></g></g><g id="g3476"><g class="cls-36"><g id="g3478"><g id="g3484"><path id="path3486" d="M58.64,332.66a3,3,0,0,0,1.61-1,2.44,2.44,0,0,0,.28-1.71c-.08-.68-.27-1.11-.57-1.28a2,2,0,0,0-1.55.09l-1.27.41.47,3.83ZM56,338.43a.19.19,0,0,1-.18,0,.19.19,0,0,1-.09-.15l-1.24-10.15a.19.19,0,0,1,.14-.22l4-1.3a3.7,3.7,0,0,1,3.11.12,3.31,3.31,0,0,1,1.45,2.63,4.35,4.35,0,0,1,0,1.49,4.66,4.66,0,0,1-.52,1.4,4.15,4.15,0,0,1-1.17,1.35,7,7,0,0,1-1.92.9l-1.62.53.31,2.53a.21.21,0,0,1-.14.22Z"/></g><g id="g3488"><path id="path3490" class="cls-5" d="M57.37,329.3l1.1-.35c.88-.29,1.25-.2,1.39-.11s.4.52.47,1.13a2.28,2.28,0,0,1-.25,1.57,2.82,2.82,0,0,1-1.51.92l-.78.25Zm1.14-2.9-4,1.29a.43.43,0,0,0-.28.45l1.24,10.15a.46.46,0,0,0,.19.3.43.43,0,0,0,.35,0l2.08-.67a.41.41,0,0,0,.28-.45l-.29-2.36,1.46-.47a7,7,0,0,0,2-.94,4.22,4.22,0,0,0,1.23-1.41,5.14,5.14,0,0,0,.55-1.45,5.08,5.08,0,0,0,.05-1.56,3.55,3.55,0,0,0-1.56-2.79,3.86,3.86,0,0,0-3.28-.13m-1.07,6.86,1.26-.41a3.2,3.2,0,0,0,1.72-1.08,2.61,2.61,0,0,0,.32-1.85,1.79,1.79,0,0,0-.68-1.44,2.24,2.24,0,0,0-1.72.07l-1.42.46.52,4.25m1.2-6.47a3.51,3.51,0,0,1,2.94.09,3.14,3.14,0,0,1,1.36,2.49,4.47,4.47,0,0,1,0,1.42,4.54,4.54,0,0,1-.5,1.34,3.86,3.86,0,0,1-1.12,1.28,6.73,6.73,0,0,1-1.86.88l-1.78.57.33,2.7-2.08.68-1.24-10.15,4-1.3"/></g><g id="g3492"><path id="path3494" d="M69.07,331.37a.2.2,0,0,1-.17,0,.2.2,0,0,1-.1-.15l-.55-4.49c0-.43-.16-.71-.31-.8s-.35-.11-1,.09l-1.49.49.69,5.64a.2.2,0,0,1-.14.22L64,333a.22.22,0,0,1-.18,0,.21.21,0,0,1-.09-.15L62.47,322.7a.21.21,0,0,1,.14-.22l2.06-.67a.22.22,0,0,1,.18,0,.24.24,0,0,1,.09.15l.3,2.45,1.6-.52a3.91,3.91,0,0,1,2.74-.16,2.28,2.28,0,0,1,1.15,2l.58,4.72a.21.21,0,0,1-.14.22Z"/></g><g id="g3496"><path id="path3498" class="cls-5" d="M64.61,321.61l-2.06.67a.43.43,0,0,0-.29.45l1.24,10.15a.46.46,0,0,0,.19.3.43.43,0,0,0,.35,0l2.07-.67a.42.42,0,0,0,.28-.44l-.67-5.48L67,326.2c.62-.2.79-.11.8-.11s.15.2.21.64l.55,4.5a.37.37,0,0,0,.19.29.39.39,0,0,0,.35.05l2.09-.68a.4.4,0,0,0,.28-.44l-.57-4.73a2.52,2.52,0,0,0-1.27-2.16,4,4,0,0,0-2.89.16l-1.36.44-.27-2.2a.42.42,0,0,0-.19-.3.43.43,0,0,0-.35-.05m.13.4.33,2.7,1.84-.6a3.74,3.74,0,0,1,2.59-.17,2.1,2.1,0,0,1,1,1.83l.57,4.73-2.09.68-.55-4.5c-.06-.51-.2-.82-.42-.95a1.55,1.55,0,0,0-1.12.08l-1.65.53.71,5.82-2.07.67-1.24-10.15,2.07-.67"/></g><g id="g3500"><path id="path3502" d="M74.87,327.39a3.07,3.07,0,0,0,1.62-1,2.51,2.51,0,0,0,.28-1.71c-.08-.69-.28-1.12-.57-1.29a2.15,2.15,0,0,0-1.56.09l-1.26.41.47,3.83Zm-2.69,5.78a.2.2,0,0,1-.17,0,.22.22,0,0,1-.1-.15l-1.24-10.15a.23.23,0,0,1,.14-.23l4-1.29a3.7,3.7,0,0,1,3.11.11,3.36,3.36,0,0,1,1.46,2.64,4.94,4.94,0,0,1,0,1.49,4.66,4.66,0,0,1-.52,1.4,4.14,4.14,0,0,1-1.18,1.34,6.88,6.88,0,0,1-1.92.91l-1.62.52.31,2.53a.19.19,0,0,1-.14.22Z"/></g><g id="g3504"><path id="path3506" class="cls-5" d="M73.6,324l1.11-.36c.87-.29,1.24-.19,1.38-.11s.4.53.48,1.13a2.33,2.33,0,0,1-.25,1.57,2.86,2.86,0,0,1-1.51.92l-.79.26Zm1.15-2.91-4,1.3a.4.4,0,0,0-.28.44L71.71,333a.4.4,0,0,0,.19.3.43.43,0,0,0,.35.05l2.08-.68a.42.42,0,0,0,.28-.44l-.29-2.36,1.46-.48a7,7,0,0,0,2-.93A4.45,4.45,0,0,0,79,327.07a5.06,5.06,0,0,0,.54-1.46,4.77,4.77,0,0,0,0-1.56A3.52,3.52,0,0,0,78,321.26a3.9,3.9,0,0,0-3.28-.13M73.67,328l1.27-.41a3.26,3.26,0,0,0,1.72-1.09,2.64,2.64,0,0,0,.32-1.85,1.85,1.85,0,0,0-.68-1.44,2.25,2.25,0,0,0-1.72.08l-1.43.46.52,4.25m1.21-6.48a3.47,3.47,0,0,1,2.94.1,3.11,3.11,0,0,1,1.35,2.48,4.54,4.54,0,0,1,0,1.43,4.49,4.49,0,0,1-.5,1.33,3.87,3.87,0,0,1-1.12,1.28,6.46,6.46,0,0,1-1.86.88l-1.78.58.33,2.7-2.08.67-1.24-10.15,4-1.3"/></g></g></g></g></g></g></g></svg>